<svg version="1.1" id="Layer_1" xmlns="http://www.w3.org/2000/svg" xmlns:xlink="http://www.w3.org/1999/xlink" x="0px" y="0px"
	 width="256px" height="256px" viewBox="0 0 256 256" enable-background="new 0 0 256 256" xml:space="preserve">
<g>
	<g>
		<path fill-rule="evenodd" clip-rule="evenodd" fill="#FF9900" d="M103.03,142.115c-9.649,7.121-23.638,10.908-35.684,10.908
			c-16.883,0-32.085-6.24-43.591-16.629c-0.903-0.815-0.097-1.93,0.988-1.299c12.413,7.224,27.762,11.573,43.616,11.573
			c10.694,0,22.451-2.22,33.268-6.808C103.259,139.17,104.627,140.938,103.03,142.115z"/>
		<path fill-rule="evenodd" clip-rule="evenodd" fill="#FF9900" d="M107.045,137.531c-1.234-1.58-8.159-0.748-11.269-0.376
			c-0.942,0.112-1.088-0.71-0.239-1.306c5.523-3.881,14.573-2.76,15.625-1.462c1.06,1.312-0.277,10.384-5.454,14.715
			c-0.796,0.666-1.553,0.312-1.2-0.569C105.673,145.625,108.28,139.112,107.045,137.531z"/>
	</g>
	<g>
		<path fill-rule="evenodd" clip-rule="evenodd" d="M95.996,108.443v-3.77c0.002-0.574,0.435-0.957,0.956-0.956l16.895-0.001
			c0.54,0,0.974,0.394,0.975,0.952l-0.001,3.233c-0.004,0.542-0.46,1.25-1.272,2.373l-8.751,12.496
			c3.249-0.077,6.685,0.41,9.637,2.069c0.666,0.374,0.844,0.928,0.896,1.472v4.022c0,0.554-0.606,1.195-1.244,0.862
			c-5.201-2.725-12.102-3.023-17.852,0.033c-0.588,0.312-1.203-0.319-1.203-0.874v-3.824c0-0.611,0.011-1.658,0.628-2.591
			l10.14-14.546l-8.828-0.001C96.432,109.392,96,109.008,95.996,108.443z"/>
		<path fill-rule="evenodd" clip-rule="evenodd" d="M34.366,131.987h-5.14c-0.489-0.032-0.88-0.399-0.919-0.868l0.003-26.381
			c0-0.528,0.444-0.95,0.992-0.95l4.787-0.001c0.501,0.026,0.903,0.405,0.935,0.886v3.444h0.096
			c1.248-3.331,3.599-4.885,6.765-4.885c3.215,0,5.23,1.555,6.67,4.885c1.247-3.331,4.078-4.885,7.101-4.885
			c2.159,0,4.51,0.889,5.949,2.887c1.631,2.221,1.296,5.44,1.296,8.272l-0.004,16.647c0,0.527-0.444,0.95-0.991,0.95h-5.134
			c-0.516-0.032-0.923-0.442-0.923-0.947l-0.001-13.985c0-1.11,0.096-3.886-0.144-4.941c-0.384-1.776-1.535-2.276-3.022-2.276
			c-1.247,0-2.543,0.833-3.071,2.165c-0.528,1.332-0.479,3.553-0.479,5.052v13.982c0,0.527-0.444,0.95-0.991,0.95h-5.134
			c-0.516-0.032-0.923-0.442-0.923-0.947l-0.005-13.985c0-2.942,0.48-7.272-3.166-7.272c-3.695,0-3.551,4.219-3.551,7.272
			l-0.002,13.982C35.358,131.564,34.914,131.987,34.366,131.987z"/>
		<path fill-rule="evenodd" clip-rule="evenodd" d="M129.365,103.231c7.629,0,11.755,6.551,11.755,14.878
			c0,8.049-4.558,14.434-11.755,14.434c-7.485,0-11.563-6.551-11.563-14.711C117.802,109.616,121.928,103.231,129.365,103.231z
			 M129.413,108.617c-3.791,0-4.03,5.162-4.03,8.382c0,3.22-0.048,10.104,3.982,10.104c3.982,0,4.174-5.552,4.174-8.938
			c0-2.221-0.096-4.885-0.768-6.995C132.195,109.338,131.044,108.617,129.413,108.617z"/>
		<path fill-rule="evenodd" clip-rule="evenodd" d="M151.014,131.987h-5.121c-0.515-0.032-0.923-0.442-0.923-0.947l-0.008-26.391
			c0.044-0.482,0.47-0.861,0.987-0.861l4.769-0.001c0.448,0.023,0.818,0.33,0.913,0.739v4.035h0.097
			c1.439-3.608,3.454-5.33,7.005-5.33c2.302,0,4.558,0.833,5.997,3.109c1.344,2.11,1.344,5.663,1.344,8.216v16.6
			c-0.058,0.468-0.477,0.831-0.984,0.831h-5.153c-0.476-0.03-0.859-0.38-0.915-0.831v-14.324c0-2.887,0.336-7.106-3.215-7.106
			c-1.248,0-2.399,0.833-2.975,2.11c-0.72,1.609-0.816,3.22-0.816,4.996v14.205C152.005,131.564,151.562,131.987,151.014,131.987z"
			/>
		<ellipse fill-rule="evenodd" clip-rule="evenodd" cx="171.825" cy="129.895" rx="2.53" ry="2.404"/>
		<path d="M223.753,131.994c-0.533-0.016-0.959-0.432-0.959-0.949v-26.383c0.036-0.465,0.429-0.836,0.92-0.868l1.887,0
			c0.52,0,0.945,0.379,0.987,0.869v3.847c1.342-3.048,3.841-5.437,7.001-5.437l0.198,0.003l0.19-0.003
			c3.352,0,5.804,2.473,6.715,6.065c1.42-3.546,4.097-6.065,7.625-6.065l0.184,0.003l0.206-0.003c2.494,0,4.894,1.61,6.142,4.053
			c1.199,2.332,1.151,5.44,1.151,8.049l-0.001,15.873c0.001,0.506-0.407,0.914-0.923,0.947h-2.258
			c-0.486-0.015-0.885-0.363-0.95-0.818v-16.001c0-1.888,0.096-3.886-0.672-5.607c-0.784-1.762-2.278-2.856-3.885-2.937
			c-1.795,0.089-3.441,1.392-4.507,3.159c-1.392,2.276-1.342,4.33-1.342,6.995v14.4c-0.064,0.438-0.444,0.778-0.915,0.81h-2.247
			c-0.532-0.016-0.96-0.432-0.96-0.949l-0.01-16.925c0-1.555-0.096-3.386-0.815-4.774c-0.829-1.597-2.318-2.632-3.879-2.715
			c-1.618,0.091-3.255,1.328-4.226,2.771c-1.247,1.832-1.487,4.108-1.487,6.439l-0.001,15.207c0,0.506-0.407,0.914-0.923,0.947
			H223.753z"/>
		<path d="M208.263,132.55c-7.292,0-10.555-7.439-10.555-14.877c0-7.828,3.839-14.6,11.179-14.6l0.189,0.002l0.199-0.002
			c7.149,0,10.7,7.217,10.7,14.655c0,7.883-3.935,14.822-11.324,14.822l-0.189-0.002L208.263,132.55z M208.801,128.938
			c2.399-0.078,4.292-1.564,5.412-4.048c1.007-2.221,1.199-4.774,1.199-7.217c0-2.665-0.288-5.44-1.535-7.716
			c-1.117-1.991-3.044-3.252-5.084-3.327c-2.272,0.083-4.297,1.619-5.323,3.993c-0.911,2.054-1.199,4.774-1.199,7.05
			c0,2.553,0.336,5.496,1.392,7.716C204.688,127.493,206.665,128.863,208.801,128.938z"/>
		<path d="M185.474,128.827c3.273-0.103,4.992-2.726,5.706-6.128c0.139-0.424,0.465-0.75,0.941-0.75l2.166-0.009
			c0.51,0.027,0.979,0.417,0.94,0.894c-1,5.786-4.492,9.716-9.47,9.716l-0.2-0.002l-0.188,0.002
			c-7.244,0-10.363-7.272-10.363-14.655c0-7.328,3.167-14.822,10.411-14.822l0.191,0.002l0.197-0.002
			c5.027,0,8.616,3.875,9.395,9.664c0,0.434-0.403,0.811-0.875,0.865l-2.27-0.026c-0.472-0.067-0.784-0.477-0.854-0.932
			c-0.547-3.232-2.402-5.801-5.496-5.903c-4.926,0.157-6.327,6.22-6.327,10.877C179.378,122.112,180.547,128.664,185.474,128.827z"
			/>
		<path fill-rule="evenodd" clip-rule="evenodd" d="M82.527,119.389c0,2.003,0.048,3.672-0.961,5.452
			c-0.818,1.447-2.116,2.337-3.559,2.337c-1.971,0-3.125-1.502-3.125-3.728c0-4.378,3.927-5.174,7.646-5.174V119.389z
			 M87.709,131.922c-0.34,0.305-0.831,0.325-1.214,0.119c-1.707-1.419-2.013-2.074-2.946-3.426c-2.822,2.875-4.82,3.736-8.475,3.736
			c-4.327,0-7.693-2.67-7.693-8.011c0-4.173,2.26-7.01,5.481-8.401c2.789-1.224,6.684-1.447,9.665-1.781v-0.667
			c0-1.224,0.096-2.67-0.625-3.728c-0.625-0.946-1.827-1.335-2.885-1.335c-1.96,0-3.704,1.005-4.132,3.087
			c-0.088,0.463-0.427,0.921-0.893,0.945l-4.982-0.539c-0.421-0.095-0.888-0.432-0.767-1.075c1.145-6.044,6.603-7.87,11.495-7.87
			c2.5,0,5.77,0.667,7.741,2.56c2.5,2.336,2.26,5.452,2.26,8.846v8.008c0,2.409,1.001,3.465,1.94,4.764
			c0.328,0.467,0.402,1.023-0.017,1.365c-1.05,0.88-2.915,2.501-3.942,3.414L87.709,131.922z"/>
		<path fill-rule="evenodd" clip-rule="evenodd" d="M15.146,119.389c0,2.003,0.048,3.672-0.962,5.452
			c-0.817,1.447-2.115,2.337-3.558,2.337c-1.971,0-3.125-1.502-3.125-3.728c0-4.378,3.927-5.174,7.645-5.174V119.389z
			 M20.329,131.922c-0.341,0.305-0.832,0.325-1.215,0.119c-1.708-1.419-2.013-2.074-2.946-3.426
			c-2.821,2.875-4.82,3.736-8.474,3.736c-4.328,0-7.693-2.67-7.693-8.011c0-4.173,2.26-7.01,5.481-8.401
			c2.789-1.224,6.684-1.447,9.665-1.781v-0.667c0-1.224,0.096-2.67-0.625-3.728c-0.625-0.946-1.828-1.335-2.885-1.335
			c-1.96,0-3.704,1.005-4.131,3.087c-0.089,0.463-0.427,0.921-0.893,0.945l-4.982-0.539c-0.42-0.095-0.889-0.432-0.767-1.075
			c1.145-6.044,6.603-7.87,11.494-7.87c2.501,0,5.771,0.667,7.742,2.56c2.5,2.336,2.26,5.452,2.26,8.846v8.008
			c0,2.409,1,3.465,1.94,4.764c0.328,0.467,0.402,1.023-0.017,1.365c-1.05,0.88-2.916,2.501-3.942,3.414L20.329,131.922z"/>
	</g>
</g>
</svg>
