<?xml version="1.0" encoding="utf-8"?>
<!-- Generator: Adobe Illustrator 16.0.0, SVG Export Plug-In . SVG Version: 6.00 Build 0)  -->
<!DOCTYPE svg PUBLIC "-//W3C//DTD SVG 1.1//EN" "http://www.w3.org/Graphics/SVG/1.1/DTD/svg11.dtd">
<svg version="1.1" id="Layer_1" xmlns="http://www.w3.org/2000/svg" xmlns:xlink="http://www.w3.org/1999/xlink" x="0px" y="0px"
	 width="256px" height="128px" viewBox="0 0 256 128" enable-background="new 0 0 256 128" xml:space="preserve">
<g>
	<path fill="#1A4822" d="M85.898,38.5c-14.33,0-25.939,11.621-25.939,25.939c0,14.332,11.609,25.955,25.939,25.955
		c14.326,0,25.936-11.623,25.936-25.955C111.834,50.123,100.225,38.5,85.898,38.5 M70.076,64.442
		c0.011-8.738,7.078-15.801,15.822-15.822c8.737,0.021,15.805,7.084,15.826,15.822c-0.021,8.732-7.088,15.798-15.826,15.814
		C77.154,80.24,70.087,73.174,70.076,64.442"/>
	<path fill="#429644" d="M41.781,64.143c-0.02-8.724-7.088-15.365-15.829-15.365c-8.581,0-15.823,6.824-15.823,15.346v25.275H0.014
		L0,63.653c0-13.241,11.938-25,25.952-25c14.009,0,25.935,11.74,25.935,25V89.4H41.781V64.143L41.781,64.143z"/>
	<path fill="#7686C2" d="M143.27,38.5L143.27,38.5c-14.34,0-25.959,11.611-25.959,25.96c0,14.317,11.623,25.928,25.959,25.928
		c14.316,0,25.932-11.609,25.937-25.928C169.2,50.121,157.596,38.5,143.27,38.5 M143.27,80.273
		c-8.748-0.02-15.807-7.092-15.83-15.812c0.023-8.732,7.082-15.807,15.83-15.829c8.726,0.021,15.803,7.097,15.803,15.829
		C159.07,73.191,151.994,80.254,143.27,80.273 M120.062,102.23h1.283v5.223c0.408-0.32,1.266-1.059,2.641-1.059
		c2.341,0,3.66,2.008,3.66,4.145c0,2.73-1.728,4.531-4.498,4.531c-1.058,0-2.116-0.221-3.086-0.631V102.23z M121.348,113.604
		c0.948,0.338,1.745,0.338,1.914,0.338c1.746,0,3.065-1.396,3.065-3.289c0-1.785-1.152-3.125-2.603-3.125
		c-0.61,0-1.541,0.318-2.379,1.229v4.848H121.348z M130.105,119.18h-1.375l2.883-5.986l-3.385-6.633h1.394l2.66,5.262l2.509-5.262
		h1.393L130.105,119.18z M145.633,102.23c1.877,0,4.033,0.725,4.033,3.291c0,1.818-1.376,2.527-1.875,2.729
		c2.449,0.467,2.986,2.178,2.986,3.256c0,1.447-1.111,3.398-3.731,3.398h-4.591V102.23H145.633z M143.85,103.455v4.426h1.375
		c2.121,0,2.955-0.873,2.955-2.25c0-1.561-0.91-2.176-2.955-2.176H143.85z M143.85,109.105v4.574h2.248
		c2.729,0,3.197-1.209,3.197-2.289c0-1.057-0.71-2.285-3.234-2.285H143.85z M159.262,114.311c-1.043,0.742-1.432,0.76-1.656,0.76
		c-0.684,0-0.834-0.557-0.905-0.945c-1.046,0.779-1.692,0.945-2.438,0.945c-1.171,0-2.154-0.891-2.154-2.115
		c0-1.355,1.113-2.453,4.572-3.066v-0.742c0-0.539-0.094-1.617-1.656-1.617c-1.096,0-1.873,0.559-2.6,1.227v-1.336
		c0.406-0.355,1.354-1.023,2.711-1.023c2.381,0,2.824,1.672,2.824,2.619v4.572c0,0.354,0.038,0.445,0.227,0.445
		c0.164,0,0.575-0.188,1.076-0.596V114.311L159.262,114.311z M156.68,110.723c-2.139,0.393-3.291,1.1-3.291,2.137
		c0,1.004,0.932,1.283,1.41,1.283c0.895,0,1.564-0.596,1.881-0.891V110.723z M162.055,106.561v1.842
		c0.225-0.354,0.707-1.078,1.396-1.547c0.166-0.105,0.703-0.461,1.263-0.461c0.8,0,1.675,0.725,1.988,0.982l-0.688,1.117
		c-0.279-0.244-0.893-0.783-1.617-0.783c-0.742,0-1.654,0.67-2.043,1.58c-0.299,0.67-0.299,1.584-0.299,2.01v3.604h-1.283v-8.344
		H162.055z M169.154,106.561v1.266c0.613-0.816,1.431-1.432,2.623-1.432c1.873,0,2.992,1.373,2.992,3.527v4.982h-1.285v-4.869
		c0-1.412-0.536-2.508-2.006-2.508c-0.481,0-1.545,0.148-2.324,1.467v5.91h-1.283v-8.344H169.154L169.154,106.561z M184.085,110.816
		h-6.19c0,2.008,1.394,3.123,2.994,3.123c1.633,0,2.659-0.838,3.065-1.172v1.299c-0.519,0.355-1.449,1.004-3.214,1.004
		c-2.788,0-4.164-2.117-4.164-4.365c0-2.898,1.931-4.311,3.83-4.311c2.062,0,3.679,1.691,3.679,4.123V110.816L184.085,110.816z
		 M182.766,109.889c-0.185-1.803-1.414-2.361-2.322-2.361c-1.045,0-2.157,0.672-2.473,2.361H182.766z M190.652,108.381
		c-0.82-0.5-1.547-0.854-2.36-0.854c-0.854,0-1.413,0.5-1.413,1.078c0,0.666,0.572,0.945,2.564,1.988
		c0.442,0.24,1.523,0.836,1.523,2.139c0,0.834-0.669,2.338-2.751,2.338c-0.987,0-1.802-0.295-2.675-0.762v-1.32
		c1.371,0.84,2.248,0.951,2.691,0.951c0.651,0,1.416-0.41,1.416-1.115c0-0.801-0.765-1.189-1.859-1.711
		c-1.021-0.484-2.193-1.078-2.193-2.473c0-1.02,0.836-2.246,2.676-2.246c1.15,0,1.951,0.461,2.381,0.705V108.381z M207.773,114.904
		h-1.782l-1.693-1.855c-0.517,0.48-1.876,2.021-4.217,2.021c-1.653,0-3.218-1.227-3.218-3.027c0-1.598,1.285-2.898,3.068-3.793
		c-1.152-1.242-1.505-2.08-1.505-2.953c0-1.617,1.243-2.824,3.085-2.824c1.915,0,2.951,1.377,2.951,2.713
		c0,1.807-1.634,2.824-2.488,3.348l2.322,2.523c0.43-0.555,0.82-1.135,1.378-2.471h1.429c-0.405,1.17-1.02,2.344-1.896,3.475
		L207.773,114.904z M200.768,109.201c-2.34,1.486-2.416,2.08-2.416,2.729c0,0.986,0.705,1.824,1.95,1.824
		c1.414,0,2.288-0.873,3.104-1.693L200.768,109.201z M203.146,105.262c0-0.729-0.52-1.564-1.67-1.564
		c-1.269,0-1.731,0.896-1.731,1.508c0,0.646,0.429,1.469,1.378,2.379C202.05,107.154,203.146,106.432,203.146,105.262z
		 M224.718,114.904h-1.19l-9.051-10.441v10.441h-1.354V102.23h1.188l9.051,10.445V102.23h1.357L224.718,114.904L224.718,114.904z
		 M235.113,110.723c0,2.398-1.951,4.348-4.35,4.348c-2.397,0-4.328-1.947-4.328-4.348c0-2.395,1.932-4.328,4.328-4.328
		C233.161,106.395,235.113,108.326,235.113,110.723z M227.754,110.723c0,1.77,1.281,3.219,3.028,3.219
		c1.749,0,3.014-1.449,3.014-3.219c0-1.764-1.265-3.195-3.014-3.195C229.035,107.527,227.754,108.959,227.754,110.723z
		 M236.572,102.23h1.281v5.223c0.408-0.32,1.263-1.059,2.638-1.059c2.343,0,3.661,2.008,3.661,4.145c0,2.73-1.729,4.531-4.496,4.531
		c-1.061,0-2.118-0.221-3.084-0.631V102.23L236.572,102.23z M237.854,113.604c0.946,0.338,1.748,0.338,1.914,0.338
		c1.746,0,3.066-1.396,3.066-3.289c0-1.785-1.154-3.125-2.604-3.125c-0.615,0-1.541,0.318-2.377,1.229V113.604L237.854,113.604z
		 M246.872,114.904h-1.283V102.23h1.283V114.904z M256,110.816h-6.189c0,2.008,1.393,3.123,2.99,3.123
		c1.635,0,2.658-0.838,3.065-1.172v1.299c-0.521,0.355-1.446,1.004-3.214,1.004c-2.789,0-4.164-2.117-4.164-4.365
		c0-2.898,1.934-4.311,3.828-4.311c2.062,0,3.684,1.691,3.684,4.123V110.816z M254.677,109.889
		c-0.186-1.803-1.413-2.361-2.323-2.361c-1.039,0-2.152,0.672-2.472,2.361H254.677z"/>
	<path fill="#B3BC35" d="M177.134,89.445h10.12V15.418h-10.12V89.445z M200.409,64.405l21.755-24.903l-12.162,0.003l-22.744,24.994
		l24.559,24.947h13.33L200.409,64.405z M228.751,39.295c0.499,0,0.981,0.126,1.44,0.376c0.463,0.25,0.824,0.61,1.088,1.078
		c0.263,0.468,0.394,0.958,0.394,1.472c0,0.508-0.126,0.992-0.386,1.455c-0.258,0.463-0.619,0.822-1.083,1.08
		c-0.459,0.258-0.946,0.387-1.453,0.387c-0.511,0-0.997-0.127-1.457-0.387c-0.461-0.258-0.821-0.617-1.08-1.08
		c-0.261-0.463-0.389-0.947-0.389-1.455c0-0.513,0.132-1.003,0.396-1.472c0.264-0.468,0.625-0.828,1.086-1.078
		C227.77,39.421,228.248,39.295,228.751,39.295z M228.753,39.869c-0.401,0-0.786,0.103-1.159,0.303
		c-0.363,0.201-0.654,0.489-0.869,0.865c-0.213,0.379-0.317,0.772-0.317,1.185c0,0.409,0.104,0.799,0.311,1.172
		c0.207,0.373,0.499,0.662,0.868,0.871c0.371,0.209,0.764,0.312,1.168,0.312c0.412,0,0.801-0.104,1.169-0.312
		c0.373-0.209,0.661-0.498,0.871-0.871c0.208-0.373,0.312-0.763,0.312-1.172c0-0.412-0.104-0.806-0.318-1.185
		c-0.211-0.376-0.503-0.664-0.871-0.865C229.543,39.971,229.157,39.869,228.753,39.869z M227.428,43.786v-3.104h0.633
		c0.59,0,0.92,0.002,0.99,0.006c0.211,0.021,0.371,0.062,0.487,0.125c0.119,0.064,0.212,0.164,0.29,0.299
		c0.078,0.131,0.115,0.281,0.115,0.443c0,0.225-0.071,0.416-0.219,0.575c-0.147,0.157-0.354,0.257-0.617,0.295
		c0.096,0.036,0.168,0.075,0.218,0.116c0.055,0.044,0.122,0.123,0.211,0.238c0.024,0.033,0.101,0.158,0.229,0.379l0.365,0.626
		h-0.777l-0.263-0.503c-0.172-0.34-0.317-0.553-0.432-0.641c-0.117-0.086-0.261-0.13-0.438-0.13h-0.162v1.273L227.428,43.786
		L227.428,43.786z M228.061,42.022h0.254c0.363,0,0.594-0.015,0.679-0.043c0.089-0.028,0.157-0.076,0.207-0.146
		c0.051-0.072,0.075-0.149,0.075-0.239c0-0.088-0.024-0.164-0.071-0.229c-0.05-0.069-0.122-0.116-0.213-0.146
		c-0.095-0.03-0.314-0.045-0.677-0.045h-0.254V42.022z"/>
</g>
</svg>
