<?xml version="1.0" encoding="utf-8"?>
<!-- Generator: Adobe Illustrator 16.0.0, SVG Export Plug-In . SVG Version: 6.00 Build 0)  -->
<!DOCTYPE svg PUBLIC "-//W3C//DTD SVG 1.1//EN" "http://www.w3.org/Graphics/SVG/1.1/DTD/svg11.dtd">
<svg version="1.1" id="Layer_1" xmlns="http://www.w3.org/2000/svg" xmlns:xlink="http://www.w3.org/1999/xlink" x="0px" y="0px"
	 width="256px" height="128px" viewBox="0 0 256 128" enable-background="new 0 0 256 128" xml:space="preserve">
<path fill="#00529C" d="M0.313,102.779h5.598c1.373,0,2.34,0.342,2.979,0.98c0.438,0.438,0.702,1.016,0.702,1.764v0.031
	c0,1.263-0.718,2.012-1.685,2.433c1.325,0.437,2.167,1.185,2.167,2.667v0.031c0,1.871-1.527,3.01-4.132,3.01H0.313V102.779z
	 M5.163,107.13c0.919,0,1.435-0.312,1.435-0.952v-0.031c0-0.592-0.468-0.936-1.372-0.936H3.26v1.919H5.163z M5.6,111.262
	c0.919,0,1.45-0.358,1.45-0.998v-0.031c0-0.594-0.468-0.981-1.481-0.981H3.26v2.011H5.6z M11.084,108.268v-0.03
	c0-3.135,2.526-5.677,5.895-5.677c3.369,0,5.863,2.51,5.863,5.645v0.032c0,3.134-2.526,5.676-5.895,5.676
	S11.084,111.402,11.084,108.268z M19.755,108.268v-0.03c0-1.575-1.139-2.948-2.808-2.948c-1.653,0-2.76,1.342-2.76,2.916v0.032
	c0,1.574,1.139,2.946,2.791,2.946C18.647,111.184,19.755,109.843,19.755,108.268z M24.037,108.268v-0.03
	c0-3.135,2.526-5.677,5.896-5.677c3.368,0,5.863,2.51,5.863,5.645v0.032c0,3.134-2.526,5.676-5.896,5.676
	C26.533,113.913,24.037,111.402,24.037,108.268z M32.708,108.268v-0.03c0-1.575-1.138-2.948-2.808-2.948
	c-1.652,0-2.76,1.342-2.76,2.916v0.032c0,1.574,1.139,2.946,2.792,2.946C31.601,111.184,32.708,109.843,32.708,108.268z
	 M37.364,102.779h3.026v4.428l3.758-4.428h3.587l-4.133,4.693l4.273,6.223h-3.634l-2.745-4.057l-1.106,1.234v2.822h-3.026V102.779z
	 M47.762,112.072l1.685-2.012c1.076,0.859,2.276,1.311,3.539,1.311c0.812,0,1.248-0.28,1.248-0.748v-0.031
	c0-0.453-0.358-0.701-1.84-1.045c-2.324-0.53-4.117-1.186-4.117-3.431v-0.032c0-2.027,1.606-3.492,4.226-3.492
	c1.856,0,3.307,0.498,4.492,1.45l-1.513,2.136c-0.999-0.701-2.091-1.075-3.057-1.075c-0.733,0-1.092,0.312-1.092,0.701v0.032
	c0,0.498,0.374,0.717,1.887,1.06c2.511,0.546,4.07,1.356,4.07,3.399v0.031c0,2.23-1.763,3.557-4.413,3.557
	C50.943,113.883,49.103,113.273,47.762,112.072z M63.365,108.222v-0.032c0-1.451,1.186-2.619,2.636-2.619s2.636,1.168,2.636,2.619
	v0.032c0,1.45-1.186,2.619-2.636,2.619S63.365,109.672,63.365,108.222z M77.848,105.429h-3.275v-2.649h9.575v2.649h-3.274v8.267
	h-3.025V105.429z M84.627,108.268v-0.03c0-3.135,2.525-5.677,5.894-5.677c3.369,0,5.864,2.51,5.864,5.645v0.032
	c0,3.134-2.527,5.676-5.896,5.676S84.627,111.402,84.627,108.268z M93.296,108.268v-0.03c0-1.575-1.138-2.948-2.807-2.948
	c-1.652,0-2.76,1.342-2.76,2.916v0.032c0,1.574,1.138,2.946,2.791,2.946C92.189,111.184,93.296,109.843,93.296,108.268z
	 M100.091,109.609l-4.147-6.83h3.446l2.245,3.976l2.262-3.976h3.384l-4.147,6.783v4.133h-3.042V109.609z M106.841,112.072
	l1.685-2.012c1.076,0.859,2.276,1.311,3.54,1.311c0.811,0,1.247-0.28,1.247-0.748v-0.031c0-0.453-0.358-0.701-1.84-1.045
	c-2.324-0.53-4.117-1.186-4.117-3.431v-0.032c0-2.027,1.606-3.492,4.227-3.492c1.855,0,3.306,0.498,4.49,1.45l-1.512,2.136
	c-0.999-0.701-2.091-1.075-3.057-1.075c-0.733,0-1.092,0.312-1.092,0.701v0.032c0,0.498,0.374,0.717,1.887,1.06
	c2.511,0.546,4.07,1.356,4.07,3.399v0.031c0,2.23-1.762,3.557-4.413,3.557C110.022,113.883,108.182,113.273,106.841,112.072z
	 M122.445,108.222v-0.032c0-1.451,1.185-2.619,2.635-2.619s2.637,1.168,2.637,2.619v0.032c0,1.45-1.187,2.619-2.637,2.619
	S122.445,109.672,122.445,108.222z M136.927,105.429h-3.275v-2.649h9.576v2.649h-3.275v8.267h-3.025V105.429z M144.548,102.779
	h8.779v2.572h-5.785v1.654h5.24v2.385h-5.24v1.731h5.863v2.573h-8.857V102.779z M154.493,108.268v-0.03
	c0-3.183,2.448-5.677,5.755-5.677c2.229,0,3.664,0.936,4.631,2.276l-2.276,1.763c-0.624-0.78-1.342-1.279-2.386-1.279
	c-1.528,0-2.605,1.295-2.605,2.885v0.032c0,1.637,1.077,2.915,2.605,2.915c1.139,0,1.809-0.529,2.464-1.324l2.276,1.621
	c-1.029,1.42-2.417,2.464-4.834,2.464C157.005,113.913,154.493,111.526,154.493,108.268z M166.247,102.779h3.025v4.084h3.883v-4.084
	h3.024v10.916h-3.024v-4.148h-3.883v4.148h-3.025V102.779z M182.723,108.222v-0.032c0-1.451,1.186-2.619,2.636-2.619
	s2.636,1.168,2.636,2.619v0.032c0,1.45-1.186,2.619-2.636,2.619S182.723,109.672,182.723,108.222z M194.538,102.779h3.197
	l2.604,4.227l2.605-4.227h3.195v10.916h-3.009v-6.27l-2.792,4.273h-0.062l-2.776-4.242v6.238h-2.962V102.779z M207.693,108.268
	v-0.03c0-3.135,2.526-5.677,5.895-5.677c3.369,0,5.863,2.51,5.863,5.645v0.032c0,3.134-2.525,5.676-5.895,5.676
	C210.188,113.913,207.693,111.402,207.693,108.268z M216.364,108.268v-0.03c0-1.575-1.139-2.948-2.808-2.948
	c-1.653,0-2.76,1.342-2.76,2.916v0.032c0,1.574,1.139,2.946,2.791,2.946C215.257,111.184,216.364,109.843,216.364,108.268z
	 M221.021,102.779h5.162c1.668,0,2.822,0.436,3.555,1.184c0.64,0.625,0.968,1.466,0.968,2.543v0.031
	c0,1.668-0.889,2.775-2.245,3.354l2.604,3.805h-3.493l-2.199-3.307h-0.03h-1.295v3.307h-3.025V102.779z M226.042,108.02
	c1.029,0,1.623-0.5,1.623-1.295v-0.031c0-0.857-0.625-1.295-1.639-1.295h-1.98v2.621H226.042z M232.229,102.779h8.779v2.572h-5.786
	v1.654h5.24v2.385h-5.24v1.731h5.864v2.573h-8.857V102.779z M241.079,87.541H0v7.283h241.079V87.541z M237.203,73.977
	c0,3.673-2.979,6.66-6.653,6.66c-3.688,0-6.662-2.987-6.662-6.66c0-3.674,2.975-6.657,6.662-6.657
	C234.225,67.319,237.203,70.303,237.203,73.977 M57.421,21.901c-5.145-7.325-15.195-7.814-21.014-7.814H1.442v65.358h36.216
	c4.231,0,17.517,0,22.252-8.636c2.42-4.237,2.42-11.209-0.082-15.699c-3.159-5.562-6.646-6.973-11.212-8.546
	c5.651-1.908,8.883-3.984,10.88-10.057C60.736,32.612,60.494,26.209,57.421,21.901 M23.789,39V28.369h6.393
	c4.155,0,6.719,1.423,6.719,5.322c0,4.317-2.563,5.309-6.719,5.309H23.789z M23.789,65.336V54.702h7.309
	c4.146,0,6.727,1.41,6.727,5.302c0,4.326-2.58,5.332-6.727,5.332H23.789z M84.347,79.441l3.607-7.879h23.554l3.608,7.879h24.121
	l-38.482-65.307h-2.05L60.222,79.441H84.347z M99.688,45.639l5.67,12.296H94.116L99.688,45.639z M235.122,62.981l7.459-48.823
	l-24.113-0.032l7.317,48.855H235.122z M250.927,14.165c-2.835,0-5.095,2.204-5.095,4.948c0,2.807,2.26,4.983,5.095,4.983
	c2.87,0,5.073-2.176,5.073-4.983c0-2.744-2.203-4.948-5.039-4.948H250.927z M250.927,15.161c2.207,0,3.809,1.786,3.809,3.953
	c0,2.209-1.602,3.989-3.774,3.962c-2.236,0-3.864-1.753-3.864-3.962c0-2.167,1.628-3.953,3.806-3.953H250.927z M250.144,19.722
	h0.544c0.637,0,0.939,0.245,1.03,0.786c0.147,0.571,0.238,0.992,0.388,1.176h1.24c-0.12-0.152-0.212-0.453-0.361-1.204
	c-0.152-0.668-0.42-1.066-0.908-1.215v-0.061c0.605-0.181,1.025-0.602,1.025-1.176c0-0.45-0.209-0.849-0.481-1.051
	c-0.361-0.247-0.785-0.393-1.718-0.393c-0.818,0-1.45,0.091-1.902,0.18v4.919h1.144V19.722z M250.179,17.487
	c0.119-0.027,0.328-0.055,0.632-0.055c0.726,0,1.055,0.3,1.055,0.742c0,0.522-0.511,0.735-1.149,0.735h-0.537V17.487z
	 M191.808,55.809l1.229,23.636h21.261l-1.957-65.296h-1.632l-32.122,25.336l-32.013-25.336h-1.632l-1.958,65.296h21.262
	l1.227-23.636l13.114,10.636L191.808,55.809z"/>
</svg>
