<?xml version="1.0" encoding="utf-8"?>
<!-- Generator: Adobe Illustrator 16.0.0, SVG Export Plug-In . SVG Version: 6.00 Build 0)  -->
<!DOCTYPE svg PUBLIC "-//W3C//DTD SVG 1.1//EN" "http://www.w3.org/Graphics/SVG/1.1/DTD/svg11.dtd">
<svg version="1.1" id="Layer_1" xmlns="http://www.w3.org/2000/svg" xmlns:xlink="http://www.w3.org/1999/xlink" x="0px" y="0px"
	 width="256px" height="128px" viewBox="0 0 256 128" enable-background="new 0 0 256 128" xml:space="preserve">
<g>
	<path d="M126.857,77.337c-1.258-0.839-2.933-1.26-5.025-1.26h-2.875v10.597c0.6,0.119,1.586,0.18,2.961,0.18
		c2.066,0,3.697-0.404,4.895-1.217c1.437-0.932,2.155-2.33,2.155-4.195C128.968,79.639,128.259,78.27,126.857,77.337z"/>
	<path d="M149.122,71.477c-1.957,0-3.439,0.873-4.465,2.609c-0.871,1.436-1.307,3.191-1.307,5.26c0,2.008,0.436,3.729,1.307,5.172
		c1.053,1.738,2.525,2.605,4.422,2.605c1.859,0,3.316-0.883,4.371-2.65c0.904-1.468,1.354-3.209,1.354-5.217
		s-0.438-3.734-1.309-5.17C152.47,72.35,151.013,71.477,149.122,71.477z"/>
	<path d="M168.36,47.38c0.88,0,1.563-0.417,2.062-1.255c0.425-0.694,0.638-1.515,0.638-2.465c0-0.95-0.207-1.763-0.615-2.443
		c-0.479-0.822-1.17-1.233-2.062-1.233c-0.92,0-1.627,0.411-2.102,1.233c-0.412,0.68-0.619,1.507-0.619,2.487
		c0,0.95,0.207,1.763,0.619,2.446C166.776,46.968,167.47,47.38,168.36,47.38z"/>
	<path d="M126.43,71.207c1.09-0.872,1.635-2.016,1.635-3.43c0-2.971-1.977-4.461-5.92-4.461c-1.381,0-2.442,0.091-3.188,0.271v8.929
		h3.008C123.846,72.516,125.333,72.08,126.43,71.207z"/>
	<path d="M177.991,45.788c0,0.536,0.145,0.941,0.445,1.208c0.299,0.27,0.67,0.405,1.127,0.405c0.51,0,0.979-0.158,1.414-0.479
		c0.43-0.319,0.693-0.724,0.791-1.22c0.033-0.113,0.049-0.249,0.049-0.404v-1.594C179.267,43.66,177.991,44.353,177.991,45.788z"/>
	<path d="M174.508,71.477c-1.954,0-3.442,0.873-4.463,2.609c-0.875,1.436-1.312,3.191-1.312,5.26c0,2.008,0.437,3.729,1.312,5.172
		c1.05,1.738,2.519,2.605,4.416,2.605c1.865,0,3.32-0.883,4.373-2.65c0.905-1.468,1.354-3.209,1.354-5.217s-0.438-3.734-1.307-5.17
		C177.858,72.35,176.401,71.477,174.508,71.477z"/>
	<path d="M121.189,47.38c0.879,0,1.564-0.417,2.064-1.255c0.426-0.694,0.637-1.515,0.637-2.465c0-0.95-0.207-1.763-0.619-2.443
		c-0.478-0.822-1.166-1.233-2.058-1.233c-0.922,0-1.625,0.411-2.104,1.233c-0.411,0.68-0.616,1.507-0.616,2.487
		c0,0.95,0.205,1.763,0.616,2.446C119.604,46.968,120.298,47.38,121.189,47.38z"/>
	<path d="M106.206,36.218c-0.724,0-1.34,0.055-1.851,0.153v10.713c0.281,0.044,0.804,0.062,1.554,0.062
		c1.756,0,3.112-0.488,4.069-1.467s1.437-2.402,1.437-4.271c0-1.671-0.44-2.957-1.33-3.851
		C109.198,36.667,107.907,36.218,106.206,36.218z"/>
	<path d="M193.7,46.38c0.436-0.522,0.654-1.152,0.654-1.89v-1.724c0-0.299-0.021-0.538-0.062-0.72
		c-0.131-0.556-0.408-1.021-0.832-1.394c-0.424-0.375-0.934-0.566-1.529-0.566c-0.852,0-1.52,0.343-2.012,1.023
		c-0.484,0.678-0.729,1.552-0.729,2.615c0,1.018,0.234,1.848,0.699,2.487c0.5,0.68,1.17,1.018,2.002,1.018
		C192.644,47.229,193.243,46.946,193.7,46.38z"/>
	<path d="M210.043,39.984c-0.918,0-1.625,0.411-2.103,1.233c-0.414,0.68-0.618,1.507-0.618,2.487c0,0.95,0.204,1.763,0.618,2.446
		c0.494,0.818,1.188,1.23,2.078,1.23c0.883,0,1.567-0.417,2.063-1.255c0.424-0.694,0.64-1.515,0.64-2.465
		c0-0.95-0.207-1.763-0.617-2.443C211.626,40.395,210.937,39.984,210.043,39.984z"/>
	<path d="M245.185,18.285H10.811c-5.957,0-10.812,4.846-10.812,10.805v69.831c0,5.954,4.854,10.791,10.812,10.791h234.374
		c5.955,0,10.81-4.837,10.811-10.791V29.09C255.994,23.131,251.14,18.285,245.185,18.285z M219.563,38.516l0.108,1.597h0.063
		c0.271-0.499,0.668-0.909,1.188-1.233c0.623-0.383,1.318-0.577,2.085-0.577c0.967,0,1.764,0.311,2.401,0.938
		c0.797,0.764,1.188,1.904,1.188,3.423v6.184h-2.293v-5.931c0-1.83-0.693-2.741-2.084-2.741c-0.681,0-1.231,0.251-1.658,0.754
		c-0.426,0.503-0.638,1.096-0.638,1.774v6.144h-2.297v-7.379c0-0.903-0.026-1.888-0.084-2.952L219.563,38.516L219.563,38.516z
		 M179.606,39.94c-1.022,0-1.922,0.255-2.698,0.764l-0.472-1.51c0.965-0.593,2.146-0.892,3.547-0.892
		c2.711,0,4.065,1.425,4.065,4.274v3.804c0,1.037,0.048,1.857,0.144,2.47h-2.061l-0.174-1.192h-0.061
		c-0.707,0.946-1.715,1.423-3.017,1.423c-0.979,0-1.766-0.311-2.358-0.934c-0.541-0.569-0.813-1.27-0.813-2.106
		c0-1.262,0.531-2.223,1.584-2.89c1.062-0.667,2.543-0.993,4.459-0.977v-0.193C181.753,40.621,181.036,39.94,179.606,39.94z
		 M147.335,38.516l0.113,1.597h0.061c0.266-0.499,0.662-0.909,1.193-1.233c0.619-0.383,1.314-0.577,2.078-0.577
		c0.965,0,1.762,0.311,2.402,0.938c0.793,0.764,1.188,1.904,1.188,3.423v6.184h-2.292v-5.931c0-1.83-0.699-2.741-2.084-2.741
		c-0.681,0-1.231,0.251-1.658,0.754c-0.428,0.503-0.642,1.096-0.642,1.774v6.144h-2.288v-7.379c0-0.903-0.035-1.888-0.093-2.952
		L147.335,38.516L147.335,38.516z M117.548,39.832c0.925-1.02,2.179-1.532,3.75-1.532c1.517,0,2.734,0.506,3.658,1.511
		c0.877,0.98,1.313,2.241,1.313,3.786c0,1.586-0.451,2.89-1.358,3.913c-0.949,1.047-2.213,1.57-3.787,1.57
		c-1.513,0-2.722-0.503-3.619-1.508c-0.903-1.007-1.35-2.275-1.35-3.807C116.155,42.165,116.618,40.85,117.548,39.832z
		 M56.062,36.81c2.088-2.443,5.72-4.316,8.625-4.443c0.383,3.451-0.994,6.849-2.998,9.347c-2.092,2.463-5.442,4.34-8.707,4.097
		C52.555,42.493,54.213,38.962,56.062,36.81z M72.805,83.441c-2.402,3.582-4.926,7.088-8.928,7.145
		c-3.891,0.086-5.201-2.279-9.656-2.279c-4.506,0-5.9,2.223-9.631,2.365c-3.811,0.143-6.723-3.816-9.215-7.373
		c-4.986-7.24-8.865-20.421-3.666-29.387c2.523-4.398,7.123-7.23,12.031-7.306c3.818-0.076,7.359,2.565,9.703,2.565
		c2.305,0,6.682-3.163,11.203-2.69c1.884,0.054,7.259,0.742,10.729,5.779c-0.28,0.169-6.403,3.752-6.338,11.118
		c0.078,8.833,7.758,11.747,7.854,11.78C76.848,75.363,75.688,79.369,72.805,83.441z M106.96,90.281h-4.867V68.367h4.867V90.281z
		 M106.648,63.948c-0.574,0.54-1.312,0.812-2.213,0.812c-0.812,0-1.494-0.277-2.049-0.833c-0.558-0.558-0.837-1.257-0.837-2.098
		c0-0.841,0.285-1.532,0.857-2.074c0.571-0.543,1.274-0.813,2.116-0.813c0.843,0,1.55,0.27,2.123,0.813
		c0.569,0.542,0.856,1.233,0.856,2.074C107.503,62.699,107.216,63.407,106.648,63.948z M111.521,47.17
		c-1.431,1.201-3.465,1.804-6.103,1.804c-1.301,0-2.422-0.057-3.356-0.171V34.71c1.217-0.198,2.537-0.296,3.953-0.296
		c2.508,0,4.399,0.545,5.676,1.636c1.429,1.232,2.147,2.998,2.147,5.295C113.839,43.924,113.062,45.864,111.521,47.17z
		 M131.31,87.668c-2.105,1.891-5.71,2.838-10.821,2.838c-2.342,0-4.479-0.121-6.402-0.357V60.293
		c2.041-0.418,4.562-0.628,7.561-0.628c3.715,0,6.525,0.678,8.429,2.028c1.906,1.35,2.859,3.214,2.859,5.583
		c0,1.442-0.439,2.754-1.314,3.938c-0.883,1.188-2.113,2.063-3.687,2.638v0.131c1.712,0.424,3.122,1.23,4.236,2.432
		c1.261,1.411,1.89,3.123,1.89,5.134C134.06,84.006,133.146,86.051,131.31,87.668z M136.153,44.364
		c-0.336-1.123-0.615-2.233-0.828-3.34h-0.043c-0.201,1.135-0.473,2.247-0.828,3.34l-1.426,4.486h-2.123l-3.039-10.333h2.359
		l1.17,4.909c0.283,1.161,0.512,2.27,0.703,3.316h0.037c0.17-0.862,0.455-1.961,0.854-3.295l1.465-4.931h1.869l1.408,4.821
		c0.338,1.182,0.617,2.313,0.824,3.404h0.064c0.152-1.061,0.393-2.195,0.701-3.404l1.256-4.821h2.251v0.001l-3.228,10.333h-2.108
		L136.153,44.364z M156.966,87.438c-2.014,2.227-4.688,3.34-8.025,3.34c-3.215,0-5.777-1.068-7.688-3.199
		c-1.906-2.137-2.859-4.826-2.859-8.074c0-3.396,0.982-6.176,2.951-8.34c1.973-2.165,4.627-3.245,7.961-3.245
		c3.217,0,5.805,1.065,7.754,3.199c1.862,2.071,2.795,4.75,2.795,8.026C159.853,82.51,158.89,85.277,156.966,87.438z
		 M160.347,48.846h-2.295V33.774h2.295V48.846z M164.718,39.832c0.922-1.02,2.182-1.532,3.748-1.532
		c1.516,0,2.738,0.506,3.658,1.511c0.881,0.98,1.314,2.241,1.314,3.786c0,1.586-0.449,2.89-1.361,3.913
		c-0.945,1.047-2.207,1.57-3.781,1.57c-1.514,0-2.721-0.503-3.623-1.508c-0.902-1.007-1.348-2.275-1.348-3.807
		C163.325,42.165,163.788,40.85,164.718,39.832z M182.351,87.438c-2.013,2.227-4.685,3.34-8.021,3.34
		c-3.22,0-5.783-1.068-7.69-3.199c-1.906-2.137-2.863-4.826-2.863-8.074c0-3.396,0.984-6.176,2.951-8.34
		c1.969-2.165,4.627-3.245,7.965-3.245c3.216,0,5.8,1.065,7.752,3.199c1.867,2.071,2.797,4.75,2.797,8.026
		C185.239,82.51,184.274,85.277,182.351,87.438z M186.875,43.811c0-1.671,0.44-3.026,1.334-4.06
		c0.867-0.966,1.931-1.447,3.188-1.447c1.388,0,2.365,0.468,2.914,1.403h0.041v-5.928h2.301v12.283
		c0.002,1.007,0.029,1.936,0.088,2.785h-2.047l-0.104-1.658h-0.066c-0.648,1.261-1.754,1.895-3.312,1.895
		c-1.252,0-2.283-0.49-3.107-1.469C187.282,46.638,186.875,45.369,186.875,43.811z M203.907,90.279l-6.631-10.008l-1.846,2.254
		v7.754h-4.869V58.312h4.869v19.836h0.092c0.6-0.963,1.186-1.803,1.754-2.521l5.639-7.26h5.814l-8.066,9.018l9.193,12.896
		L203.907,90.279L203.907,90.279z M206.334,47.572c-0.901-1.007-1.349-2.275-1.349-3.807c0-1.6,0.464-2.915,1.394-3.933
		c0.922-1.02,2.183-1.532,3.75-1.532c1.515,0,2.733,0.506,3.656,1.511c0.878,0.98,1.315,2.241,1.315,3.786
		c0,1.586-0.449,2.89-1.36,3.913c-0.949,1.047-2.209,1.57-3.781,1.57C208.44,49.08,207.237,48.577,206.334,47.572z M224.466,88.881
		c-1.504,1.234-3.578,1.852-6.223,1.852c-2.492,0-4.615-0.498-6.355-1.487l1.039-3.61c1.682,1.025,3.467,1.535,5.365,1.535
		c2.492,0,3.738-0.914,3.738-2.752c0-0.812-0.27-1.479-0.809-2.005c-0.547-0.521-1.508-1.044-2.891-1.556
		c-3.906-1.44-5.857-3.549-5.857-6.312c0-1.896,0.721-3.472,2.164-4.731c1.441-1.266,3.35-1.895,5.727-1.895
		c2.162,0,4.014,0.436,5.549,1.305l-1.043,3.475c-1.414-0.842-2.902-1.264-4.461-1.264c-1.023,0-1.82,0.24-2.395,0.721
		c-0.568,0.48-0.854,1.1-0.854,1.852c0,0.75,0.301,1.368,0.903,1.846c0.509,0.453,1.502,0.947,2.979,1.488
		c3.784,1.441,5.678,3.65,5.678,6.627C226.72,86.014,225.97,87.648,224.466,88.881z"/>
</g>
</svg>
