<?xml version="1.0" encoding="utf-8"?>
<!-- Generator: Adobe Illustrator 16.0.0, SVG Export Plug-In . SVG Version: 6.00 Build 0)  -->
<!DOCTYPE svg PUBLIC "-//W3C//DTD SVG 1.1//EN" "http://www.w3.org/Graphics/SVG/1.1/DTD/svg11.dtd">
<svg version="1.1" id="Layer_1" xmlns="http://www.w3.org/2000/svg" xmlns:xlink="http://www.w3.org/1999/xlink" x="0px" y="0px"
	 width="256px" height="128px" viewBox="0 0 256 128" enable-background="new 0 0 256 128" xml:space="preserve">
<g>
	<path fill="#FF9900" d="M103.029,78.115c-9.649,7.121-23.638,10.908-35.684,10.908c-16.883,0-32.085-6.24-43.591-16.629
		c-0.903-0.815-0.097-1.931,0.988-1.299c12.413,7.223,27.762,11.572,43.616,11.572c10.694,0,22.451-2.22,33.268-6.809
		C103.258,75.17,104.626,76.938,103.029,78.115z M107.044,73.531c-1.234-1.58-8.159-0.748-11.269-0.377
		c-0.942,0.113-1.088-0.709-0.239-1.305c5.523-3.882,14.573-2.761,15.625-1.463c1.06,1.312-0.277,10.385-5.454,14.715
		c-0.796,0.666-1.553,0.312-1.2-0.568C105.672,81.625,108.279,75.111,107.044,73.531z"/>
	<path d="M91.678,63.154c-0.939-1.299-1.94-2.355-1.94-4.764v-8.009c0-3.394,0.24-6.51-2.26-8.846
		c-1.971-1.894-5.241-2.56-7.741-2.56c-4.892,0-10.35,1.825-11.495,7.869c-0.121,0.644,0.346,0.98,0.767,1.075l4.982,0.539
		c0.466-0.024,0.805-0.481,0.893-0.944c0.428-2.082,2.172-3.088,4.132-3.088c1.058,0,2.26,0.389,2.885,1.336
		c0.721,1.057,0.625,2.504,0.625,3.728v0.667c-2.981,0.334-6.876,0.557-9.665,1.781c-3.221,1.391-5.481,4.228-5.481,8.4
		c0,5.342,3.366,8.012,7.693,8.012c3.655,0,5.653-0.861,8.475-3.736c0.933,1.352,1.239,2.007,2.946,3.426
		c0.383,0.206,0.874,0.186,1.214-0.119l0.011,0.012c1.027-0.914,2.892-2.535,3.942-3.414C92.08,64.177,92.006,63.621,91.678,63.154z
		 M82.527,55.389L82.527,55.389c-0.001,2.004,0.047,3.672-0.962,5.452c-0.818,1.447-2.116,2.337-3.559,2.337
		c-1.971,0-3.125-1.502-3.125-3.728c0-4.378,3.927-5.175,7.646-5.175V55.389z M22.359,58.391v-8.009c0-3.394,0.24-6.51-2.26-8.846
		c-1.971-1.894-5.241-2.56-7.742-2.56c-4.891,0-10.349,1.825-11.494,7.869c-0.122,0.644,0.347,0.98,0.767,1.075l4.982,0.539
		c0.466-0.024,0.804-0.481,0.893-0.944c0.427-2.082,2.171-3.088,4.131-3.088c1.057,0,2.26,0.389,2.885,1.336
		c0.721,1.057,0.625,2.504,0.625,3.728v0.667c-2.981,0.334-6.876,0.557-9.665,1.781C2.26,53.33,0,56.167,0,60.34
		c0,5.342,3.365,8.012,7.693,8.012c3.654,0,5.653-0.861,8.474-3.736c0.933,1.352,1.238,2.007,2.946,3.426
		c0.383,0.206,0.874,0.186,1.215-0.119l0.012,0.012c1.026-0.914,2.892-2.535,3.942-3.414c0.419-0.343,0.345-0.898,0.017-1.365
		C23.359,61.855,22.359,60.799,22.359,58.391z M14.183,60.841c-0.817,1.447-2.115,2.337-3.558,2.337
		c-1.971,0-3.125-1.502-3.125-3.728c0-4.378,3.927-5.175,7.645-5.175v1.113C15.145,57.393,15.193,59.061,14.183,60.841z
		 M95.995,44.443v-3.771c0.002-0.573,0.435-0.957,0.956-0.956l16.895-0.001c0.54,0,0.974,0.394,0.975,0.952L114.82,43.9
		c-0.004,0.543-0.46,1.25-1.272,2.373l-8.751,12.496c3.249-0.076,6.685,0.41,9.637,2.069c0.666,0.374,0.844,0.929,0.896,1.472v4.022
		c0,0.554-0.606,1.194-1.244,0.862c-5.201-2.725-12.102-3.023-17.852,0.033c-0.588,0.312-1.203-0.319-1.203-0.875V62.53
		c0-0.611,0.011-1.658,0.628-2.591l10.14-14.547h-8.828C96.431,45.393,95.999,45.008,95.995,44.443z M34.365,67.986h-5.14
		c-0.489-0.031-0.88-0.398-0.919-0.867l0.003-26.381c0-0.528,0.444-0.95,0.992-0.95l4.787-0.001
		c0.501,0.025,0.903,0.404,0.935,0.886v3.444h0.096c1.248-3.331,3.599-4.885,6.765-4.885c3.215,0,5.23,1.555,6.67,4.885
		c1.247-3.331,4.078-4.885,7.101-4.885c2.159,0,4.51,0.889,5.949,2.887c1.631,2.221,1.296,5.439,1.296,8.271l-0.004,16.647
		c0,0.526-0.444,0.95-0.991,0.95h-5.134c-0.516-0.032-0.923-0.442-0.923-0.947l-0.001-13.984c0-1.111,0.096-3.887-0.144-4.941
		c-0.384-1.776-1.535-2.276-3.022-2.276c-1.247,0-2.543,0.833-3.071,2.165c-0.528,1.332-0.479,3.553-0.479,5.053v13.981
		c0,0.526-0.444,0.95-0.991,0.95h-5.134c-0.516-0.032-0.923-0.442-0.923-0.947l-0.005-13.984c0-2.943,0.48-7.272-3.166-7.272
		c-3.695,0-3.551,4.219-3.551,7.272l-0.002,13.981C35.357,67.564,34.913,67.986,34.365,67.986z M129.364,39.23
		c7.629,0,11.755,6.552,11.755,14.879c0,8.049-4.558,14.434-11.755,14.434c-7.485,0-11.563-6.551-11.563-14.711
		C117.801,45.616,121.927,39.23,129.364,39.23z M129.412,44.617c-3.791,0-4.03,5.162-4.03,8.382s-0.048,10.104,3.982,10.104
		c3.982,0,4.174-5.553,4.174-8.938c0-2.222-0.096-4.886-0.768-6.995C132.194,45.338,131.043,44.617,129.412,44.617z M151.013,67.986
		h-5.121c-0.515-0.031-0.922-0.441-0.922-0.946l-0.009-26.392c0.044-0.481,0.47-0.86,0.987-0.86l4.769-0.001
		c0.448,0.023,0.818,0.33,0.913,0.738v4.035h0.098c1.438-3.607,3.453-5.33,7.004-5.33c2.303,0,4.559,0.834,5.998,3.109
		c1.344,2.11,1.344,5.663,1.344,8.217v16.6c-0.059,0.468-0.477,0.83-0.984,0.83h-5.152c-0.477-0.029-0.859-0.379-0.916-0.83V52.832
		c0-2.887,0.336-7.105-3.215-7.105c-1.248,0-2.398,0.832-2.975,2.109c-0.721,1.609-0.816,3.221-0.816,4.996v14.205
		C152.004,67.564,151.562,67.986,151.013,67.986z M171.824,63.491c1.397,0,2.53,1.076,2.53,2.403c0,1.328-1.133,2.404-2.53,2.404
		s-2.53-1.076-2.53-2.404C169.294,64.567,170.427,63.491,171.824,63.491z M223.752,67.994c-0.532-0.016-0.959-0.432-0.959-0.949
		V40.662c0.036-0.465,0.429-0.836,0.92-0.868h1.888c0.52,0,0.944,0.379,0.986,0.869v3.847c1.342-3.048,3.842-5.437,7.001-5.437
		l0.198,0.003l0.189-0.003c3.353,0,5.805,2.473,6.715,6.065c1.42-3.547,4.098-6.065,7.625-6.065l0.185,0.003l0.206-0.003
		c2.494,0,4.895,1.61,6.143,4.053c1.198,2.332,1.15,5.44,1.15,8.049l-0.001,15.873c0.001,0.507-0.407,0.914-0.923,0.947h-2.258
		c-0.486-0.015-0.885-0.363-0.95-0.817V51.176c0-1.888,0.096-3.886-0.673-5.607c-0.783-1.762-2.277-2.855-3.885-2.937
		c-1.795,0.089-3.44,1.392-4.506,3.159c-1.393,2.275-1.343,4.33-1.343,6.995v14.399c-0.063,0.438-0.444,0.778-0.915,0.811h-2.247
		c-0.532-0.016-0.96-0.432-0.96-0.949l-0.01-16.925c0-1.556-0.096-3.386-0.814-4.774c-0.83-1.597-2.318-2.632-3.879-2.715
		c-1.619,0.092-3.256,1.328-4.227,2.771c-1.247,1.832-1.487,4.107-1.487,6.438l-0.001,15.207c0,0.507-0.406,0.914-0.923,0.947
		h-2.246V67.994z M208.263,68.55c-7.293,0-10.556-7.438-10.556-14.877c0-7.827,3.839-14.6,11.179-14.6l0.189,0.002l0.199-0.002
		c7.148,0,10.699,7.217,10.699,14.655c0,7.883-3.935,14.821-11.324,14.821l-0.188-0.002L208.263,68.55z M208.8,64.938
		c2.399-0.078,4.292-1.563,5.412-4.047c1.008-2.222,1.199-4.774,1.199-7.218c0-2.665-0.288-5.44-1.535-7.716
		c-1.117-1.991-3.044-3.252-5.084-3.327c-2.271,0.083-4.297,1.619-5.322,3.993c-0.912,2.054-1.199,4.773-1.199,7.05
		c0,2.554,0.336,5.496,1.392,7.716C204.687,63.493,206.664,64.863,208.8,64.938z M185.474,64.827
		c3.272-0.103,4.991-2.726,5.705-6.128c0.139-0.424,0.465-0.75,0.941-0.75l2.166-0.01c0.51,0.027,0.979,0.418,0.939,0.895
		c-1,5.786-4.492,9.716-9.47,9.716l-0.2-0.002l-0.188,0.002c-7.244,0-10.363-7.272-10.363-14.655
		c0-7.328,3.167-14.821,10.411-14.821l0.19,0.002l0.197-0.002c5.027,0,8.616,3.875,9.396,9.663c0,0.435-0.403,0.812-0.875,0.865
		l-2.271-0.025c-0.472-0.067-0.783-0.477-0.854-0.932c-0.547-3.232-2.402-5.802-5.496-5.903c-4.926,0.157-6.327,6.22-6.327,10.877
		C179.377,58.111,180.546,64.664,185.474,64.827z"/>
</g>
</svg>
