<?xml version="1.0" encoding="utf-8"?>
<!-- Generator: Adobe Illustrator 16.0.0, SVG Export Plug-In . SVG Version: 6.00 Build 0)  -->
<!DOCTYPE svg PUBLIC "-//W3C//DTD SVG 1.1//EN" "http://www.w3.org/Graphics/SVG/1.1/DTD/svg11.dtd">
<svg version="1.1" id="Layer_1" xmlns="http://www.w3.org/2000/svg" xmlns:xlink="http://www.w3.org/1999/xlink" x="0px" y="0px"
	 width="256px" height="128px" viewBox="0 0 256 128" enable-background="new 0 0 256 128" xml:space="preserve">
<g>
	<path fill="#42695B" d="M6.277,38.204V48.64h1.606c1.7,0,2.03-1.511,2.03-4.625c0-4.25-0.426-5.81-2.502-5.81L6.277,38.204
		 M6.277,53.171v12.794h1.654c1.936,0,2.455-1.178,2.455-6.704c0-4.012-0.473-6.091-2.551-6.091L6.277,53.171L6.277,53.171z
		 M17.137,59.97c0,7.508-3.351,10.245-9.017,10.245H0V33.957h8.167c6.279,0,7.932,3.776,7.932,9.96c0,4.438-1.604,6.846-4.484,6.988
		C14.731,50.905,17.137,54.067,17.137,59.97z M47.626,38.44v10.623h1.981c1.7,0,2.22-1.086,2.22-4.485
		c0-5.288-0.991-6.138-2.974-6.138H47.626 M53.103,51.614c4.056,1.224,4.531,6.011,4.531,10.404c0,3.408,0.115,6.426,0.567,8.196
		h-6.609c-0.189-1.323-0.472-2.112-0.472-5.377c0-1.416,0-2.86,0-4.655c0-2.886-0.979-5.049-3.046-5.593h-0.448v15.626H41.11V33.957
		h9.678c4.533,0,7.603,2.644,7.603,9.205C58.391,48.875,55.912,51.329,53.103,51.614z M69.487,50.433
		c0.281,4.862,0.332,6.279,0.332,10.528c0,2.785,0,9.254,0,9.254h-5.996V33.957h5.945c0,0,2.834,10.622,3.448,12.888
		c0.615,2.313,1.086,4.202,1.37,5.76c-0.189-3.541-0.237-7.932-0.237-11.566c0-2.787,0-7.081,0-7.081h5.808v36.258h-5.334
		c0,0-3.258-11.188-3.92-13.407C70.384,55.106,69.959,53.125,69.487,50.433 M92.337,64.788h7.884v5.427H85.962V33.957h13.267v5.428
		h-6.892v9.82h6.091v5.053h-6.091V64.788 M109.748,61.853c0,4.061,0.851,4.68,2.314,4.68c1.135,0,2.012-0.664,2.012-4.68
		c0-3.596-2.402-6.17-5.118-9.438c-2.455-2.954-5.21-7.001-5.21-10.43c0-5.41,2.462-8.596,7.608-8.596
		c5.052,0,7.696,2.785,7.696,8.12c0,1.274-0.235,2.175-0.472,2.931h-5.389c0.095-0.566,0.146-1.465,0.146-2.551
		c0-3.447-0.377-4.486-1.889-4.486c-1.416,0-1.65,1.369-1.65,3.966c0,3.271,2.621,5.872,4.715,8.56
		c3.079,3.957,5.563,7.106,5.563,10.795c0,5.9-2.488,10.246-8.06,10.246c-4.957,0-8.205-2.705-8.205-8.982
		c0-1.463,0.051-2.662,0.428-3.938l5.803-0.033C109.854,59.435,109.748,60.296,109.748,61.853 M164.688,50.433
		c0.285,4.862,0.33,6.279,0.33,10.528c0,2.785,0,9.254,0,9.254h-5.994V33.957h5.949c0,0,2.83,10.622,3.444,12.888
		c0.615,2.313,1.085,4.202,1.37,5.76c-0.189-3.541-0.237-7.932-0.237-11.566c0-2.787,0-7.081,0-7.081h5.808v36.258h-5.336
		c0,0-3.256-11.188-3.918-13.407C165.586,55.106,165.16,53.125,164.688,50.433 M190.559,52.132c0-5.711,0-9.206-0.235-11.803
		c-0.189-2.643-0.614-3.163-1.558-3.163c-1.039,0-1.464,0.521-1.701,3.163c-0.188,2.55-0.142,6.138-0.142,11.803
		c0,6.61-0.047,9.16,0.142,11.709c0.237,2.784,0.617,3.069,1.701,3.069c0.991,0,1.321-0.238,1.558-3.069
		C190.512,61.245,190.559,58.743,190.559,52.132 M197.262,52.132c0,15.626-2.548,18.838-8.496,18.838
		c-5.523,0-8.498-2.408-8.498-18.838c0-15.91,2.312-18.744,8.498-18.744C194.949,33.39,197.262,36.224,197.262,52.132z
		 M208.441,38.204V48.64h1.604c1.7,0,2.03-1.511,2.03-4.625c0-4.25-0.424-5.81-2.504-5.81L208.441,38.204 M208.441,53.171v12.794
		h1.651c1.938,0,2.456-1.178,2.456-6.704c0-4.012-0.473-6.091-2.55-6.091L208.441,53.171L208.441,53.171z M219.3,59.97
		c0,7.508-3.352,10.245-9.018,10.245h-8.119V33.957h8.167c6.279,0,7.932,3.776,7.932,9.96c0,4.438-1.604,6.846-4.484,6.988
		C216.893,50.905,219.3,54.067,219.3,59.97z M230.529,64.788h7.697v5.427H223.92V33.957h6.609V64.788 M248.113,64.788H256v5.427
		h-14.259V33.957h13.268v5.428h-6.896v9.82h6.092v5.053h-6.092V64.788 M26.256,60.38h3.304c0,0-0.501-4.205-0.783-6.941
		c-0.188-1.699-0.854-6.994-1.042-10.484c-0.095,3.586-0.666,8.832-0.806,10.484C26.691,56.175,26.256,60.38,26.256,60.38
		 M19.57,70.245l5.284-36.52h6.229l6.228,36.52h-6.748l-0.659-5.85h-4.06l-0.66,5.85H19.57z"/>
	<path fill="#C75C1A" d="M34.006,88.103h1.264c1.69,0,2.481-1.08,2.481-2.41c0-1.309-0.791-2.438-2.481-2.438h-1.264V88.103
		 M38.878,91.937c0-1.533-0.926-2.819-2.864-2.819h-2.008v3.137c0,2.142,0.294,2.502,2.166,2.502h-0.158
		C37.952,94.755,38.878,93.493,38.878,91.937z M41.899,91.981c0,2.098-1.76,3.787-4.555,3.787h-8.298v-0.651
		c1.87,0,2.143-0.384,2.143-2.64v-6.945c0-2.254-0.272-2.639-2.143-2.639v-0.651h7.667c2.479,0,4.058,1.51,4.058,3.38
		c0,1.174-0.608,2.189-1.667,2.798C40.862,88.96,41.899,90.358,41.899,91.981z M53.995,82.938c-3.202,0-4.51,3.34-4.51,6.065
		c0,2.729,1.308,6.065,4.51,6.065c3.178,0,4.486-3.338,4.486-6.065C58.481,86.278,57.173,82.938,53.995,82.938 M53.995,96.153
		c-4.148,0-7.532-3.225-7.532-7.148c0-3.923,3.384-7.146,7.532-7.146c4.126,0,7.511,3.224,7.511,7.146
		C61.506,92.929,58.121,96.153,53.995,96.153z M74.171,82.938c-3.2,0-4.508,3.34-4.508,6.065c0,2.729,1.308,6.065,4.508,6.065
		c3.18,0,4.487-3.338,4.487-6.065C78.658,86.278,77.351,82.938,74.171,82.938 M74.171,96.153c-4.148,0-7.53-3.225-7.53-7.148
		c0-3.923,3.382-7.146,7.53-7.146c4.128,0,7.51,3.224,7.51,7.146C81.681,92.929,78.299,96.153,74.171,96.153z M100.57,93.786
		c0.769,0.789,2.301,1.331,2.91,1.331v0.651h-7.486v-0.651c1.172,0,1.714-0.407,0.834-1.331l-4.441-4.826l-0.968,0.788v2.729
		c0,2.256,0.291,2.64,2.162,2.64v0.651h-7.125v-0.651c1.873,0,2.142-0.384,2.142-2.64v-6.945c0-2.254-0.269-2.639-2.142-2.639
		v-0.651h7.125v0.651c-1.871,0-2.162,0.385-2.162,2.639v3.021l4.733-3.81c0.563-0.474,1.96-1.851,0.092-1.851v-0.652h5.433v0.652
		c-1.894,0-2.685,0.678-4.148,1.851l-3.201,2.569L100.57,93.786 M109.191,96.153h-0.654v-4.961h0.654
		c0.45,2.412,2.322,3.945,4.171,3.945c1.308,0,2.255-0.744,2.255-2.231c0-0.812-0.609-1.735-1.668-2.276l-2.165-1.129
		c-1.894-0.969-3.044-2.029-3.044-4.262c0-1.85,1.736-3.383,3.923-3.383c1.331,0,2.075,0.428,2.751,0.926
		c0.271-0.225,0.542-0.562,0.654-1.037h0.631v4.961h-0.653c-0.157-1.805-0.879-3.855-3.247-3.855c-0.925,0-1.827,0.676-1.827,1.806
		c0,0.676,0.587,1.688,1.805,2.299l2.164,1.104c1.603,0.834,2.91,2.211,2.91,3.991c0,2.457-2.165,4.104-4.488,4.104
		c-1.713,0-2.795-0.902-3.517-1.061C109.574,95.319,109.303,95.657,109.191,96.153 M124.034,95.117c1.872,0,2.142-0.384,2.142-2.64
		v-6.945c0-2.254-0.27-2.639-2.142-2.639v-0.651h11.61l0.181,3.179h-0.652l-0.112-0.449c-0.316-1.195-0.541-1.717-2.617-1.717
		h-3.449v4.848h1.24c2.254,0,2.615-0.291,2.615-2.164h0.654v5.344h-0.654c0-1.895-0.361-2.165-2.615-2.165h-1.24v3.002
		c0,2.254,0.294,2.637,2.165,2.637h2.028c2.074,0,2.321-0.519,2.617-1.713l0.111-0.451h0.654l-0.18,3.179h-12.356V95.117
		 M142.986,82.896v-0.652h7.125v0.652c-1.871,0-2.164,0.383-2.164,2.638v6.586c0,2.254,0.293,2.637,2.164,2.637h2.593
		c2.075,0,2.321-0.519,2.616-1.713l0.113-0.451h0.652l-0.182,3.179h-12.92v-0.651c1.873,0,2.144-0.384,2.144-2.64v-6.945
		C145.129,83.278,144.857,82.896,142.986,82.896 M161.775,82.896v-0.652h7.123v0.652c-1.871,0-2.162,0.383-2.162,2.638v6.586
		c0,2.254,0.291,2.637,2.162,2.637h2.595c2.073,0,2.321-0.519,2.616-1.713l0.111-0.451h0.652l-0.18,3.179h-12.92v-0.651
		c1.871,0,2.142-0.384,2.142-2.64v-6.945C163.916,83.278,163.646,82.896,161.775,82.896 M180.562,95.117
		c1.871,0,2.143-0.384,2.143-2.64v-6.945c0-2.254-0.271-2.639-2.143-2.639v-0.651h11.611l0.182,3.179h-0.654l-0.113-0.449
		c-0.316-1.195-0.54-1.717-2.615-1.717h-3.449v4.848h1.24c2.256,0,2.614-0.291,2.614-2.164h0.655v5.344h-0.655
		c0-1.895-0.358-2.165-2.614-2.165h-1.24v3.002c0,2.254,0.293,2.637,2.164,2.637h2.03c2.075,0,2.323-0.519,2.614-1.713l0.113-0.451
		h0.652l-0.179,3.179h-12.356V95.117 M208.604,86.054c0-1.535-0.926-2.799-2.887-2.799h-1.24v5.57h1.24
		C207.678,88.825,208.604,87.586,208.604,86.054 M209.82,92.228c1.984,2.189,2.842,2.709,4.215,2.891v0.65h-4.891l-4.016-5.93
		h-0.654v2.639c0,2.256,0.295,2.641,2.164,2.641v0.65h-7.123v-0.65c1.873,0,2.142-0.385,2.142-2.641v-6.944
		c0-2.255-0.269-2.638-2.142-2.638v-0.652h7.555c2.795,0,4.554,1.714,4.554,3.811c0,1.961-1.533,3.562-3.991,3.786L209.82,92.228z
		 M220.221,96.153h-0.656v-4.961h0.656c0.448,2.412,2.32,3.945,4.17,3.945c1.309,0,2.254-0.744,2.254-2.231
		c0-0.812-0.605-1.735-1.668-2.276l-2.164-1.129c-1.896-0.969-3.045-2.029-3.045-4.262c0-1.85,1.737-3.383,3.924-3.383
		c1.332,0,2.074,0.428,2.75,0.926c0.271-0.225,0.543-0.562,0.654-1.037h0.631v4.961h-0.651c-0.158-1.805-0.882-3.855-3.25-3.855
		c-0.923,0-1.824,0.676-1.824,1.806c0,0.676,0.587,1.688,1.804,2.299l2.166,1.104c1.6,0.834,2.908,2.211,2.908,3.991
		c0,2.457-2.166,4.104-4.488,4.104c-1.714,0-2.795-0.902-3.516-1.061C220.602,95.319,220.33,95.657,220.221,96.153 M151.325,51.278
		c-2.509,0-4.392,1.691-5.519,4.014c-1.13,2.57-2.384,5.516-3.197,7.146c-2.801-4.769-4.905-8.572-6.219-11.979
		c2.176-1.216,5.948-3.066,8.104-5.029c2.152-1.965,3.191-3.806,3.568-5.938c0.689-4.075-1.631-7.648-6.771-7.648
		c-4.326,0-9.466,3.385-10.468,9.027c-0.503,2.884,0.145,6.589,1.192,9.638c-3.89,2.634-7.273,5.535-8.153,10.11
		c-1.256,7.523,3.448,10.97,8.776,10.97c3.637,0,6.412-1.621,8.607-4.128c1.67,1.918,3.806,4.128,6.438,4.128
		c2.133,0,4.39-1.378,6.145-3.634l-0.754-1.066c-1.629,1.567-2.881,2.192-3.822,2.192c-1.691,0-3.447-1.504-4.952-3.886
		c-0.188-0.374-0.438-0.752-0.627-1.129c1.002-1.942,1.757-4.074,2.632-5.955c1.631-3.637,2.635-4.827,4.139-4.827
		c2.509,0,0.502,4.2,3.197,4.2c1.256,0,1.881-1.065,2.068-2.068C155.964,53.911,154.898,51.278,151.325,51.278z M135.088,39.867
		c0.438-2.569,2.633-5.327,6.018-5.327c2.636,0,4.388,2.005,3.822,5.077c-0.186,1.19-0.516,2.243-1.701,3.729
		c-1.186,1.482-5.451,4.125-7.496,5.207C134.811,45.562,134.568,42.808,135.088,39.867z M134.209,69.146
		c-5.016,0-6.896-4.201-6.332-7.523c0.689-3.948,2.518-6.426,4.96-8.621c1.759,4.252,4.034,8.753,7.28,13.279
		C138.423,68.286,136.717,69.146,134.209,69.146z M143.953,68.051c0,0-4.723-4.919-8.667-13.628
		c-4.81-10.622-1.366-15.861-1.366-15.861s-1.919,5.674,2.016,15.153C139.167,61.491,143.953,68.051,143.953,68.051z"/>
</g>
</svg>
