<?xml version="1.0" encoding="utf-8"?>
<!-- Generator: Adobe Illustrator 16.0.0, SVG Export Plug-In . SVG Version: 6.00 Build 0)  -->
<!DOCTYPE svg PUBLIC "-//W3C//DTD SVG 1.1//EN" "http://www.w3.org/Graphics/SVG/1.1/DTD/svg11.dtd">
<svg version="1.1" id="Layer_1" xmlns="http://www.w3.org/2000/svg" xmlns:xlink="http://www.w3.org/1999/xlink" x="0px" y="0px"
	 width="256px" height="128px" viewBox="0 0 256 128" enable-background="new 0 0 256 128" xml:space="preserve">
<g>
	<path fill="#FF9900" d="M88.287,81.565c-8.27,6.104-20.256,9.348-30.579,9.348c-14.467,0-27.494-5.348-37.353-14.249
		c-0.774-0.699-0.084-1.653,0.847-1.112c10.637,6.189,23.79,9.917,37.375,9.917c9.164,0,19.237-1.901,28.508-5.834
		C88.482,79.042,89.654,80.556,88.287,81.565z M91.729,77.64c-1.059-1.354-6.99-0.643-9.656-0.322
		c-0.809,0.098-0.934-0.608-0.205-1.121c4.732-3.322,12.488-2.362,13.39-1.25c0.908,1.121-0.237,8.896-4.674,12.607
		c-0.683,0.57-1.331,0.266-1.028-0.486C90.552,84.573,92.786,78.993,91.729,77.64z M162.721,72.897l-10.263-12.441h-0.05v12.441
		h-3.691v-35.81h3.691v20.331h0.05l8.797-8.445h4.802l-10.515,9.762l11.88,14.162H162.721z M171.718,43.967
		c-1.415,0-2.577-1.163-2.577-2.579s1.162-2.578,2.577-2.578c1.416,0,2.578,1.162,2.578,2.578S173.134,43.967,171.718,43.967z
		 M169.896,72.897V48.974h3.689v23.924H169.896z M194.328,72.897v-14.72c0-2.983-0.506-6.321-4.146-6.321
		c-2.933,0-5.611,2.072-7.431,3.643v17.396h-3.69V48.974h3.032l0.507,2.883c2.629-2.022,5.207-3.489,8.543-3.489
		c3.438,0,6.875,2.479,6.875,8.446v16.082h-3.689V72.897z M214.296,73.401c-6.674,0-12.284-3.895-12.284-12.139
		c0-7.434,5.357-12.896,12.334-12.896c1.719,0,2.934,0.151,3.895,0.403V37.088h3.689v34.595
		C220.463,72.543,217.684,73.401,214.296,73.401z M218.238,52.211c-0.961-0.354-1.819-0.606-3.69-0.606
		c-4.7,0-8.796,3.692-8.796,9.407c0,5.411,2.982,9.255,9.201,9.255c1.212,0,2.527-0.252,3.285-0.604V52.211z M231.533,73.401
		c-2.934,0-4.196-1.871-4.196-4.399V37.089h3.69v30.244c0,2.275,0.557,2.73,1.972,2.73c0.253,0,0.657,0,1.265-0.15l0.454,2.681
		C233.605,73.149,232.746,73.401,231.533,73.401z M240.684,61.567c0,4.553,2.629,8.647,7.784,8.647c2.175,0,4.397-0.858,5.813-1.771
		l1.162,2.631c-1.771,1.214-4.803,2.326-7.432,2.326c-7.635,0-11.273-6.119-11.273-12.947c0-6.93,3.943-12.088,9.707-12.088
		c6.168,0,9.555,4.906,9.555,12.341c0,0.253,0,0.556,0,0.86H240.684L240.684,61.567z M246.496,51.503
		c-3.538,0-5.764,3.137-5.764,6.93h11.272C252.007,55.094,250.137,51.503,246.496,51.503z"/>
	<path d="M82.259,52.712v-3.23c0.003-0.49,0.373-0.817,0.819-0.816l14.479-0.001c0.463,0,0.834,0.336,0.834,0.813v2.771
		c-0.004,0.465-0.396,1.07-1.09,2.033l-7.5,10.708c2.784-0.065,5.729,0.352,8.258,1.771c0.57,0.32,0.725,0.796,0.77,1.261v3.446
		c0,0.476-0.521,1.024-1.066,0.738c-4.455-2.334-10.369-2.589-15.297,0.028c-0.504,0.269-1.029-0.272-1.029-0.75V68.21
		c0-0.523,0.01-1.421,0.539-2.22l8.688-12.466h-7.564C82.633,53.524,82.262,53.196,82.259,52.712z M29.448,72.888h-4.404
		c-0.419-0.027-0.754-0.342-0.788-0.744l0.004-22.604c0-0.452,0.381-0.813,0.85-0.813h4.104c0.43,0.021,0.771,0.346,0.801,0.758
		v2.951h0.082c1.068-2.854,3.084-4.187,5.797-4.187c2.754,0,4.481,1.333,5.715,4.187c1.069-2.854,3.496-4.187,6.086-4.187
		c1.851,0,3.865,0.762,5.098,2.474c1.398,1.903,1.111,4.662,1.111,7.088l-0.004,14.268c0,0.449-0.381,0.812-0.852,0.812h-4.398
		c-0.441-0.029-0.789-0.38-0.789-0.812l-0.002-11.984c0-0.95,0.082-3.329-0.123-4.231c-0.33-1.523-1.315-1.951-2.59-1.951
		c-1.069,0-2.181,0.713-2.633,1.854c-0.451,1.144-0.41,3.045-0.41,4.329v11.983c0,0.449-0.381,0.812-0.851,0.812h-4.399
		c-0.441-0.029-0.791-0.38-0.791-0.812l-0.004-11.984c0-2.521,0.411-6.229-2.713-6.229c-3.167,0-3.043,3.613-3.043,6.229
		L30.3,72.076C30.299,72.524,29.918,72.888,29.448,72.888z M110.854,48.246c6.537,0,10.072,5.614,10.072,12.749
		c0,6.896-3.904,12.369-10.072,12.369c-6.414,0-9.908-5.615-9.908-12.606C100.945,53.717,104.48,48.246,110.854,48.246z
		 M110.895,52.86c-3.248,0-3.453,4.424-3.453,7.184c0,2.759-0.041,8.657,3.414,8.657c3.412,0,3.576-4.757,3.576-7.657
		c0-1.902-0.082-4.188-0.658-5.995C113.279,53.479,112.292,52.86,110.895,52.86z M129.404,72.888h-4.389
		c-0.44-0.027-0.789-0.379-0.789-0.812l-0.009-22.613c0.037-0.414,0.402-0.737,0.847-0.737l4.086-0.002
		c0.385,0.021,0.701,0.282,0.783,0.633v3.459h0.082c1.232-3.094,2.959-4.567,6.002-4.567c1.974,0,3.905,0.713,5.141,2.665
		c1.15,1.807,1.15,4.852,1.15,7.039v14.226c-0.051,0.4-0.408,0.712-0.846,0.712h-4.415c-0.407-0.024-0.735-0.326-0.782-0.712V59.905
		c0-2.475,0.287-6.09-2.754-6.09c-1.07,0-2.059,0.713-2.552,1.807c-0.617,1.381-0.698,2.76-0.698,4.283v12.172
		C130.255,72.524,129.874,72.888,129.404,72.888z M78.561,68.746c-0.806-1.112-1.662-2.019-1.662-4.082v-6.861
		c0-2.907,0.207-5.577-1.938-7.581c-1.689-1.621-4.49-2.191-6.634-2.191c-4.192,0-8.869,1.563-9.851,6.742
		c-0.104,0.552,0.297,0.84,0.657,0.922l4.271,0.463c0.398-0.021,0.688-0.414,0.765-0.812c0.367-1.784,1.86-2.645,3.54-2.645
		c0.908,0,1.938,0.334,2.473,1.145c0.618,0.906,0.536,2.144,0.536,3.193v0.571c-2.555,0.287-5.893,0.478-8.282,1.526
		c-2.76,1.191-4.696,3.623-4.696,7.198c0,4.576,2.885,6.865,6.592,6.865c3.133,0,4.845-0.739,7.262-3.202
		c0.8,1.159,1.062,1.72,2.525,2.937c0.327,0.176,0.749,0.158,1.04-0.104l0.01,0.011c0.88-0.782,2.479-2.171,3.378-2.926
		C78.904,69.623,78.842,69.147,78.561,68.746z M69.895,66.765c-0.701,1.238-1.813,2.002-3.049,2.002
		c-1.689,0-2.679-1.287-2.679-3.192c0-3.753,3.365-4.435,6.552-4.435v0.953C70.719,63.81,70.76,65.237,69.895,66.765z
		 M19.159,64.664v-6.861c0-2.907,0.205-5.577-1.937-7.581c-1.69-1.621-4.492-2.191-6.635-2.191c-4.193,0-8.87,1.563-9.85,6.742
		c-0.105,0.552,0.297,0.84,0.656,0.922l4.27,0.463c0.4-0.021,0.689-0.414,0.766-0.812c0.366-1.784,1.86-2.645,3.541-2.645
		c0.906,0,1.937,0.334,2.473,1.145c0.617,0.906,0.535,2.144,0.535,3.193v0.571c-2.554,0.287-5.893,0.478-8.281,1.526
		C1.936,60.328,0,62.76,0,66.335C0,70.911,2.884,73.2,6.593,73.2c3.132,0,4.843-0.739,7.263-3.202
		c0.797,1.159,1.06,1.72,2.523,2.937c0.328,0.176,0.749,0.158,1.04-0.104l0.011,0.011c0.879-0.782,2.478-2.171,3.377-2.926
		c0.359-0.293,0.295-0.769,0.014-1.17C20.016,67.634,19.159,66.728,19.159,64.664z M12.154,66.765
		c-0.698,1.238-1.812,2.002-3.049,2.002c-1.688,0-2.679-1.287-2.679-3.192c0-3.753,3.366-4.435,6.552-4.435v0.953
		C12.979,63.81,13.02,65.237,12.154,66.765z"/>
</g>
</svg>
