<?xml version="1.0" encoding="utf-8"?>
<!-- Generator: Adobe Illustrator 16.0.0, SVG Export Plug-In . SVG Version: 6.00 Build 0)  -->
<!DOCTYPE svg PUBLIC "-//W3C//DTD SVG 1.1//EN" "http://www.w3.org/Graphics/SVG/1.1/DTD/svg11.dtd">
<svg version="1.1" id="Layer_1" xmlns="http://www.w3.org/2000/svg" xmlns:xlink="http://www.w3.org/1999/xlink" x="0px" y="0px"
	 width="256px" height="128px" viewBox="0 0 256 128" enable-background="new 0 0 256 128" xml:space="preserve">
<path d="M123.884,72.916h4.873v22.521c0,5.655-4.038,8.867-9.875,8.867c-5.786,0-9.891-3.212-9.891-8.867V72.916h4.926v22.429
	c0,3.121,1.56,4.824,4.965,4.824c3.44,0,5.002-1.703,5.002-4.824V72.916z M149.713,93.42l-2.985-5.609l-8.55-14.895h-3.771v30.611
	h4.601v-20.22l3.126,5.607l8.775,14.612h3.396V72.916h-4.591V93.42z M25.876,62.926l-2.989-5.604l-8.547-14.9h-3.767v30.617h4.598
	V52.817l3.125,5.609l8.78,14.612h3.395V42.422h-4.595V62.926z M0,73.039h4.874V42.431H0V73.039z M79.681,93.922v2.072
	c0,4.545-2.21,7.53-8.229,7.53H60.879V72.92h0.019V42.427h4.865V72.92h5.42c0.105,0,0.182,0.023,0.288,0.023V42.427h16.538v4.372
	H76.34v8.04h8.407v4.131H76.34v9.702h11.669v4.372H72.971c4.625,0.556,6.294,3.358,6.294,7.41v1.15c0,3.633-1.565,5.563-4.554,6.111
	C78.16,88.312,79.681,90.572,79.681,93.922z M65.803,86.2h4.863c2.526,0,3.816-1.333,3.816-3.906v-1.88
	c0-1.931-0.729-3.405-3.257-3.405h-5.423V86.2z M74.757,93.922c0-2.619-1.278-3.952-3.807-3.952h-5.147v9.469h5.701
	c2.473,0,3.253-1.475,3.253-3.358V93.922z M103.799,82.065v12.312c0,5.649-2.983,9.926-9.875,9.926c-6.843,0-9.88-4.276-9.88-9.926
	V82.065c0-5.609,3.037-9.885,9.88-9.885C100.815,72.181,103.799,76.456,103.799,82.065z M98.934,81.742
	c0-3.127-1.568-5.33-5.01-5.33c-3.396,0-4.961,2.203-4.961,5.33v12.959c0,3.131,1.565,5.326,4.961,5.326
	c3.441,0,5.01-2.195,5.01-5.326V81.742z M179.486,81.924V94.52c0,4.96-2.94,9.008-9.461,9.008h-10.022V72.92h10.022
	C176.546,72.92,179.486,76.968,179.486,81.924z M174.621,82.435c0-3.221-1.561-5.151-5.007-5.151h-4.737v21.878h4.737
	c3.446,0,5.007-1.931,5.007-5.103V82.435z M55.658,51.439V64.03c0,4.965-2.939,9.009-9.471,9.009H36.171V42.427h10.017
	C52.719,42.427,55.658,46.475,55.658,51.439z M50.785,51.937c0-3.207-1.565-5.138-5.013-5.138h-4.736v21.873h4.736
	c3.447,0,5.013-1.931,5.013-5.103V51.937z"/>
<path fill="#EE301F" d="M252.061,72.263c0.153-0.6,0.257-1.234,0.688-1.629c-0.02-0.364-0.531-0.066-0.459-0.548
	c0.236-0.047,0.335,0.087,0.609-0.008c0.155-0.62,0.335-1.227,0.588-1.768c-0.047-0.263-0.262-0.306-0.308-0.568
	c0.105-0.253,0.279-0.458,0.611-0.546l-0.087-0.599c0.742-1.229,1.058-2.779,1.376-4.324c-0.302-0.447,0.2-0.793-0.093-1.21
	c0.465-0.472,0.921-1.142,0.409-1.973c0.424-0.174,0.092-0.913,0.28-1.265c-0.298-1.366-0.95-2.392-1.227-3.802
	c-0.274-0.082-0.593-0.104-0.805-0.27c0.165-0.123,0.368-0.214,0.227-0.566c-0.748-0.286-1.807-0.151-2.451-0.573
	c-0.737,0.491-1.856,0.335-2.766,0.467c-0.044,0.887-1.093,1.012-1.361,1.728c-0.064-0.096-0.181-0.119-0.323-0.108
	c-0.089,0.108,0.022,0.369-0.17,0.404c-0.282,0.05-0.274-0.288-0.634-0.138c-0.155,0.505-0.711,0.716-0.731,1.327
	c0.742,0.245,1.093-0.847,2.017-0.897c0.106-0.145,0.116-0.362,0.238-0.494c1.057-0.424,1.779-1.062,2.959-1.257
	c3.637-0.609,3.925,3.467,3.275,6.416c-0.322-1.025-1.56-0.993-1.998-0.097c-0.26-0.077-0.538-0.116-0.858-0.111
	c-0.445,0.493-1.312,0.669-1.493,1.362c-0.984,0.325-1.326,1.142-2.056,1.666c-0.254,0.067-0.423,0.033-0.609,0.013
	c-0.483,0.977-1.45,1.592-2.02,2.501c-0.101-0.073-0.273-0.049-0.458-0.01c-0.085,0.65-0.717,0.895-1.029,1.369
	c-0.203-0.089-0.473-0.091-0.581-0.302c0.378-0.432,0.242-1.246,0.604-1.688c0.009-0.281-0.204-0.267-0.224-0.508
	c0.307-0.514,0.678-1.147,0.214-1.71c-1.002,0.025-0.828,0.938-1.427,1.271c0.008,0.437,0.478,0.264,0.48,0.697
	c-0.319-0.017-0.271-0.261-0.621-0.066c-0.06,0.444-0.063,0.936-0.621,1.011c-0.159,0-0.178-0.183-0.271-0.271
	c0.071-0.708,0.702-0.995,0.415-1.972c0.97-1.411,1.342-3.273,2.316-4.689c0.733-0.203,0.719-0.977,1.354-1.259
	c-0.023-0.36-0.313-0.355-0.335-0.718c0.409-1.258,1.326-2.135,1.483-3.575c0.228-0.053,0.413-0.138,0.579-0.239
	c-0.052-0.271-0.145-0.271-0.073-0.524c0.879-0.696,1.535-1.919,1.3-3.241c-0.871-0.04-1.051,0.546-1.844,0.492
	c0.008-0.263,0.161-0.417,0.043-0.776c0.385-0.423,0.628-0.956,0.688-1.622c0.949-2.038,1.529-4.351,2.633-6.267
	c0.051-1.299,0.568-2.249,1.156-3.146c0.003-0.892,0.583-1.351,0.861-2.033c-0.191-0.725,0.108-1.078,0.494-1.369
	c0.021-0.188,0.062-0.359-0.008-0.613c0.841-0.795,0.652-2.366,1.375-3.256c-0.038-1.055,0.556-1.634,0.964-2.352
	c-0.059-0.315,0.049-0.501,0.045-0.771c0.267-0.135,0.424-0.354,0.61-0.546c0.077-1.685,1.104-2.654,0.972-4.496
	c-0.061-0.011-0.097-0.053-0.097-0.141c-1.299-0.454-2.366-0.371-3.226,0.456c-0.269,0.258-0.339,0.661-0.632,0.932
	c-0.481,0.443-1.107,0.639-1.534,1.059c-0.021,0.14,0.007,0.318-0.098,0.397c-0.246,0.122-0.47,0.27-0.708,0.405
	c-0.202,0.854-0.783,1.424-1.321,2.023c0.033,1.25-1.165,1.576-1.811,2.319l0.055,0.377c-1.132,1.146-2.298,2.633-3.2,3.895
	c-0.341,0.479-0.505,0.892-0.632,1.466c-0.603,0.212-0.631,1.036-0.875,1.348c-0.415,0.526-1.543,0.839-1.869,1.415
	c-0.662,0.104-1.005,0.447-1.511,0.668c-0.035,0.222-0.128,0.399-0.137,0.634c-0.289,0.186-0.521,0.415-0.669,0.709
	c-1.043,0.375-0.93,1.622-2.102,1.901c-0.775,1.135-1.489,2.322-2.779,3.069c0.023,0.242-0.124,0.355-0.065,0.622
	c-1.37,1.138-1.781,2.993-3.076,4.185c-0.407,1.504-1.574,2.437-2.396,3.628c-0.406,1.751-1.775,2.772-2.447,4.325l0.076,0.526
	c-0.312,0.524-0.963,0.797-0.922,1.584c-0.468,0.322-0.658,0.849-0.71,1.476c-0.824,0.834-1.28,1.945-1.452,3.267
	c-0.59,0.313-0.571,1.086-1.005,1.519c-0.027,0.275,0.281,0.418,0,0.534c-0.768-0.228-0.835-1.39-1.865-1.264
	c-0.233,0.067-0.222,0.321-0.484,0.375c-0.221-0.029-0.245-0.332-0.563-0.229c-0.774,0.748-0.302,1.848-0.21,2.861
	c0.08,0.916-0.088,2.014-0.036,2.99c0.036,0.686,0.404,1.328,0.04,1.906c-1.469-2.416-2.886-5.153-4.328-7.346
	c-0.074-1.535-1.44-2.881-1.62-4.432c-0.153-0.182-0.659,0.12-0.688,0.019c0.062-0.244,0.423-0.264,0.376-0.589
	c-0.372-0.173-0.187-0.534-0.298-1.027c-0.406-0.295-0.643-0.812-0.942-1.245c0.016-0.19,0.267-0.2,0.164-0.481
	c-0.541-0.477-0.508-1.402-1.309-1.65c0.063-0.842-0.229-1.929-0.991-2.154c0.052-0.233,0.159-0.419,0.046-0.77
	c-0.1-0.144-0.305-0.13-0.422-0.248c-0.093-0.254,0.077-0.306,0.004-0.536c-1.108-1.354-1.604-3.509-2.876-4.642
	c-0.027-0.176,0.096-0.24,0.012-0.46c-0.705-0.687-0.882-1.542-1.349-2.489c-0.319-0.11-0.607-0.259-0.898-0.408
	c-0.635-1.978-1.938-3.058-2.811-4.724c-0.453,0.008-0.593-0.402-0.923-0.562c-0.151-0.176-0.325,0.197-0.588,0.16
	c-0.093-0.203,0.081-0.208,0.025-0.386c-0.377-0.153-0.816-0.225-1.269-0.278c-0.387,0.394-1.006,0.689-1.745,0.63
	c-0.255,0.61-1.061,0.813-1.073,1.604c0.172,0.242,0.37-0.072,0.546,0.077c-0.149,0.249-0.07,0.66-0.258,0.879
	c-0.059-0.251-0.155-0.448-0.438-0.401c-0.327,0.259-0.054,0.571,0.18,0.745c-0.18,0.421,0.106,1.194-0.504,1.293
	c0.157,0.637-0.493,0.818-0.218,1.715c0.102,0.223,0.414,0.166,0.516,0.386c-0.228,0.186-0.559,0.295-0.516,0.686
	c0.195,0.095,0.301,0.313,0.383,0.558c-0.021,0.204-0.328,0.198-0.406,0.364c-0.12,0.812,0.289,1.9-0.102,2.536
	c0.678,0.506,1.024,2.123,0.558,2.829c0.555,0.598-0.25,1.453,0.489,1.842c-0.48,0.377-0.369,1.199-0.591,1.769
	c1.043,1.062,0.587,4.144,1.44,5.84c-0.18,0.585,0.311,1.475,0.292,2.099c-0.519-0.259-0.863-0.752-1.238-1.202
	c-0.292-0.014-0.492,0.385-0.739,0.182c0.035-0.287,0.313-0.389,0.28-0.729c-0.998-1.823-2.78-2.602-3.701-4.526
	c-0.62-0.151-0.891-0.771-1.121-1.444c-0.389-0.076-0.628-0.359-0.859-0.644c-0.477,0.177-0.609,0.09-0.994-0.014
	c-1.083,1.549,1.336,2.61,1.342,4.095c0.169,0.103,0.382,0.153,0.439,0.396c0.702,1.622,1.673,2.885,2.396,4.479
	c0.14,0.144,0.31,0.241,0.438,0.4c0.116,1.035,0.926,1.146,1.009,2.228c0.8,0.597,0.987,2.011,1.814,2.575
	c0.304,1.257,1.153,1.791,1.432,3.084c0.644,0.361,0.902,1.238,1.335,1.876c0.092,1.338,1.294,1.669,1.315,2.8
	c-0.428-0.297-0.906-0.517-1.144-1.064c-1.03,0.212-1.277-0.614-1.96-0.871c-0.004-1.483-1.852-0.905-2.83-0.518
	c0.121,0.465,0.454,0.65,0.807,0.803c0.263,0-0.014-0.411,0.162-0.482c0.489,0.272,0.999,0.432,1.54,0.628
	c1.191,0.423,2.371,1.711,3.371,2.197c0.143,0.072,0.354,0.002,0.475,0.088c0.065,0.05,0.084,0.314,0.21,0.428
	c0.466,0.423,1.077,0.326,0.835,1.03c0.521,0.76,1.327,1.619,1.51,2.541c-1.267-0.095-1.454-1.255-2.251-1.824
	c-0.349,0.105,0.187,0.466-0.155,0.555c-0.074-0.514-0.575-0.471-0.539-1.146c-0.113-0.091-0.335-0.026-0.536-0.002
	c-0.021-0.146,0.189-0.122,0.105-0.319c-0.743-0.197-0.904-1.165-1.839-1.116c-0.018-0.397-0.302-0.434-0.405-0.708
	c-0.426,0.196-0.858-0.02-0.936,0.439c-0.281-0.041-0.321-0.402-0.468-0.623c0.125-0.104,0.349-0.141,0.247-0.417
	c-0.533-0.094-0.826-0.782-0.867-1.256c-0.524,0.228-0.727,0.341-1.412,0.277c-0.139,0.188,0.181,0.389-0.078,0.545
	c-0.279-0.271-0.413-0.723-0.459-1.08c-0.088,0.002-0.21,0.042-0.235-0.045c-0.433,0.174-0.336,0.588-0.577,0.771
	c0.375,0.6,1.24,0.549,1.422,1.406c0.696,0.263,1.266,0.691,1.773,1.199c-0.123,0.483,0.312,0.783,0.601,0.987
	c-0.02,0.163-0.154,0.242-0.086,0.471c0.284,0.221,0.398,0.658,0.471,1.158c0.179,0.207,0.386,0.376,0.544,0.61l0.064,0.449
	c0.665,0.377,1.024,1.97,1.895,1.492c-0.404-0.58-1.183-0.873-1.037-1.915c-0.224-0.116-0.558-0.098-0.664-0.364
	c0.026-0.458,0.674-0.028,0.699-0.484c-0.548-0.075-0.942-0.357-1.189-0.821c1.359-0.414,2.21,0.626,2.944,1.335
	c0.247,0,0.633-0.188,0.693,0.056c0.059,0.313-0.075,0.438,0.097,0.673c0.291,0.029,0.552,0.104,0.858,0.111
	c0.267,0.404,0.296,0.619,0.393,1.17c0.091,0.209,0.395,0.126,0.502,0.309c0.258,0.817,0.952,1.057,1.512,1.473
	c-0.117,0.16,0.019,0.189,0.054,0.371c0.541,0.263,0.849,0.832,1.317,1.192c0.537,1.54,2.313,2.206,2.991,3.857
	c1.224,1.073,2.029,2.713,3.156,3.916c0.037,0.309,0.417,0.626,0.279,0.878c-1.351-0.614-2.802-1.093-3.756-2.222
	c-0.273-0.979-1.114-1.194-1.77-1.664c-0.439-0.841-1.071-1.424-1.732-1.974c-0.555-1.966-2.162-2.522-2.96-4.166
	c-0.341-0.113-0.673-0.24-0.846-0.57c0.067-0.152,0.389-0.107,0.246-0.419c0.003-0.213-0.402,0.118-0.399-0.095
	c0.142-0.479-0.203-1.018-0.801-0.805c0.055,0.404-0.47,0.597-0.471,0.981c-0.003,0.874,0.699,0.75,1.091,1.226
	c0.149,0.184,0.107,0.447,0.246,0.654c0.591,0.912,1.689,1.49,1.775,2.272c0.274,0.074,0.692,0.438,0.5,0.845
	c-1.734-0.934-2.847-2.687-4.57-3.638c-1.148-1.321-2.266-2.687-3.722-3.603c-0.561-1.512-2.056-1.78-2.673-3.213
	c-0.143-0.107-0.362-0.12-0.492-0.237c-0.697-0.979-1.455-1.869-2.421-2.485c-0.092-0.59-0.355-0.957-0.832-1.034
	c-0.232,0.159,0.004,0.677-0.271,0.805c-0.401-0.372-0.073-0.82-0.016-1.225c0.5-0.07,0.863,0.029,1.392,0.112
	c0.723,0.832,1.94,0.81,2.847,1.203c0.378-0.574-0.093-1.191-0.32-1.714c-0.659,0.104-0.815-0.463-1.174-0.753
	c-0.819,0.061-1.696-0.752-2.668-0.462c-0.355-0.305-0.838-0.435-1.242-0.669c-0.624,0.275-1.337,0.338-2.026,0.823
	c-0.116,0.184,0.029,0.555,0.044,0.836c0.551,0.214,0.801,0.838,1.497,0.859c0.384,0.2-0.174,0.438,0.107,0.751
	c0.054,0.223,0.415,0.047,0.493,0.232c-0.145,0.58,0.508,0.706,0.891,0.872c0.103,0.3-0.064,0.4,0.018,0.686
	c0.522,0.134,0.719,0.706,1.133,0.987c0.252,0.028,0.125-0.218,0.267-0.27c0.059-0.291-0.447-0.281-0.224-0.503
	c0.567,0.407,1.048,0.932,1.187,1.896c0.326,0.191,0.794,0.191,1.127,0.377c-0.06,0.249-0.296,0.36-0.203,0.716
	c0.564,0.208,0.789,1.103,1.624,0.689c0.098,0.409,0.291,0.681,0.51,0.925c-0.096,0.71,0.258,1.067,1.04,0.843
	c0.626,0.267,0.876,1.038,1.491,1.321l0.062,0.447c0.208,0.113,0.532,0.064,0.585,0.379c-0.022,0.301-0.334,0.49-0.117,0.782
	c0.32,0.103,0.558-0.167,0.845,0.031c-0.235,0.761,0.734,1.149,1.181,0.751c0.479,0.107,0.637,0.642,0.471,1.158
	c0.2,0.504,0.898,0.349,0.985,1.008c0.691,0.267,1.511,0.365,1.709,1.288l0.602-0.084c0.208,0.399,0.493,0.709,0.759,1.036
	c0.423,0.028,0.396-0.322,0.737-0.179c0.274,0.295-0.189,0.653,0.142,0.973c0.368,0.035,0.278-0.278,0.649-0.242
	c-0.354,0.858,0.623,1.376,1.307,1.113c1.211,1.599,2.895,2.569,4.364,3.819c0.1,0.075,0.124,0.249,0.144,0.442
	c1.822,1.699,4.062,2.852,6.044,4.342l0.072,0.525c0.354,0.238,0.566,0.658,0.796,1.055h1.934c0.694,0,1.267-0.57,1.267-1.262V93.09
	c0-0.693-0.572-1.26-1.267-1.26h-2.429c-0.695,0-1.261-0.565-1.261-1.261v-3.537c0-0.691,0.565-1.262,1.261-1.262h9.519
	c0.695,0,1.264,0.57,1.264,1.262v16.114c0,0.691,0.567,1.262,1.257,1.262h2.083c0.696,0,1.26,0.569,1.26,1.262v0.414
	c0.371-0.276,0.497-0.756,0.843-1.094c0.179-0.022,0.203-0.158,0.44-0.139c1.531-1.705,2.77-3.637,4.291-5.35
	c0.347-0.008,0.43-0.212,0.643-0.319c0.215-0.733,0.603-1.338,0.86-2.034c1.431-0.267,1.067-1.881,2.103-2.439
	c0.239-1.184,1.016-1.963,1.659-2.836c-0.019-0.734,0.543-1.483,1.27-1.865c-0.11-0.879,1.061-1.21,0.808-2.407
	c0.438-0.209,0.556-0.653,1.028-0.833c-0.013-0.726,0.339-1.178,0.77-1.562c-0.298-0.65,0.229-0.845,0.605-1.157
	c0.098-0.843,0.727-1.285,0.677-2.239c1.677-0.569,1.214-2.479,2.594-3.273c0.169-1.146,0.686-2.035,1.193-2.925
	c-0.048-0.171-0.157-0.264-0.15-0.512c0.464-0.727,0.885-1.482,1.29-2.248c-0.039-0.248-0.254-0.257-0.234-0.58
	C251.718,72.18,251.788,72.355,252.061,72.263z M255.077,23.338c-0.351-0.015-0.573-0.192-0.623-0.601
	C254.746,22.797,255.117,23.121,255.077,23.338z M195.765,80.923c-0.087-0.126-0.24-0.161-0.215-0.429l0.603-0.085
	C196.26,80.758,196.053,80.876,195.765,80.923z M191.618,82.429c-0.072-0.229,0.014-0.348,0.257-0.346l0.041,0.302L191.618,82.429z
	 M210.657,65.121c0.092,0.326-0.366,0.315-0.309-0.035C210.479,65.058,210.523,65.155,210.657,65.121z M210.274,64.563
	c-0.24-0.1-0.597-0.035-0.597-0.454C210.011,64.084,210.264,64.163,210.274,64.563z M195.508,52.654
	c-0.119-0.708,0.17-1.899-0.316-2.25c0.307-0.357,0.035-0.737,0.042-1.305c-0.021-0.33-0.441-0.126-0.45-0.473
	c0.363-0.031,0.495-0.925-0.043-0.834c0.323-0.378,0.467-1.167,0.068-1.693c-0.07-0.276,0.2-0.299,0.238-0.493
	c-0.612-1.174,0.414-1.971-0.158-3.266c0.265-0.227,0.361-0.577,0.482-0.911c-0.016-0.22-0.047-0.411-0.275-0.342
	c0.571-1.339,1.831-0.151,2.888-0.104c0.283,0.793,0.981,1.016,1.255,1.81c1.407,0.895,1.868,3.043,3.304,3.896
	c0.02,0.191,0.008,0.363-0.089,0.473c0.446,0.359,1.17,0.99,0.934,1.703c1.454,1.073,1.586,3.287,2.979,4.316
	c-0.044,0.19-0.171,0.319-0.235,0.494c0.093,0.268,0.302,0.374,0.464,0.547c0.8,2.143,2.255,4.187,3.076,6.604
	c-0.85-0.005-0.59-1.48-1.691-1.142c0.022-0.877-0.489-1.527-1.359-1.488c-0.254-0.302,0.069-0.393-0.028-0.76
	c-0.383-0.621-0.913-1.046-1.632-1.225c-0.191-0.604-0.567-0.966-1.271-0.89c-0.23-0.164,0.06-0.239,0.012-0.461
	c-0.35-0.311-0.623-0.721-1.179-0.749c-0.159-0.652-0.727-0.754-1.272-0.895c-0.354-0.719-1.035-0.999-1.776-1.201
	c-0.288,0.009-0.319,0.207-0.406,0.366C198.07,51.844,196.557,52.025,195.508,52.654z M204.017,58.716
	c-0.287-0.297-0.765-0.348-1.017-0.695c0.176-0.644-0.239-0.966-0.685-1.053c0.015-0.282,0.367-0.657,0.101-0.93
	c0.259-0.169,0.708,0.181,1.022,0.236c0.155,0.742,0.943,1.001,1.362,1.488c0.538,0.636,0.768,1.644,1.712,1.826
	c0.71,0.95,1.397,1.939,2.223,2.744c0.079,0.1,0.212,0.135,0.397,0.099c0.063,0.268,0.053,0.487,0.018,0.683
	c-1.075-0.109-1.205-1.485-2.227-1.674c-0.293-0.911-1.046-1.224-1.751-1.586c-0.244-0.511-0.672-0.774-1.265-0.816
	C204.006,58.979,203.878,58.75,204.017,58.716z M202.705,61.888c0.128,0.092,0.196,0.269,0.225,0.501
	C202.744,62.356,202.573,62.069,202.705,61.888z M201.797,59.797c0.573,0.249,0.606,1.211,0.878,1.866
	C202.402,61.066,201.636,60.396,201.797,59.797z M197.872,72.594c-0.154-0.216-0.299-0.438-0.603-0.453
	c-0.221-1.126-1.159-1.307-1.276-2.57c-0.958-0.362-0.93-2.037-1.742-2.588l-0.528,0.078c0.043-0.61-0.159-1.459-0.684-1.586
	c0.123-0.66-0.384-1.122-0.927-1.17c-0.144-0.243,0.282-0.397,0-0.534c0.167-0.272,0.395,0.12,0.619,0.064
	c0.23,0.762,0.703,1.201,1.411,1.329c0.837,1.381,1.938,2.409,3.014,3.476c-0.029,1.612,1.229,3.352,1.238,4.947
	c-0.124-0.103-0.226-0.234-0.417-0.245L197.872,72.594z M198.606,74.018c-0.158-0.033-0.336-0.183-0.197-0.354
	C198.562,73.7,198.715,73.887,198.606,74.018z M199.377,76.203c-0.047-0.057-0.093-0.111-0.104-0.214
	c0.058-0.069,0.159-0.105,0.286-0.115C199.608,76.064,199.576,76.197,199.377,76.203z M199.631,69.357
	c-0.091-0.821-0.689-0.981-1.046-1.457c0.125-0.35-0.234-0.698,0.012-0.996c-0.415-0.338-0.813-1.141-0.384-1.627
	c-0.476-0.928-0.892-2.286-0.703-3.342c-0.399-1.158-0.742-2.207-0.94-3.389c-0.115-0.71-0.842-1.401-0.381-2.163
	c0.007-0.453-0.218-0.604-0.286-0.955c0.276-0.512-0.116-1.131-0.149-1.583c0.385-1.358,2.028-0.918,3.118-0.673
	c0.08,0.244,0.293,0.324,0.446,0.475c-0.133,0.973,0.524,1.646,0.289,2.559c-0.453,0.24-0.885,0.719-1.287,1.176
	c0.897,3.225,2.217,5.886,3.352,8.551c0.244,0.337,0.712,0.365,1.07,0.536c-0.066,0.24-0.098,0.51-0.288,0.656
	c0.926,1.447,1.623,3.112,2.092,4.521c-0.221,0.789,0.231,1.776,0.694,2.197c0.08,1.08,0.736,1.355,0.781,2.263
	c-0.388-0.2-0.8-0.436-0.685-1.055c-0.177-0.506-0.892-0.298-1.232-0.589c-0.174-0.361-0.1-1.052-0.597-0.986
	c0.04-0.167,0.195-0.25,0.16-0.481c-0.165-0.228-0.557-0.157-0.74-0.353c0.21-0.76-0.635-0.637-0.972-0.934
	c-0.099-0.257,0.068-0.307,0-0.536c-0.158-0.234-0.463-0.279-0.803-0.271C200.882,70.074,200.115,69.906,199.631,69.357z
	 M207.011,79.33c-0.466-0.749-1.099-1.272-1.452-2.165C206.324,77.452,206.867,78.503,207.011,79.33z M205.183,76.681
	c-0.235-0.012-0.406-0.11-0.439-0.395C204.979,76.301,205.15,76.396,205.183,76.681z M201.629,83.992
	c0.023-0.116,0.085-0.203,0.108-0.321C201.994,83.674,201.938,84.042,201.629,83.992z M202.644,85.228
	c-0.432,0.003,0.066-0.677-0.266-0.806C202.579,84.184,202.953,85.027,202.644,85.228z M204.334,87.435
	c0.252-0.036,0.497-0.07,0.494,0.235C204.573,87.708,204.328,87.743,204.334,87.435z M208.321,88.017
	c-0.357-0.028-0.541-0.295-0.571-0.761c0.325-0.075,0.416,0.16,0.704,0.132C208.518,87.674,208.353,87.796,208.321,88.017z
	 M208.562,88.671c0.73-0.08,0.907-0.569,1.16-1.005c-0.256-0.357-0.479,0.235-0.759,0.031c-0.055-0.267,0.329-0.198,0.234-0.491
	c-0.408-0.444-0.808-1.156-1.51-0.936c0.207-0.859-0.579-2.021-1.273-2.495c-0.091-0.292,0.158-0.334,0.066-0.622
	c-0.13-0.246-0.604-0.029-0.859-0.108c-0.204-0.256,0.135-0.807-0.404-0.708c0.058-0.554-0.227-1.174-0.717-1.277
	c-1.135-2.674-2.558-4.976-3.619-7.747c0.913,0.362,1.235,1.501,2.04,2.008c0.73,1.994,2.081,3.179,3.188,4.672
	c0.283,1.143,0.888,1.858,1.571,2.456c0.682,1.888,2.074,2.823,2.546,4.994c0.289,0.393,0.61,1.005,0.289,1.49
	c0.638,0.469,1.237,1.422,1.386,2.252c-0.169,0.199-0.314-0.176-0.556-0.153c-0.146,0.186-0.201,0.475-0.054,0.697
	c0.333,0.137,0.44-0.115,0.655-0.243c0.258,0.762,0.85,1.503,1.121,2.516C211.242,92.654,209.576,91.098,208.562,88.671z
	 M209.45,80.645c2.013,1.366,2.985,4.112,3.956,6.858C211.93,85.428,210.62,83.135,209.45,80.645z M215.78,100.858
	c0.099,0.517,0.198,0.533,0.143,1.022c-0.983-0.226-1.529-1.037-2.209-1.662C214.495,99.795,214.915,100.951,215.78,100.858z
	 M214.971,98.244c-0.471-0.063-0.739-0.39-0.89-0.871C214.62,97.341,214.855,97.711,214.971,98.244z M212.892,81.551
	c-0.604-0.793-1.254-1.666-1.912-2.712c-0.195-0.311-0.176-0.602-0.154-1.05c1.342,1.225,2.116,3.194,3.392,4.493
	c0.019,0.243,0.181,0.299,0.162,0.589c0.394,0.426,0.811,0.818,0.921,1.63C214.315,83.838,213.721,82.645,212.892,81.551z
	 M216.332,83.155c-0.502-0.758-1.15-1.321-1.541-2.229c-0.886-0.637-0.499-1.183-1.449-1.727c-0.966-2.399-2.932-3.473-3.762-6.045
	c-0.082-0.165-0.258-0.194-0.42-0.248c-0.169-1.922-0.819-3.269-1.909-4.321c0.715-1.134-1.088-1.567-0.672-2.58
	c-0.395-0.321-0.644-0.689-0.491-1.308c-0.11-0.301-0.331-0.45-0.612-0.526c0.013-0.943-0.656-1.573-0.774-2.263
	c1.143,0.588,1.853,1.753,2.936,2.416l0.059,0.373c2.432,1.992,3.942,5.212,5.859,7.894c0.175,0.863,0.611,1.386,1.101,1.829
	l0.071,0.526c0.811,0.71,0.342,1.338,0.991,2.252c0.035,1.467,1.355,3.577,0.626,4.962
	C216.531,82.515,216.457,82.857,216.332,83.155z M243.971,67.516c1.3-0.762,2.146-1.869,3.022-2.951
	c1.641-1.064,2.756-2.528,5.072-3.087c0.004,0.104,0.015,0.212,0.104,0.212c-0.366,0.997-1.331,1.545-1.447,2.729
	c-0.977,1.389-2.11,2.659-2.76,4.294c-0.147,0.089-0.319,0.161-0.414,0.287c-0.015,0.33,0.049,0.304,0.006,0.608
	c-1.346,0.932-1.517,2.747-2.502,3.952c-0.264,0.054-0.306-0.188-0.553-0.149c-0.331,0.127-0.207,0.568-0.713,0.405
	c-0.608,0.923-1.577,1.582-2.334,2.395c0.025,0.229,0.119,0.373,0.288,0.417c0.616-0.271,0.919-0.783,1.619-0.993
	c-1.188,3.086-3.104,5.622-4.443,8.588c-0.272,0.239-0.423,0.576-0.56,0.918c-0.182,0.108-0.239,0.312-0.483,0.372
	c-0.045,0.702-0.304,1.249-0.851,1.575c-0.02-0.148-0.217-0.066-0.19-0.279c0.07-0.349,0.672-0.299,0.666-0.706
	c-0.06-0.216-0.183-0.354-0.362-0.405c-0.628,0.575-0.823,1.483-1.474,2.043c-0.026-0.463,0.51-0.725,0.133-1.238
	c0.648-0.407,0.807-1.184,1.114-1.846c0.328-0.107,0.208,0.385,0.503,0.312c0.137-0.296,0.483-0.44,0.664-0.707
	c0.003-0.242-0.135-0.291-0.275-0.342c-0.404-0.016-0.261,0.387-0.549,0.457c-0.348-0.379,0.269-0.534,0.087-1.005
	c-0.237-0.196-0.361,0.26-0.737,0.183c0.054-0.54,0.332-0.911,0.322-1.502c-0.008-0.287-0.366-0.107-0.494-0.236
	c-0.03-0.4,0.237-0.138,0.444-0.136c0.306-0.369,0.494-0.834,0.393-1.509c0.559-0.545,0.601-1.478,0.742-2.327
	c0.983-1.315,1.288-3.141,2.022-4.644c0.336-0.283,0.508-0.687,0.511-1.222C241.308,70.211,243.2,69.285,243.971,67.516z
	 M237.487,75.78c0.017-0.219,0.021-0.437,0.319-0.431l0.044,0.299C237.773,75.727,237.665,75.778,237.487,75.78z M241.97,65.277
	c0.286-0.089,0.445,0.003,0.619,0.064c-0.161,0.638-0.78,0.931-1.094,1.456c0.053,0.103,0.138,0.173,0.191,0.278
	c-0.478,0.958-1.142,1.775-1.602,2.75c-0.19,0.083-0.169-0.125-0.316-0.108c0.272-0.461,0.32-1.312,0.072-1.617
	c0.244,0.078,0.395-0.035,0.591-0.157C240.783,66.929,241.633,66.298,241.97,65.277z M245.411,33.962l-0.064-0.45
	c0.379-0.033,0.361-0.354,0.535-0.534c-0.018-0.239-0.231-0.226-0.221-0.506c0.274-0.07,0.463,0.249,0.684-0.021
	c0.256-0.174,0.121-0.291,0.065-0.619c0.802-0.246,0.705-1.167,1.48-1.434c-0.07-0.233,0.098-0.287,0-0.535
	c0.524-0.368,0.97-0.79,1.008-1.521c0.514-0.173,0.796-0.517,1.021-0.908c-0.049-0.328-0.271-0.472-0.181-0.739
	c0.123-0.204,0.373,0.072,0.512-0.147c0.136-0.121,0.12-0.358,0.151-0.559c0.423-0.196,0.721-0.486,0.782-0.952
	c0.766-0.342,1.213-0.922,1.621-1.529c0.739-0.021,0.852-0.691,1.551-0.374c-0.186,0.548-0.533,1.272-0.26,1.95
	c-0.64,0.473-1.057,1.407-0.812,2.333c-0.916,1.1-1.159,2.706-1.89,3.94c-0.027,0.236,0.158,0.2,0.136,0.438
	c-0.623,0.448-0.525,1.438-0.678,2.236c-0.8,0.495-0.945,1.479-1.104,2.452c-0.345,0.139-0.18,0.45-0.354,0.739
	c-0.072,0.118-0.338,0.187-0.41,0.363c-0.169,0.422-0.092,1.02-0.262,1.414c-0.105,0.253-0.415,0.422-0.517,0.684
	c-0.165,0.458-0.138,0.795-0.352,1.276c-0.438,1.003-0.938,2.16-1.041,3.436c-0.279,0.105-0.423,0.311-0.536,0.535
	c-0.146,2.413-1.97,3.566-1.967,6.094c-1.129,1.138-0.991,3.233-2.396,4.162c-0.039,0.355,0.247,0.27,0.24,0.581
	c-0.208,0.092-0.214-0.079-0.39-0.025c-0.699,1.15-1.837,1.975-2.372,3.243c-0.302,0.131-0.5,0.339-0.856,0.43
	c-0.061,0.914-0.641,1.436-1.344,1.87c-0.013-0.386,0.286-0.547,0.51-0.758c-0.159-1.057,0.811-1.261,0.58-2.376
	c0.361-0.177,0.472-0.539,0.902-0.664c0.008-0.904,0.538-1.48,0.268-2.41l0.372-0.053c0.417-0.735,1.06-1.31,1.132-2.302
	c0.186-0.015,0.217-0.151,0.352-0.203c-0.272-1.252,1.232-2.049,0.988-3.274c1.303-0.576,0.29-2.639,1.775-3.159
	c-0.279-1.459,0.747-1.938,0.688-3.234c0.227-0.391,0.688-0.938,0.763-1.641c0.063-0.596-0.16-1.32-0.116-1.893
	c0.023-0.308,0.343-0.742,0.313-1.04c-0.072-0.78-0.962-0.719-0.974-1.471c-0.208-0.26-0.503-0.395-0.901-0.406
	C244.346,35.569,244.583,34.544,245.411,33.962z M235.101,66.479c0.008-0.731,0.134-1.373,0.762-1.639
	c0.341-1.242,1.19-2.097,1.944-3.029c0.122-0.046,0.146,0.037,0.17,0.129c-0.376,1.148-1.457,1.764-1.633,3.061
	C235.814,65.405,235.672,66.104,235.101,66.479z M235.133,66.704c0.03,0.318-0.24,0.673-0.451,0.6
	C234.651,66.982,234.921,66.626,235.133,66.704z M222.507,67.727c0.074-1.53,1.513-2.311,1.198-3.918
	c1.178-1.197,1.23-3.229,2.439-4.398c0.584-1.281,1.37-2.41,1.749-3.844c1.006-0.81,1.086-2.312,2.081-3.126
	c1.479-2.933,3.588-5.389,5.356-8.1c0.273-0.021,0.241-0.264,0.495-0.3c0.969-1.704,2.46-3.02,3.804-4.443
	c0.265,0.032,0.061,0.138,0.129,0.364c-1.249,0.603-1.191,2.184-2.176,2.987l0.073,0.522c-0.653,0.524-1.309,1.376-1.213,2.238
	c-0.385,0-0.494,0.21-0.716,0.334c-0.138,1.39-1.548,1.829-1.516,3.349c-0.68,0.336-1.157,0.832-0.968,1.821
	c-0.539,0.353-0.456,1.172-1.184,1.39c-0.065,0.252,0.021,0.252,0.077,0.524c-1.096,1.278-1.846,2.813-2.68,4.28
	c0.181,0.742,0.447,1.65,0.093,2.281c-0.279,0.013-0.249-0.385-0.646-0.215c-0.094,0.039-0.098,0.147-0.201,0.186
	c1.048,1.507-1.533,1.768-1.374,3.254c-0.087,0.158-0.35,0.186-0.494,0.295c0.022,0.18,0.161,0.203,0.141,0.442
	c-0.795,0.334-0.799,1.185-0.625,2.076c-0.539,0.357-1.159,0.646-1.008,1.521c-0.226,0.089-0.176-0.188-0.401-0.099
	c-0.2,0.456,0.203,0.778,0.378,1.018c-0.31,0.075-0.363,0.414-0.732,0.259c-0.033,0.32,0.056,0.584,0.078,1.057
	c-0.258,0.278-0.812,0.332-0.892,0.742c0.032,0.223,0.232,0.227,0.287,0.418c-0.295,0.31-0.27,0.863-0.938,0.898
	c0.164-1.111-0.519-1.938-0.933-2.776C222.279,68.405,222.144,67.881,222.507,67.727z M230.816,56.759
	c-0.01,0.143-0.516,0.381-0.458-0.012C230.543,56.71,230.715,56.681,230.816,56.759z M222.061,70.542l-0.041-0.299
	C222.298,70.145,222.356,70.562,222.061,70.542z M219.705,69.042c0.193,0.38-0.126,0.807-0.215,1.176
	c-0.119-0.195-0.298-0.315-0.45-0.473C219.061,69.385,219.192,68.814,219.705,69.042z M225.238,82.848
	c-0.837,0.834-1.854,1.251-3.059,1.251c-1.162,0-2.178-0.425-3.025-1.273c-0.854-0.855-1.278-1.867-1.278-3.035
	c0-1.196,0.415-2.215,1.251-3.054c0.84-0.836,1.854-1.256,3.053-1.256c1.204,0,2.222,0.42,3.059,1.256
	c0.834,0.839,1.253,1.857,1.253,3.054C226.491,80.991,226.072,82.009,225.238,82.848z M227.386,75.523
	c0.518-0.475,0.223-1.147,0.495-1.909c0.097-0.262,0.506-0.537,0.645-0.851c0.248-0.573,0.417-1.03,0.282-1.677
	c0.923-1.629,0.337-1.739,1.354-3.296l0.052,0.375c0.093-0.334,0.541-0.396,0.411-0.902c-0.095-0.21-0.238,0.081-0.378,0.056
	c0.015-0.328,0.109-0.593,0.27-0.804c0.159-0.036,0.07,0.264,0.127,0.364c0.316,0.013,0.225-0.278,0.578-0.235
	c0.031,0.468-0.359,0.619-0.215,1.181c0.766-0.097,0.562-0.921,1.051-1.223c0.043-0.293-0.215-0.186-0.21-0.426
	c0.367-0.003,0.447-0.744,0.106-0.86c0.244-0.251,0.536-0.551,0.237-1.025c0.07,0.047,0.182,0.054,0.308,0.03
	c-0.262-0.489-0.039-0.431-0.061-0.986c-0.678,0.338-0.812,1.092-1.137,1.693c0.044,0.232,0.282,0.217,0.556,0.152
	c-0.026,0.314-0.293,0.45-0.354,0.737c-0.415-0.357-0.602,0.202-0.955,0.287c-0.35-0.512,0.425-0.573,0.081-1.08
	c0.242,0.006,0.34-0.103,0.51-0.153c0.174-1.033,0.685-1.806,1.163-2.608c0.219-0.09,0.172,0.185,0.394,0.095
	c0.244-0.109,0.33-0.605,0.108-0.855c-0.277,0.062-0.238,0.359-0.386,0.513c-0.264-0.003-0.198-0.451-0.45-0.471
	c-0.813,0.571-1.155,1.497-1.321,2.559c-0.312,0.052-0.341,0.323-0.547,0.46c-1.054,3.36-1.54,4.595-2.572,7.973
	c-0.212,0.044-0.174,0.271-0.33,0.35c-0.042,0.89-0.944,2.308-1.089,3.115c-0.756-0.198,0.1-2.676-0.663-3.021
	c-0.615-2.032,0.746-2.302,0.863-4.199c0.725-1.084,0.962-1.164,1.271-2.562c1.262-2.023,1.993-4.44,3.296-6.434
	c-0.044-0.347,0.12-0.539,0.024-0.919c0.281-0.235,0.479-0.534,0.725-0.792c-0.122-0.407,0.222-0.463,0.193-0.795
	c0.963-1.062,1.652-2.335,1.981-3.874c0.606-0.606,1.042-1.806,1.597-2.75c0.291-0.495,0.772-0.625,0.644-1.391
	c0.229-0.029,0.271-0.2,0.42-0.289c0.562-1.475,1.31-2.811,2.265-3.995c0.005-0.842,0.97-0.964,0.797-1.949
	c0.648-0.938,1.272-1.897,1.886-2.865c-0.062-0.273,0.021-0.431,0.065-0.621c0.782-0.422,1.051-1.224,1.32-2.023
	c2.546-0.401,1.659,2.068,1.667,3.664c-0.219-0.029-0.18,0.136-0.363,0.131c0.175,1.12-0.906,1.629-0.54,2.675
	c-0.376,0.342-0.934,0.837-0.548,1.529c-0.308,0.197-0.47,0.499-0.739,0.72l0.072,0.525c-0.859,1.165-1.301,2.642-1.963,3.947
	c0.022,0.121,0.003,0.293,0.118,0.293c-0.224,0.389-0.581,0.681-0.852,1.039c-0.053,1.249-1.003,1.832-1.264,2.931
	c0.025,0.555-0.05,1.036-0.175,1.479c-0.456,0.059-1.012-0.352-1.358,0.116c0.093,0.231,0.374,0.212,0.576,0.298
	c-0.358,2.143-1.464,3.727-2.278,5.525c-0.529-0.47,0.059-1.473-0.657-1.97c-0.583,0.208-0.982,0.557-1.148,1.079
	c0.051,0.287,0.38,0.154,0.223,0.506c0.225-0.035,0.439,0.08,0.712,0.2c0.267,0.783-0.397,1.141,0.037,1.833
	c-0.493,0.839-0.648,1.929-1.571,2.438c-0.454,0.956-1.153,1.725-1.604,2.681c-0.223,0.087-0.291-0.041-0.465-0.012
	c0.078,1.013-1.619,1.191-0.903,2.266c-1.311,2.542-1.521,3.008-2.255,5.979c-0.328-0.041-0.375-0.456-0.56-0.685
	C227.094,76.39,227.495,75.915,227.386,75.523z M227.807,101.935c-0.207-0.38-0.442-0.72-0.493-1.307
	c0.308-0.289,0.869-0.816,1.32-0.418C228.259,100.71,228.247,101.481,227.807,101.935z M228.787,94.835
	c-0.328-0.298-0.441-0.878-0.404-1.245l0.302-0.041C228.842,93.861,228.817,94.453,228.787,94.835z M228.661,77.719
	c-0.304-0.566,0.731-0.966,0.076-1.622c0.599-1.336,1.191-2.677,1.462-4.257c0.911-1.506,1.821-3.009,2.896-4.39
	c0.326,0.321-0.428,0.907-0.58,1.305c0.135,0.528-0.124,0.755-0.141,1.166c-0.644,0.233-0.433,1.102-1.029,1.375
	c-0.032,1.422-1.107,2.068-1.107,3.518C229.582,75.684,229.487,76.976,228.661,77.719z M229.586,83.171
	c0.411-2.597,2.146-4.193,2.644-6.729c0.898-0.906,1.059-2.371,1.812-3.388c0.019-0.315-0.025-0.262-0.083-0.603
	c1.606-2.209,2.452-4.99,4.194-7.094l0.229-0.033c0.148,0.695-0.555,0.75-0.239,1.562c-0.824,1.039-1.343,2.297-1.7,3.686
	c-1.38,1.751-1.617,4.362-2.953,6.154c-0.041,1.378-1.238,2.232-1.19,3.459c-0.637,0.702-1.182,1.481-1.923,2.107
	c-0.049,0.433,0.01,0.945-0.548,0.995C229.786,83.2,229.714,83.144,229.586,83.171z M235.415,80.048
	c0.08-0.141,0.114-0.316,0.332-0.354C235.795,79.93,235.592,79.983,235.415,80.048z M230.251,91.645
	c-0.293-0.573-0.066-0.988,0.194-1.327c0.033-0.312-0.254-0.194-0.227-0.506c0.529-0.717,1.331-1.231,1.612-2.142l0.447-0.063
	C231.487,88.862,231.11,90.438,230.251,91.645z M230.644,94.957c-0.523-0.311-0.055-1.122,0.345-1.353
	c0.149-0.98,0.805-1.584,0.933-2.581c0.828-0.491,0.628-1.76,1.439-2.268c0.136-0.879,0.84-1.332,0.817-2.335
	c0.693-0.458,0.493-1.594,1.243-2.013c-0.258-0.776,0.504-0.783,0.493-1.371c0.268,0.015,0.008,0.613,0.396,0.634
	c-0.62,0.316-0.605,1.107-1.166,1.467c0.069,1.057-0.297,1.785-1.065,2.215c0.02,0.484-0.177,0.805-0.461,1.061
	c0.019,0.3,0.226,0.351,0.246,0.654c-0.758,0.508-1.458,1.397-1.185,2.464c-0.622,0.419-1.163,0.908-1.03,1.901
	C230.992,93.696,230.885,94.376,230.644,94.957z M235.514,87.764c0.162,0.125,0.102,0.652-0.218,0.64
	C235.053,88.102,235.288,87.896,235.514,87.764z M235.288,88.862c-0.078,0.571-0.313,1.02-0.646,1.395
	c-0.15-0.43,0.218-1.045,0.411-1.436C235.171,88.783,235.191,88.877,235.288,88.862z M233.096,94.453
	c-0.081-1.045,0.763-1.974,0.863-3.104c0.14-0.299,0.417-0.489,0.489-0.835C234.795,91.891,233.447,93.152,233.096,94.453z
	 M250.358,71.585c-0.625,2.678-2.177,4.662-3.042,7.162c-0.13,0.078-0.256,0.162-0.425,0.217c-0.559,1.365-1.521,2.433-1.976,3.869
	c-1.685,2.29-2.716,4.944-4.243,7.335c-0.345,0.539-0.767,0.979-1.084,1.53c-1,1.732-2.076,3.669-3.297,5.357
	c-1.462,2.044-2.246,3.326-3.9,5.025c-0.456,0.467-0.91,0.991-1.477,1.433c-0.013-0.502,0.492-0.612,0.621-1.007
	c-0.075-0.943,1.01-1.312,0.679-2.239c0.635-0.725,0.015-0.904,0.629-1.648c0.171-0.186,0.326-0.851,0.449-0.979
	c0.753-0.437,1.169-0.639,0.862-1.656c0.663-0.123,0.51-1.074,0.645-1.389c0.464-0.479,0.615-1.189,1.32-1.49
	c0.031-0.342-0.184-0.353-0.235-0.577c0.675-0.809,1.332-1.635,1.599-2.75c1.188-0.604,1.053-2.199,2.027-2.963
	c0.054-1.501,1.486-1.968,1.408-3.567c0.198-0.12,0.406-0.229,0.641-0.319c0.089-0.113,0.028-0.339,0.003-0.538
	c0.561-0.315,0.496-1.099,1.103-1.381c0.778-2.229,2.453-3.78,3.114-6.098c0.223-0.102,0.313-0.301,0.56-0.388
	c0.03-0.22,0.019-0.475,0.052-0.692c0.673-0.77,1.261-1.601,1.45-2.731c1.267-1.107,1.608-2.901,2.874-4.004
	c0.007-0.239,0.175-0.359,0.143-0.632c0.931-0.839,1.368-2.048,1.919-3.179c0.174-0.23,0.464-0.367,0.603-0.618
	c0.087-0.027,0.137-0.007,0.159,0.054c-0.244,2.159-1.473,3.58-1.622,5.814C251.267,69.455,251.024,70.683,250.358,71.585z
	 M239.916,78.879c0.104,0.366-0.086,0.515-0.461,0.523C239.3,78.966,239.604,78.772,239.916,78.879z M238.64,80.662
	c0.031,0.449-0.343,0.595-0.228,1.105c-0.645,0.206-0.246,1.199-1.041,1.295c-0.59-0.858,0.614-0.917,0.366-1.734
	C238.03,81.099,238.272,80.834,238.64,80.662z M239.357,79.796c0.005,0.406-0.187,0.669-0.665,0.707
	c-0.199-0.174-0.241-0.452-0.097-0.675C238.994,79.83,239.166,79.599,239.357,79.796z M232.778,63.059
	c-0.05-0.169-0.027-0.291,0.021-0.386l0.229-0.032C233.096,62.893,233.064,63.072,232.778,63.059z M230.846,68.305
	c0.215-0.023,0.419,0.423,0.151,0.514C230.644,68.905,230.717,68.412,230.846,68.305z M240.884,77.595
	c-0.205-0.218-0.145-0.702,0.287-0.656C241.28,77.314,241.2,77.544,240.884,77.595z M232.771,61.377
	c-0.046-0.258-0.113-0.534,0.066-0.623C233.206,60.728,233.183,61.419,232.771,61.377z M210.373,89.563
	C209.438,89.506,210.536,88.754,210.373,89.563L210.373,89.563z M233.127,59.03c0.747,0.179,0.415,1.499-0.226,1.642
	C232.927,60.012,232.76,59.506,233.127,59.03z M211.11,89.919c0,0.357-0.045,0.677-0.259,0.877
	c-0.397,0.058-0.555-0.589-0.438-0.934C210.709,89.797,210.97,89.778,211.11,89.919z M237.229,85.3
	c-0.031,0.162-0.18,0.343-0.352,0.205c0.029-0.07,0.061-0.135,0.043-0.236C237.067,85.213,237.124,85.292,237.229,85.3z
	 M234.654,103.827c-0.686,0-1.185,0.531-1.185,1.188c0,0.663,0.499,1.186,1.185,1.186c0.682,0,1.184-0.522,1.184-1.186
	C235.838,104.358,235.336,103.827,234.654,103.827z M234.654,106.043c-0.601,0-1.018-0.456-1.018-1.028
	c0-0.571,0.417-1.028,1.018-1.028c0.602,0,1.008,0.457,1.008,1.028C235.662,105.587,235.256,106.043,234.654,106.043z
	 M235.101,105.399v-0.114c0-0.113-0.037-0.233-0.176-0.25c0.143-0.047,0.176-0.134,0.176-0.267v-0.006
	c0-0.196-0.102-0.33-0.351-0.33h-0.517v1.17h0.213v-0.489h0.267c0.115,0,0.171,0.078,0.171,0.178v0.129
	c0,0.125,0.072,0.202,0.229,0.202h0.063v-0.172C235.118,105.45,235.101,105.432,235.101,105.399z M234.884,104.795
	c0,0.113-0.062,0.162-0.171,0.162h-0.267v-0.347h0.289c0.1,0,0.148,0.083,0.148,0.152V104.795z"/>
</svg>
