<svg version="1.1" id="Layer_1" xmlns="http://www.w3.org/2000/svg" xmlns:xlink="http://www.w3.org/1999/xlink" x="0px" y="0px"
	 width="256px" height="256px" viewBox="0 0 256 256" enable-background="new 0 0 256 256" xml:space="preserve">
<path fill="#FF9900" d="M88.287,145.564c-8.269,6.104-20.256,9.348-30.579,9.348c-14.467,0-27.494-5.348-37.353-14.249
	c-0.774-0.699-0.084-1.653,0.847-1.112c10.637,6.189,23.79,9.917,37.375,9.917c9.164,0,19.238-1.901,28.508-5.834
	C88.482,143.041,89.655,144.555,88.287,145.564z"/>
<path fill="#FF9900" d="M91.728,141.639c-1.058-1.354-6.99-0.643-9.656-0.322c-0.808,0.097-0.933-0.609-0.205-1.121
	c4.733-3.323,12.488-2.363,13.39-1.25c0.908,1.121-0.238,8.896-4.674,12.607c-0.682,0.57-1.331,0.266-1.028-0.486
	C90.552,148.572,92.786,142.992,91.728,141.639z"/>
<path d="M82.259,116.711v-3.23c0.003-0.491,0.373-0.818,0.819-0.817l14.478-0.001c0.463,0,0.835,0.336,0.835,0.814v2.771
	c-0.005,0.465-0.396,1.071-1.09,2.033l-7.5,10.708c2.784-0.065,5.729,0.352,8.258,1.772c0.57,0.32,0.724,0.795,0.769,1.26v3.447
	c0,0.475-0.521,1.024-1.066,0.738c-4.456-2.334-10.369-2.589-15.297,0.029c-0.504,0.268-1.03-0.273-1.03-0.75v-3.276
	c0-0.524,0.01-1.421,0.539-2.22l8.688-12.465l-7.565-0.001C82.633,117.524,82.262,117.195,82.259,116.711z"/>
<path d="M29.448,136.887h-4.404c-0.419-0.027-0.754-0.342-0.788-0.744l0.004-22.605c0-0.452,0.38-0.813,0.85-0.813l4.103-0.001
	c0.429,0.021,0.772,0.346,0.8,0.759v2.951h0.083c1.068-2.854,3.083-4.187,5.797-4.187c2.754,0,4.481,1.333,5.715,4.187
	c1.069-2.854,3.495-4.187,6.085-4.187c1.851,0,3.865,0.762,5.098,2.474c1.398,1.903,1.111,4.662,1.111,7.088l-0.004,14.267
	c0,0.45-0.38,0.813-0.851,0.813h-4.398c-0.442-0.029-0.79-0.38-0.79-0.812l-0.002-11.984c0-0.95,0.083-3.329-0.123-4.232
	c-0.329-1.523-1.315-1.951-2.59-1.951c-1.069,0-2.18,0.713-2.632,1.854c-0.452,1.143-0.411,3.045-0.411,4.329v11.983
	c0,0.45-0.38,0.813-0.85,0.813h-4.399c-0.442-0.029-0.791-0.38-0.791-0.812l-0.004-11.984c0-2.521,0.411-6.23-2.713-6.23
	c-3.167,0-3.043,3.614-3.043,6.23L30.3,136.075C30.299,136.523,29.918,136.887,29.448,136.887z"/>
<path d="M110.854,112.245c6.537,0,10.072,5.614,10.072,12.749c0,6.896-3.905,12.369-10.072,12.369
	c-6.414,0-9.909-5.615-9.909-12.606C100.945,117.716,104.481,112.245,110.854,112.245z M110.895,116.86
	c-3.248,0-3.453,4.423-3.453,7.183c0,2.759-0.041,8.657,3.413,8.657c3.413,0,3.576-4.757,3.576-7.657
	c0-1.903-0.082-4.187-0.658-5.995C113.279,117.479,112.292,116.86,110.895,116.86z"/>
<path d="M129.404,136.887h-4.388c-0.441-0.027-0.79-0.379-0.79-0.812l-0.008-22.613c0.037-0.414,0.402-0.738,0.847-0.738
	l4.085-0.001c0.385,0.02,0.701,0.282,0.783,0.633v3.458h0.082c1.233-3.093,2.959-4.567,6.002-4.567c1.974,0,3.906,0.713,5.141,2.665
	c1.15,1.807,1.15,4.851,1.15,7.039v14.226c-0.05,0.4-0.408,0.712-0.845,0.712h-4.415c-0.408-0.025-0.736-0.326-0.783-0.712v-12.273
	c0-2.474,0.287-6.09-2.754-6.09c-1.07,0-2.058,0.714-2.551,1.807c-0.617,1.381-0.699,2.76-0.699,4.283v12.172
	C130.255,136.523,129.874,136.887,129.404,136.887z"/>
<path fill="#FF9900" d="M162.721,136.896l-10.263-12.441h-0.05v12.441h-3.691v-35.809h3.691v20.331h0.05l8.797-8.446h4.802
	l-10.515,9.762l11.88,14.162H162.721z"/>
<path fill="#FF9900" d="M171.718,107.966c-1.415,0-2.577-1.163-2.577-2.579s1.162-2.579,2.577-2.579
	c1.416,0,2.578,1.163,2.578,2.579S173.134,107.966,171.718,107.966z M169.896,136.896v-23.923h3.69v23.923H169.896z"/>
<path fill="#FF9900" d="M194.328,136.896v-14.719c0-2.984-0.506-6.322-4.146-6.322c-2.933,0-5.611,2.073-7.431,3.643v17.397h-3.69
	v-23.923h3.032l0.507,2.883c2.629-2.022,5.207-3.489,8.543-3.489c3.438,0,6.875,2.479,6.875,8.446v16.083H194.328z"/>
<path fill="#FF9900" d="M214.296,137.4c-6.674,0-12.284-3.894-12.284-12.138c0-7.434,5.357-12.896,12.334-12.896
	c1.719,0,2.934,0.151,3.894,0.404v-11.683h3.69v34.595C220.463,136.542,217.684,137.4,214.296,137.4z M218.238,116.21
	c-0.961-0.354-1.819-0.606-3.69-0.606c-4.7,0-8.796,3.692-8.796,9.407c0,5.411,2.982,9.255,9.201,9.255
	c1.212,0,2.527-0.252,3.285-0.605V116.21z"/>
<path fill="#FF9900" d="M231.533,137.4c-2.934,0-4.196-1.871-4.196-4.399v-31.913h3.69v30.244c0,2.275,0.557,2.73,1.972,2.73
	c0.253,0,0.657,0,1.265-0.15l0.454,2.681C233.605,137.148,232.746,137.4,231.533,137.4z"/>
<path fill="#FF9900" d="M240.684,125.567c0,4.552,2.629,8.647,7.784,8.647c2.175,0,4.397-0.858,5.813-1.771l1.162,2.631
	c-1.77,1.214-4.803,2.326-7.432,2.326c-7.634,0-11.273-6.119-11.273-12.947c0-6.93,3.943-12.088,9.707-12.088
	c6.168,0,9.555,4.906,9.555,12.341c0,0.253,0,0.556,0,0.86L240.684,125.567L240.684,125.567z M246.496,115.502
	c-3.538,0-5.764,3.136-5.764,6.93h11.273C252.007,119.093,250.137,115.502,246.496,115.502z"/>
<path d="M78.56,132.745c-0.805-1.112-1.662-2.019-1.662-4.082v-6.861c0-2.908,0.207-5.578-1.937-7.581
	c-1.69-1.621-4.49-2.192-6.634-2.192c-4.192,0-8.869,1.564-9.85,6.743c-0.104,0.551,0.297,0.839,0.657,0.921l4.27,0.463
	c0.399-0.021,0.689-0.414,0.765-0.811c0.367-1.785,1.86-2.645,3.54-2.645c0.908,0,1.937,0.334,2.473,1.145
	c0.618,0.906,0.536,2.144,0.536,3.193v0.572c-2.555,0.286-5.893,0.477-8.282,1.526c-2.76,1.191-4.697,3.623-4.697,7.198
	c0,4.576,2.885,6.865,6.592,6.865c3.133,0,4.845-0.739,7.262-3.202c0.8,1.159,1.062,1.72,2.525,2.937
	c0.328,0.176,0.749,0.158,1.04-0.104l0.01,0.011c0.88-0.782,2.479-2.171,3.378-2.926C78.905,133.622,78.842,133.146,78.56,132.745z
	 M69.894,130.764c-0.7,1.238-1.813,2.002-3.049,2.002c-1.689,0-2.678-1.287-2.678-3.193c0-3.752,3.365-4.434,6.552-4.434v0.953
	C70.719,127.808,70.76,129.236,69.894,130.764z"/>
<path d="M19.159,128.663v-6.861c0-2.908,0.205-5.578-1.937-7.581c-1.69-1.621-4.491-2.192-6.634-2.192
	c-4.193,0-8.87,1.564-9.85,6.743c-0.105,0.551,0.297,0.839,0.657,0.921l4.269,0.463c0.4-0.021,0.69-0.414,0.766-0.811
	c0.366-1.785,1.86-2.645,3.54-2.645c0.907,0,1.937,0.334,2.473,1.145c0.618,0.906,0.535,2.144,0.535,3.193v0.572
	c-2.553,0.286-5.892,0.477-8.281,1.526C1.936,124.327,0,126.759,0,130.334c0,4.576,2.884,6.865,6.593,6.865
	c3.131,0,4.843-0.739,7.262-3.202c0.798,1.159,1.06,1.72,2.524,2.937c0.328,0.176,0.749,0.158,1.04-0.104l0.01,0.011
	c0.879-0.782,2.478-2.171,3.378-2.926c0.359-0.293,0.295-0.769,0.014-1.17C20.016,131.633,19.159,130.727,19.159,128.663z
	 M12.155,130.764c-0.699,1.238-1.812,2.002-3.049,2.002c-1.688,0-2.679-1.287-2.679-3.193c0-3.752,3.366-4.434,6.552-4.434v0.953
	C12.979,127.808,13.02,129.236,12.155,130.764z"/>
</svg>
