<svg version="1.1" id="Layer_1" xmlns="http://www.w3.org/2000/svg" xmlns:xlink="http://www.w3.org/1999/xlink" x="0px" y="0px"
	 width="256px" height="256px" viewBox="0 0 256 256" enable-background="new 0 0 256 256" xml:space="preserve">
<g>
	<g>
		<polygon fill="#B3BC35" points="177.134,153.445 187.254,153.445 187.254,79.418 177.134,79.418 177.134,153.445 		"/>
		<polygon fill="#B2BB35" points="200.409,128.405 222.164,103.501 210.002,103.504 187.258,128.498 211.816,153.445
			225.146,153.445 200.409,128.405 		"/>
	</g>
	<path fill="#7686C2" d="M143.269,102.5L143.269,102.5c-14.34,0-25.959,11.611-25.959,25.96c0,14.318,11.624,25.928,25.959,25.928
		c14.317,0,25.932-11.609,25.937-25.928C169.2,114.12,157.596,102.5,143.269,102.5 M143.269,144.273
		c-8.748-0.02-15.806-7.092-15.83-15.812c0.024-8.733,7.082-15.807,15.83-15.829c8.726,0.021,15.803,7.096,15.803,15.829
		C159.071,137.191,151.994,144.254,143.269,144.273"/>
	<path fill="#1A4822" d="M85.898,102.5c-14.33,0-25.939,11.621-25.939,25.94c0,14.332,11.609,25.954,25.939,25.954
		c14.326,0,25.936-11.622,25.936-25.954C111.834,114.122,100.225,102.5,85.898,102.5 M70.076,128.441
		c0.011-8.738,7.079-15.801,15.822-15.822c8.738,0.021,15.805,7.084,15.826,15.822c-0.021,8.733-7.088,15.799-15.826,15.815
		C77.155,144.24,70.087,137.174,70.076,128.441"/>
	<path fill="#429644" d="M41.781,128.143c-0.02-8.724-7.088-15.366-15.829-15.366c-8.581,0-15.823,6.825-15.823,15.346v25.276H0.014
		L0,127.653c0-13.242,11.938-25.001,25.952-25.001c14.009,0,25.935,11.74,25.935,25.001v25.747H41.781V128.143L41.781,128.143z"/>
	<g>
		<path fill="#7685C1" d="M120.063,166.23h1.283v5.223c0.408-0.32,1.265-1.059,2.641-1.059c2.34,0,3.66,2.008,3.66,4.145
			c0,2.73-1.728,4.531-4.498,4.531c-1.058,0-2.117-0.221-3.086-0.631V166.23z M121.347,177.603c0.949,0.338,1.746,0.338,1.915,0.338
			c1.746,0,3.065-1.396,3.065-3.288c0-1.787-1.152-3.125-2.602-3.125c-0.611,0-1.542,0.318-2.379,1.227V177.603z"/>
		<path fill="#7685C1" d="M130.106,183.18h-1.376l2.883-5.986l-3.384-6.633h1.393l2.66,5.261l2.509-5.261h1.393L130.106,183.18z"/>
		<path fill="#7685C1" d="M145.633,166.23c1.877,0,4.033,0.725,4.033,3.292c0,1.818-1.376,2.526-1.875,2.728
			c2.449,0.467,2.987,2.177,2.987,3.256c0,1.447-1.112,3.398-3.732,3.398h-4.591V166.23H145.633z M143.849,167.454v4.427h1.376
			c2.12,0,2.955-0.873,2.955-2.251c0-1.56-0.911-2.176-2.955-2.176H143.849z M143.849,173.105v4.575h2.248
			c2.73,0,3.198-1.21,3.198-2.289c0-1.058-0.71-2.286-3.235-2.286H143.849z"/>
		<path fill="#7685C1" d="M159.262,178.31c-1.043,0.743-1.432,0.761-1.656,0.761c-0.684,0-0.835-0.557-0.906-0.946
			c-1.045,0.78-1.692,0.946-2.438,0.946c-1.171,0-2.155-0.891-2.155-2.117c0-1.355,1.114-2.452,4.573-3.065v-0.743
			c0-0.539-0.094-1.617-1.656-1.617c-1.096,0-1.874,0.559-2.6,1.227v-1.337c0.406-0.354,1.354-1.022,2.711-1.022
			c2.381,0,2.824,1.672,2.824,2.619v4.571c0,0.355,0.038,0.446,0.226,0.446c0.165,0,0.576-0.188,1.077-0.596V178.31z
			 M156.68,174.723c-2.139,0.392-3.291,1.099-3.291,2.137c0,1.004,0.931,1.283,1.41,1.283c0.894,0,1.564-0.596,1.881-0.892V174.723z
			"/>
		<path fill="#7685C1" d="M162.055,170.561v1.842c0.225-0.354,0.707-1.079,1.396-1.547c0.166-0.107,0.704-0.461,1.263-0.461
			c0.8,0,1.674,0.723,1.988,0.982l-0.688,1.117c-0.279-0.244-0.893-0.783-1.617-0.783c-0.743,0-1.655,0.67-2.044,1.58
			c-0.298,0.669-0.298,1.584-0.298,2.01v3.604h-1.284v-8.344H162.055z"/>
		<path fill="#7685C1" d="M169.154,170.561v1.265c0.614-0.817,1.431-1.431,2.623-1.431c1.874,0,2.993,1.373,2.993,3.527v4.982
			h-1.285v-4.869c0-1.412-0.537-2.508-2.007-2.508c-0.481,0-1.544,0.148-2.324,1.467v5.91h-1.283v-8.344H169.154z"/>
		<path fill="#7685C1" d="M184.085,174.816h-6.19c0,2.008,1.393,3.124,2.993,3.124c1.634,0,2.66-0.839,3.066-1.173v1.299
			c-0.518,0.355-1.449,1.004-3.214,1.004c-2.788,0-4.164-2.117-4.164-4.366c0-2.897,1.931-4.31,3.83-4.31
			c2.062,0,3.679,1.691,3.679,4.124V174.816z M182.766,173.888c-0.185-1.802-1.414-2.36-2.322-2.36c-1.045,0-2.158,0.67-2.473,2.36
			H182.766z"/>
		<path fill="#7685C1" d="M190.652,172.381c-0.82-0.5-1.546-0.854-2.36-0.854c-0.855,0-1.413,0.5-1.413,1.078
			c0,0.666,0.572,0.946,2.564,1.989c0.443,0.24,1.524,0.835,1.524,2.138c0,0.834-0.669,2.338-2.751,2.338
			c-0.987,0-1.802-0.295-2.675-0.761v-1.321c1.371,0.84,2.248,0.952,2.691,0.952c0.652,0,1.416-0.411,1.416-1.116
			c0-0.8-0.764-1.19-1.859-1.71c-1.021-0.485-2.193-1.079-2.193-2.474c0-1.02,0.835-2.246,2.676-2.246
			c1.15,0,1.951,0.461,2.38,0.705V172.381z"/>
		<path fill="#7685C1" d="M207.773,178.904h-1.782l-1.693-1.856c-0.517,0.481-1.876,2.022-4.217,2.022
			c-1.653,0-3.218-1.227-3.218-3.027c0-1.598,1.285-2.898,3.068-3.793c-1.152-1.242-1.504-2.08-1.504-2.953
			c0-1.617,1.243-2.824,3.084-2.824c1.916,0,2.952,1.376,2.952,2.713c0,1.805-1.634,2.824-2.488,3.347l2.322,2.523
			c0.429-0.555,0.82-1.134,1.378-2.47h1.428c-0.405,1.17-1.019,2.344-1.895,3.475L207.773,178.904z M200.767,173.201
			c-2.339,1.486-2.415,2.08-2.415,2.728c0,0.987,0.705,1.825,1.95,1.825c1.414,0,2.288-0.873,3.104-1.693L200.767,173.201z
			 M203.146,169.262c0-0.729-0.519-1.565-1.67-1.565c-1.268,0-1.731,0.897-1.731,1.507c0,0.648,0.429,1.469,1.378,2.38
			C202.05,171.154,203.146,170.431,203.146,169.262z"/>
		<path fill="#7685C1" d="M224.718,178.904h-1.191l-9.05-10.442v10.442h-1.355V166.23h1.188l9.052,10.445V166.23h1.357V178.904z"/>
		<path fill="#7685C1" d="M235.113,174.723c0,2.398-1.951,4.348-4.349,4.348s-4.329-1.949-4.329-4.348
			c0-2.396,1.932-4.328,4.329-4.328S235.113,172.326,235.113,174.723z M227.754,174.723c0,1.768,1.281,3.218,3.028,3.218
			c1.749,0,3.014-1.45,3.014-3.218c0-1.764-1.265-3.195-3.014-3.195C229.035,171.527,227.754,172.959,227.754,174.723z"/>
		<path fill="#7685C1" d="M236.572,166.23h1.281v5.223c0.409-0.32,1.263-1.059,2.638-1.059c2.343,0,3.662,2.008,3.662,4.145
			c0,2.73-1.729,4.531-4.497,4.531c-1.061,0-2.118-0.221-3.084-0.631V166.23z M237.854,177.603c0.946,0.338,1.747,0.338,1.914,0.338
			c1.746,0,3.066-1.396,3.066-3.288c0-1.787-1.155-3.125-2.603-3.125c-0.616,0-1.542,0.318-2.378,1.227V177.603z"/>
		<path fill="#7685C1" d="M246.872,178.904h-1.283V166.23h1.283V178.904z"/>
		<g>
			<path fill="#7685C1" d="M256,174.816h-6.19c0,2.008,1.393,3.124,2.991,3.124c1.634,0,2.658-0.839,3.065-1.173v1.299
				c-0.521,0.355-1.446,1.004-3.213,1.004c-2.789,0-4.164-2.117-4.164-4.366c0-2.897,1.933-4.31,3.828-4.31
				c2.062,0,3.683,1.691,3.683,4.124V174.816z M254.677,173.888c-0.186-1.802-1.413-2.36-2.323-2.36c-1.04,0-2.153,0.67-2.472,2.36
				H254.677z"/>
		</g>
	</g>
	<g>
		<path fill="#B2BB35" d="M228.751,103.295c0.499,0,0.982,0.126,1.44,0.376c0.463,0.25,0.825,0.61,1.088,1.078
			s0.394,0.958,0.394,1.471c0,0.508-0.126,0.993-0.386,1.456c-0.258,0.463-0.619,0.822-1.083,1.08
			c-0.459,0.258-0.946,0.387-1.453,0.387c-0.511,0-0.997-0.128-1.457-0.387c-0.461-0.258-0.822-0.617-1.08-1.08
			c-0.261-0.463-0.389-0.948-0.389-1.456c0-0.512,0.132-1.002,0.396-1.471c0.263-0.468,0.624-0.828,1.085-1.078
			C227.77,103.421,228.248,103.295,228.751,103.295z M228.753,103.868c-0.401,0-0.786,0.102-1.159,0.303
			c-0.364,0.201-0.655,0.489-0.869,0.865c-0.213,0.379-0.318,0.772-0.318,1.185c0,0.409,0.104,0.799,0.311,1.172
			c0.207,0.372,0.499,0.661,0.868,0.87c0.371,0.209,0.764,0.313,1.168,0.313c0.412,0,0.8-0.104,1.169-0.313
			c0.373-0.208,0.661-0.498,0.871-0.87c0.208-0.373,0.312-0.763,0.312-1.172c0-0.413-0.105-0.806-0.319-1.185
			c-0.211-0.376-0.503-0.664-0.871-0.865C229.543,103.97,229.157,103.868,228.753,103.868z M227.428,107.785v-3.103h0.632
			c0.59,0,0.921,0.001,0.991,0.006c0.21,0.02,0.371,0.061,0.487,0.125c0.119,0.064,0.212,0.164,0.29,0.298
			c0.078,0.131,0.115,0.281,0.115,0.443c0,0.225-0.071,0.417-0.219,0.576c-0.147,0.157-0.354,0.257-0.616,0.295
			c0.095,0.036,0.167,0.075,0.217,0.116c0.055,0.044,0.122,0.123,0.211,0.239c0.024,0.032,0.1,0.158,0.229,0.378l0.366,0.626h-0.777
			l-0.263-0.503c-0.172-0.339-0.318-0.552-0.432-0.64c-0.117-0.086-0.26-0.13-0.438-0.13h-0.163v1.273H227.428z M228.06,106.021
			h0.254c0.364,0,0.594-0.014,0.679-0.042c0.089-0.029,0.157-0.076,0.207-0.146c0.051-0.072,0.076-0.15,0.076-0.239
			c0-0.088-0.025-0.164-0.072-0.23c-0.049-0.069-0.122-0.116-0.213-0.146c-0.094-0.03-0.314-0.045-0.677-0.045h-0.254V106.021z"/>
	</g>
</g>
</svg>
