<svg version="1.1" id="Layer_1" xmlns="http://www.w3.org/2000/svg" xmlns:xlink="http://www.w3.org/1999/xlink" x="0px" y="0px"
	 width="256px" height="256px" viewBox="0 0 256 256" enable-background="new 0 0 256 256" xml:space="preserve">
<path fill-rule="evenodd" clip-rule="evenodd" d="M0.68,93.711c2.667-5.217,7.291-8.073,12.443-10.271
	c9.654-4.121,19.845-6.229,30.132-7.948c21.438-3.582,43.026-4.37,64.69-3.165c13.127,0.73,26.272,1.685,38.83,6.022
	c4.307,1.487,8.609,3.258,12.518,5.569c10.254,6.062,11.242,16.408,2.609,24.655c-4.648,4.44-10.327,7.172-16.254,9.394
	c-13.779,5.167-28.098,8.115-42.709,9.264c-10.612,0.834-21.298,1.071-31.945,0.964c-6.023-0.06-12.048-1.251-18.043-2.124
	c-3.692-0.538-3.774-0.616-3.701,3.232c0.072,3.814,0.401,7.641,0.183,11.437c-0.203,3.528-0.94,7.03-1.519,10.531
	c-0.316,1.914-1.778,2.144-3.354,1.928c-2.751-0.376-4.571-2.204-5.55-4.527c-1.62-3.844-3.229-7.773-4.128-11.826
	c-2.521-11.353-3.475-22.899-3.413-34.531c0.027-4.979,1.481-9.462,4.817-13.873c-10.079,2.244-20.162,2.552-28.555,8.371
	c-0.006,0.353-0.012,0.706-0.017,1.059c2.827,0.943,5.618,2.019,8.491,2.792c3.071,0.826,6.24,1.28,9.322,2.072
	c1.268,0.326,2.983,0.633,2.758,2.568c-0.224,1.929-1.671,2.322-3.395,2.452c-7.177,0.545-13.712-1.505-19.789-5.049
	c-1.727-1.007-2.961-2.858-4.421-4.323C0.68,96.826,0.68,95.269,0.68,93.711z M51.648,88.176c-0.277,3-0.624,5.781-0.774,8.572
	c-0.359,6.676-0.673,13.356-0.86,20.039c-0.02,0.715,0.783,1.919,1.439,2.116c8.132,2.442,16.352,4.347,24.944,4.285
	c13.557-0.098,27.064-0.795,40.469-2.883c11.948-1.86,23.658-4.653,34.453-10.306c3.198-1.675,6.231-3.814,8.977-6.165
	c2.326-1.992,2.101-4.476-0.345-6.38c-1.748-1.361-3.774-2.506-5.852-3.28c-9.445-3.519-19.264-5.73-29.28-6.409
	c-15.132-1.026-30.301-1.553-45.461-2.106C70.086,85.321,60.873,86.091,51.648,88.176z M121.661,186.199
	c-3.61-0.452-7.238-0.803-10.826-1.392c-2.36-0.387-4.664-1.117-6.789-1.643c-0.637,0.794-1.269,1.582-1.901,2.37
	c-1.082-0.881-2.73-1.561-3.13-2.684c-0.873-2.45-1.282-5.107-1.558-7.714c-0.286-2.698-0.255-5.437-0.23-8.156
	c0.009-1.017,0.394-2.029,0.636-3.178c-3.028-0.491-5.915,0.467-8.676,2.185c-0.617,0.384-1.511,0.321-2.278,0.465
	c0.252-0.881,0.227-2.189,0.807-2.565c1.797-1.166,3.732-2.422,5.779-2.845c5.988-1.234,12.03-2.683,18.098-2.939
	c8.896-0.376,17.897-0.594,26.626,1.935c1.256,0.363,2.521,0.836,3.643,1.494c2.697,1.583,2.779,3.938,0.222,5.707
	c-1.378,0.953-2.877,1.733-4.558,2.732c3.332,0.941,6.371,1.711,9.35,2.67c2.009,0.646,4.176,1.497,4.381,3.973
	c0.208,2.506-1.393,4.189-3.446,5.404c-4.262,2.52-9.017,3.227-13.831,3.714c-1.305,0.132-2.606,0.311-3.91,0.467
	C127.266,186.199,124.463,186.199,121.661,186.199z M141.962,164.646c-0.726-0.216-1.136-0.38-1.562-0.458
	c-11.715-2.161-23.516-1.799-35.327-1.215c-1.197,0.059-1.587,0.604-1.581,1.756c0.022,4.509,0.02,9.019-0.053,13.526
	c-0.025,1.521,0.622,1.996,2.063,2.051c5.978,0.229,11.951,0.681,17.93,0.788c7.472,0.134,14.932-0.244,22.164-2.352
	c1.305-0.38,2.395-1.491,3.583-2.266c-1.061-0.798-2.024-1.793-3.197-2.36c-6.545-3.169-13.421-2.535-20.349-1.745
	c-4.855,0.555-9.749,0.867-14.634,1.008c-1.402,0.041-2.832-0.891-4.25-1.377c0.053-0.328,0.105-0.656,0.158-0.984
	c2.029-0.395,4.046-1.04,6.089-1.136c5.973-0.279,11.961-0.228,17.932-0.524C135.002,169.154,138.789,167.974,141.962,164.646z
	 M144.346,143.038c-0.805,2.899-2.077,3.183-4.27,1.047c-2.055-2.001-3.812-4.303-5.774-6.403
	c-4.011-4.295-6.943-4.305-10.974-0.043c-2.185,2.31-4.294,4.69-6.422,7.022c-0.247-0.157-0.41-0.21-0.495-0.323
	c-1.363-1.796-2.582-3.724-4.11-5.363c-1.351-1.449-2.875-2.922-4.619-3.78c-3.741-1.841-7.357-0.216-8.284,3.496
	c3.559,1.119,5.617,3.875,7.42,6.946c0.862,1.468,1.821,2.91,2.936,4.191c2.037,2.343,4.114,2.638,6.524,0.697
	c1.858-1.496,3.385-3.402,5.064-5.122c1.53-1.567,3.065-3.129,4.721-4.819c0.917,1.268,1.506,2.08,2.095,2.894
	c1.412,1.953,2.713,4,4.26,5.84c2.701,3.214,6.281,3.984,9.025,1.8c4.222-3.359,7.334-7.629,8.894-12.83
	c0.352-1.175,0.223-3.134-0.525-3.832c-0.887-0.826-2.682-0.679-3.709-0.881C145.461,137.153,145.145,140.162,144.346,143.038z
	 M79.73,133.343c4.481-0.044,8.504,0.57,12.042,3.044c1.252,0.876,2.209,1.805,1.875,3.627c-0.185,1.012,0.188,2.145,0.402,3.204
	c0.487,2.414-0.213,4.382-2.35,5.589c-7.67,4.335-15.623,4.809-23.682,1.239c-2.683-1.188-3.278-2.804-2.854-5.693
	c0.214-1.458,0.688-2.929,0.605-4.369c-0.135-2.34,1.324-3.29,3.004-4.186C72.29,133.924,76.071,133.24,79.73,133.343z
	 M89.656,143.574c-0.071-0.236-0.142-0.474-0.213-0.71c-2.434-0.438-4.856-1.145-7.303-1.249c-3.693-0.157-7.406,0.062-11.104,0.244
	c-0.532,0.026-1.429,0.729-1.443,1.144c-0.018,0.52,0.608,1.191,1.125,1.565c0.54,0.391,1.276,0.696,1.933,0.708
	c4.388,0.079,8.783,0.205,13.162,0.006C87.116,145.223,88.376,144.172,89.656,143.574z M202.003,116.776
	c-0.075,8.609-0.071,17.219-0.005,25.829c0.07,9.19,4.498,11.949,12.722,8.012c0.21-0.101,0.487-0.159,0.607-0.327
	c0.28-0.391,0.677-0.833,0.685-1.26c0.033-2.053-1.449-2.132-2.912-1.984c-1.997,0.202-2.537-0.567-2.372-2.548
	c0.662-7.972,1.185-15.956,1.717-23.938c0.048-0.735,0.04-1.652-0.343-2.208c-2.128-3.081-4.711-5.579-9.195-5.946
	C202.574,113.941,202.015,115.356,202.003,116.776z M184.485,135.523c0,2.562-0.155,5.135,0.028,7.683
	c0.648,8.995,4.436,11.196,12.58,7.431c0.141-0.065,0.332-0.093,0.414-0.201c0.377-0.497,1.078-1.08,1-1.514
	c-0.115-0.649-0.691-1.325-1.253-1.75c-0.358-0.271-1.057-0.204-1.58-0.131c-2.144,0.302-2.699-0.657-2.524-2.678
	c0.615-7.118,1.064-14.251,1.674-21.37c0.423-4.952-2.604-9.141-7.497-10.323c-1.331-0.321-2.099-0.177-2.319,1.285
	c-0.23,1.528-0.694,3.047-0.717,4.576c-0.088,5.663-0.035,11.329-0.035,16.994C184.332,135.524,184.408,135.524,184.485,135.523z
	 M164.336,146.999c5.338-0.647,10.676-1.296,16.098-1.954c0.887,1.969,0.473,3.266-1.933,4.577
	c-4.446,2.424-9.315,2.78-14.249,2.653c-1.16-0.029-2.337-0.134-3.471-0.37c-5.032-1.049-8.078-5.692-6.773-10.678
	c0.313-1.194,1.471-2.451,2.578-3.104c5.312-3.133,11.104-4.823,17.298-4.645c1.365,0.039,2.851,0.78,4.021,1.578
	c2.185,1.486,2.44,3.969,0.433,5.736c-1.455,1.282-3.324,2.274-5.178,2.886c-2.91,0.961-5.962,1.492-8.953,2.205
	C164.25,146.256,164.293,146.628,164.336,146.999z M161.256,142.3c4.098-0.32,7.787-1.201,11.248-3.991
	C166.47,137.487,162.878,138.769,161.256,142.3z M236.6,139.827c5.354-1.804,10.709-3.672,16.382-1.021
	c1.79,0.835,2.519-0.546,3.001-1.646c0.256-0.583-0.23-2.053-0.785-2.341c-5.191-2.692-15.566-1.137-19.782,2.985
	c-0.85,0.83-1.729,2.396-1.491,3.347c0.219,0.883,1.855,1.843,2.97,1.991c3.223,0.429,6.497,0.445,9.75,0.662
	c2.132,0.142,4.261,0.348,6.392,0.525c0.014,0.231,0.025,0.463,0.039,0.694c-1.145,0.337-2.271,0.879-3.436,0.975
	c-4.717,0.386-9.447,0.61-14.168,0.957c-0.771,0.057-2.136,0.367-2.165,0.666c-0.091,0.911,0.06,2.125,0.632,2.755
	c0.719,0.795,1.907,1.489,2.961,1.603c5.322,0.576,10.562,0.182,15.484-2.179c2.135-1.023,3.643-2.639,4.145-5.03
	c0.517-2.466-0.254-4.146-2.689-4.578c-2.635-0.466-5.383-0.548-8.063-0.426c-3.037,0.139-6.058,0.689-9.084,1.062
	C236.66,140.494,236.629,140.16,236.6,139.827z M203.738,165.694c-0.072-1.525-0.729-3.144-1.544-4.458
	c-0.373-0.601-1.786-0.795-2.685-0.711c-0.348,0.033-0.793,1.338-0.818,2.076c-0.08,2.407-0.062,4.824,0.059,7.23
	c0.178,3.569,0.367,7.146,0.813,10.687c0.094,0.747,1.317,1.352,2.02,2.022c0.452-0.647,0.968-1.262,1.338-1.954
	c0.265-0.497,0.335-1.098,0.505-1.692c2.709,0.988,5.162,1.962,7.668,2.776c2.908,0.945,5.85,1.015,8.549-0.621
	c0.668-0.404,0.974-1.408,1.446-2.137c-0.685-0.221-1.354-0.521-2.055-0.65c-4.231-0.787-8.47-1.534-12.705-2.295
	c-0.015-0.25-0.028-0.5-0.043-0.75c2.001-1.72,4.003-3.44,6.345-5.454c-4.54-0.675-6.279,2.697-9.241,4.942
	C203.547,171.387,203.875,168.529,203.738,165.694z M185.935,183.015c-1.517-0.207-2.44-0.305-3.353-0.463
	c-4.902-0.849-6.264-3.259-4.315-7.747c0.218-0.5,0.821-0.917,1.343-1.185c3.959-2.026,7.99-1.986,12.117-0.458
	c2.637,0.978,2.308,3.343,2.246,5.231c-0.033,1.046-1.299,2.477-2.365,2.974C189.688,182.264,187.502,182.589,185.935,183.015z
	 M191.454,177.488c-3.931-0.704-7.546-1.539-11.331-0.244C181.979,179.793,188.515,179.952,191.454,177.488z M164.914,171.846
	c2.014,0.345,3.418,0.462,4.75,0.837c2.943,0.831,3.641,1.884,3.789,5.454c0.1,2.413-1.791,3.098-3.527,3.741
	c-3.47,1.289-7.045,1.445-10.461-0.035c-1.023-0.442-2.367-1.829-2.319-2.716c0.104-1.913-0.616-4.496,1.887-5.526
	C161.074,172.761,163.279,172.319,164.914,171.846z M159.453,177.292c2.123,2.613,9.256,2.629,11.037,0.151
	C166.836,176.767,163.223,175.917,159.453,177.292z M226.975,182.567c3.115-0.269,6.217-0.812,9.282-1.447
	c0.688-0.144,1.353-1.032,1.773-1.73c1.168-1.94,0.478-3.646-1.763-3.898c-1.969-0.221-4,0.064-6.001,0.157
	c-1.064,0.049-2.126,0.163-3.189,0.249c2.753-1.615,5.615-2.546,8.623-1.338c1.79,0.718,2.396-0.014,2.688-1.554
	c-3.221-2.754-10.454-0.832-12.609,1.334c-1.362,1.37-1.064,2.627,0.861,2.959c2.125,0.367,4.319,0.335,6.482,0.504
	c0.999,0.078,1.994,0.22,2.99,0.333c-0.004,0.276-0.009,0.553-0.014,0.829c-3.748,0.301-7.496,0.601-11.443,0.917
	C224.543,181.715,225.58,182.688,226.975,182.567z M227.475,114.696c0.974,0,2.078,0.301,2.898-0.055
	c2.807-1.217,3.849-3.833,4.133-6.586c0.236-2.291-1.197-4.007-3.275-4.916c-2.475-1.081-5.017-1.23-7.27,0.561
	c-2.547,2.022-2.085,4.76,0.952,5.855c1.517,0.547,3.085,0.952,4.989,1.531c-0.949,1.125-1.674,1.984-2.398,2.844
	C227.494,114.186,227.484,114.441,227.475,114.696z"/>
</svg>
