<svg version="1.1" id="Layer_1" xmlns="http://www.w3.org/2000/svg" xmlns:xlink="http://www.w3.org/1999/xlink" x="0px" y="0px"
	 width="256px" height="256px" viewBox="0 0 256 256" enable-background="new 0 0 256 256" xml:space="preserve">
<g>
	<path fill="#42695B" d="M6.277,102.205v10.436h1.606c1.7,0,2.03-1.511,2.03-4.626c0-4.25-0.426-5.809-2.502-5.809H6.277
		 M6.277,117.172v12.794h1.654c1.936,0,2.455-1.178,2.455-6.704c0-4.012-0.473-6.091-2.551-6.091H6.277z M17.137,123.97
		c0,7.508-3.351,10.246-9.017,10.246H0V97.958h8.167c6.279,0,7.932,3.776,7.932,9.96c0,4.438-1.604,6.846-4.484,6.988
		C14.731,114.906,17.137,118.068,17.137,123.97z"/>
	<path fill="#42695B" d="M47.626,102.442v10.623h1.981c1.7,0,2.22-1.087,2.22-4.486c0-5.288-0.991-6.137-2.974-6.137H47.626
		 M53.103,115.615c4.056,1.224,4.531,6.011,4.531,10.405c0,3.408,0.115,6.426,0.567,8.196h-6.609
		c-0.189-1.323-0.472-2.112-0.472-5.377c0-1.416,0-2.86,0-4.655c0-2.886-0.979-5.049-3.046-5.593h-0.448v15.626H41.11V97.958h9.678
		c4.533,0,7.603,2.644,7.603,9.205C58.391,112.876,55.912,115.33,53.103,115.615z"/>
	<path fill="#42695B" d="M69.487,114.434c0.281,4.862,0.332,6.279,0.332,10.528c0,2.785,0,9.254,0,9.254h-5.996V97.958h5.945
		c0,0,2.834,10.622,3.448,12.888c0.615,2.313,1.086,4.202,1.37,5.76c-0.189-3.541-0.237-7.932-0.237-11.567c0-2.787,0-7.081,0-7.081
		h5.808v36.258h-5.334c0,0-3.258-11.188-3.92-13.407C70.384,119.108,69.959,117.126,69.487,114.434"/>
	<polyline fill="#42695B" points="92.337,128.789 100.221,128.789 100.221,134.216 85.962,134.216 85.962,97.958 99.229,97.958
		99.229,103.386 92.337,103.386 92.337,113.206 98.428,113.206 98.428,118.259 92.337,118.259 92.337,128.789 	"/>
	<path fill="#42695B" d="M109.748,125.854c0,4.06,0.851,4.679,2.314,4.679c1.135,0,2.012-0.664,2.012-4.679
		c0-3.596-2.402-6.17-5.118-9.438c-2.455-2.954-5.21-7.001-5.21-10.43c0-5.41,2.462-8.596,7.608-8.596
		c5.052,0,7.696,2.786,7.696,8.121c0,1.274-0.235,2.175-0.472,2.93h-5.389c0.095-0.566,0.146-1.465,0.146-2.551
		c0-3.447-0.377-4.485-1.889-4.485c-1.416,0-1.65,1.368-1.65,3.965c0,3.271,2.621,5.872,4.715,8.56
		c3.079,3.957,5.563,7.106,5.563,10.795c0,5.9-2.488,10.246-8.06,10.246c-4.957,0-8.205-2.705-8.205-8.983
		c0-1.462,0.051-2.662,0.428-3.937l5.803-0.033C109.854,123.435,109.748,124.297,109.748,125.854"/>
	<path fill="#42695B" d="M164.688,114.434c0.284,4.862,0.329,6.279,0.329,10.528c0,2.785,0,9.254,0,9.254h-5.993V97.958h5.948
		c0,0,2.831,10.622,3.445,12.888c0.615,2.313,1.085,4.202,1.37,5.76c-0.19-3.541-0.237-7.932-0.237-11.567c0-2.787,0-7.081,0-7.081
		h5.808v36.258h-5.336c0,0-3.257-11.188-3.919-13.407C165.586,119.108,165.16,117.126,164.688,114.434"/>
	<path fill="#42695B" d="M190.558,116.133c0-5.711,0-9.206-0.235-11.803c-0.189-2.643-0.614-3.163-1.557-3.163
		c-1.039,0-1.464,0.52-1.701,3.163c-0.188,2.55-0.142,6.138-0.142,11.803c0,6.61-0.047,9.16,0.142,11.709
		c0.237,2.784,0.616,3.069,1.701,3.069c0.991,0,1.321-0.238,1.557-3.069C190.512,125.246,190.558,122.744,190.558,116.133
		 M197.262,116.133c0,15.626-2.548,18.837-8.496,18.837c-5.524,0-8.499-2.407-8.499-18.837c0-15.91,2.312-18.744,8.499-18.744
		C194.949,97.39,197.262,100.224,197.262,116.133z"/>
	<path fill="#42695B" d="M208.441,102.205v10.436h1.605c1.7,0,2.03-1.511,2.03-4.626c0-4.25-0.424-5.809-2.503-5.809H208.441
		 M208.441,117.172v12.794h1.652c1.938,0,2.456-1.178,2.456-6.704c0-4.012-0.473-6.091-2.55-6.091H208.441z M219.3,123.97
		c0,7.508-3.352,10.246-9.018,10.246h-8.119V97.958h8.167c6.279,0,7.932,3.776,7.932,9.96c0,4.438-1.605,6.846-4.485,6.988
		C216.892,114.906,219.3,118.068,219.3,123.97z"/>
	<polyline fill="#42695B" points="230.53,128.789 238.226,128.789 238.226,134.216 223.92,134.216 223.92,97.958 230.53,97.958
		230.53,128.789 	"/>
	<polyline fill="#42695B" points="248.113,128.789 256,128.789 256,134.216 241.741,134.216 241.741,97.958 255.009,97.958
		255.009,103.386 248.113,103.386 248.113,113.206 254.205,113.206 254.205,118.259 248.113,118.259 248.113,128.789 	"/>
	<path fill="#42695B" d="M26.256,124.381h3.304c0,0-0.501-4.205-0.783-6.942c-0.188-1.699-0.854-6.993-1.042-10.484
		c-0.095,3.586-0.666,8.832-0.806,10.484C26.691,120.176,26.256,124.381,26.256,124.381 M19.57,134.246l5.284-36.519h6.229
		l6.228,36.519h-6.748l-0.659-5.849h-4.06l-0.66,5.849H19.57z"/>
	<path fill="#C75C1A" d="M34.006,152.104h1.264c1.69,0,2.481-1.081,2.481-2.411c0-1.308-0.791-2.437-2.481-2.437h-1.264V152.104
		 M38.878,155.938c0-1.533-0.926-2.82-2.864-2.82h-2.008v3.137c0,2.142,0.294,2.502,2.166,2.502h-0.158
		C37.952,158.756,38.878,157.494,38.878,155.938z M41.899,155.982c0,2.098-1.76,3.787-4.555,3.787h-8.298v-0.651
		c1.87,0,2.143-0.384,2.143-2.64v-6.945c0-2.254-0.272-2.638-2.143-2.638v-0.652h7.667c2.479,0,4.058,1.51,4.058,3.38
		c0,1.174-0.608,2.189-1.667,2.798C40.862,152.961,41.899,154.359,41.899,155.982z"/>
	<path fill="#C75C1A" d="M53.995,146.939c-3.202,0-4.51,3.34-4.51,6.066c0,2.729,1.308,6.065,4.51,6.065
		c3.178,0,4.486-3.337,4.486-6.065C58.481,150.279,57.173,146.939,53.995,146.939 M53.995,160.155c-4.148,0-7.532-3.226-7.532-7.149
		s3.384-7.147,7.532-7.147c4.126,0,7.511,3.224,7.511,7.147S58.121,160.155,53.995,160.155z"/>
	<path fill="#C75C1A" d="M74.171,146.939c-3.2,0-4.508,3.34-4.508,6.066c0,2.729,1.308,6.065,4.508,6.065
		c3.18,0,4.487-3.337,4.487-6.065C78.658,150.279,77.351,146.939,74.171,146.939 M74.171,160.155c-4.148,0-7.53-3.226-7.53-7.149
		s3.382-7.147,7.53-7.147c4.128,0,7.51,3.224,7.51,7.147S78.299,160.155,74.171,160.155z"/>
	<path fill="#C75C1A" d="M100.57,157.787c0.769,0.789,2.301,1.331,2.91,1.331v0.651h-7.486v-0.651c1.172,0,1.714-0.407,0.834-1.331
		l-4.441-4.826l-0.968,0.788v2.729c0,2.256,0.291,2.64,2.162,2.64v0.651h-7.125v-0.651c1.873,0,2.142-0.384,2.142-2.64v-6.945
		c0-2.254-0.269-2.638-2.142-2.638v-0.652h7.125v0.652c-1.871,0-2.162,0.384-2.162,2.638v3.022l4.733-3.81
		c0.563-0.474,1.96-1.851,0.092-1.851v-0.652h5.433v0.652c-1.894,0-2.685,0.678-4.148,1.851l-3.201,2.57L100.57,157.787"/>
	<path fill="#C75C1A" d="M109.191,160.155h-0.654v-4.962h0.654c0.45,2.412,2.322,3.945,4.171,3.945c1.308,0,2.255-0.743,2.255-2.231
		c0-0.812-0.609-1.735-1.668-2.276l-2.165-1.129c-1.894-0.969-3.044-2.029-3.044-4.262c0-1.849,1.736-3.382,3.923-3.382
		c1.331,0,2.075,0.427,2.751,0.925c0.271-0.225,0.542-0.563,0.654-1.037h0.631v4.961h-0.653c-0.157-1.805-0.879-3.855-3.247-3.855
		c-0.925,0-1.827,0.676-1.827,1.805c0,0.676,0.587,1.688,1.805,2.299l2.164,1.104c1.603,0.835,2.91,2.211,2.91,3.992
		c0,2.457-2.165,4.104-4.488,4.104c-1.713,0-2.795-0.902-3.517-1.061C109.574,159.32,109.303,159.658,109.191,160.155"/>
	<path fill="#C75C1A" d="M124.034,159.118c1.872,0,2.142-0.384,2.142-2.64v-6.945c0-2.254-0.27-2.638-2.142-2.638v-0.652h11.611
		l0.18,3.179h-0.652l-0.113-0.45c-0.316-1.195-0.541-1.716-2.616-1.716h-3.45v4.848h1.241c2.253,0,2.615-0.291,2.615-2.165h0.654
		v5.344h-0.654c0-1.894-0.362-2.165-2.615-2.165h-1.241v3.002c0,2.254,0.294,2.637,2.165,2.637h2.029
		c2.074,0,2.321-0.519,2.616-1.713l0.112-0.451h0.655l-0.181,3.178h-12.356V159.118"/>
	<path fill="#C75C1A" d="M142.986,146.896v-0.652h7.125v0.652c-1.871,0-2.164,0.384-2.164,2.638v6.586
		c0,2.254,0.293,2.637,2.164,2.637h2.593c2.075,0,2.321-0.519,2.616-1.713l0.113-0.451h0.653l-0.181,3.178h-12.92v-0.651
		c1.872,0,2.143-0.384,2.143-2.64v-6.945C145.129,147.279,144.858,146.896,142.986,146.896"/>
	<path fill="#C75C1A" d="M161.775,146.896v-0.652h7.123v0.652c-1.87,0-2.161,0.384-2.161,2.638v6.586
		c0,2.254,0.291,2.637,2.161,2.637h2.595c2.074,0,2.322-0.519,2.616-1.713l0.112-0.451h0.652l-0.179,3.178h-12.92v-0.651
		c1.87,0,2.141-0.384,2.141-2.64v-6.945C163.916,147.279,163.646,146.896,161.775,146.896"/>
	<path fill="#C75C1A" d="M180.562,159.118c1.872,0,2.143-0.384,2.143-2.64v-6.945c0-2.254-0.271-2.638-2.143-2.638v-0.652h11.612
		l0.182,3.179h-0.655l-0.113-0.45c-0.316-1.195-0.54-1.716-2.615-1.716h-3.449v4.848h1.24c2.255,0,2.614-0.291,2.614-2.165h0.655
		v5.344h-0.655c0-1.894-0.359-2.165-2.614-2.165h-1.24v3.002c0,2.254,0.293,2.637,2.163,2.637h2.031
		c2.075,0,2.323-0.519,2.614-1.713l0.114-0.451h0.652l-0.179,3.178h-12.357V159.118"/>
	<path fill="#C75C1A" d="M208.603,150.054c0-1.534-0.925-2.798-2.886-2.798h-1.241v5.57h1.241
		C207.678,152.826,208.603,151.587,208.603,150.054 M209.82,156.229c1.984,2.189,2.842,2.708,4.215,2.89v0.651h-4.891l-4.015-5.93
		h-0.654v2.639c0,2.256,0.294,2.64,2.164,2.64v0.651h-7.123v-0.651c1.872,0,2.141-0.384,2.141-2.64v-6.945
		c0-2.254-0.269-2.638-2.141-2.638v-0.652h7.554c2.795,0,4.554,1.714,4.554,3.811c0,1.96-1.533,3.562-3.991,3.786L209.82,156.229z"
		/>
	<path fill="#C75C1A" d="M220.221,160.155h-0.656v-4.962h0.656c0.448,2.412,2.32,3.945,4.169,3.945c1.309,0,2.255-0.743,2.255-2.231
		c0-0.812-0.606-1.735-1.668-2.276l-2.165-1.129c-1.896-0.969-3.044-2.029-3.044-4.262c0-1.849,1.737-3.382,3.923-3.382
		c1.333,0,2.074,0.427,2.75,0.925c0.271-0.225,0.544-0.563,0.654-1.037h0.632v4.961h-0.652c-0.158-1.805-0.881-3.855-3.25-3.855
		c-0.923,0-1.824,0.676-1.824,1.805c0,0.676,0.587,1.688,1.804,2.299l2.165,1.104c1.601,0.835,2.909,2.211,2.909,3.992
		c0,2.457-2.166,4.104-4.488,4.104c-1.714,0-2.796-0.902-3.516-1.061C220.601,159.32,220.33,159.658,220.221,160.155"/>
	<path fill="#C75C1A" d="M134.209,133.146c-5.016,0-6.896-4.201-6.332-7.523c0.689-3.948,2.517-6.426,4.96-8.621
		c1.759,4.252,4.034,8.753,7.28,13.279C138.423,132.287,136.717,133.146,134.209,133.146 M135.088,103.868
		c0.437-2.569,2.632-5.327,6.017-5.327c2.636,0,4.388,2.005,3.823,5.077c-0.186,1.191-0.516,2.244-1.702,3.729
		c-1.185,1.483-5.45,4.125-7.495,5.208C134.81,109.562,134.569,106.809,135.088,103.868z M151.325,115.279
		c-2.508,0-4.391,1.692-5.518,4.014c-1.13,2.57-2.384,5.516-3.198,7.146c-2.801-4.768-4.905-8.572-6.219-11.978
		c2.176-1.216,5.949-3.066,8.104-5.029c2.153-1.965,3.192-3.806,3.568-5.938c0.69-4.075-1.63-7.648-6.771-7.648
		c-4.326,0-9.466,3.385-10.468,9.027c-0.503,2.884,0.145,6.589,1.193,9.638c-3.89,2.633-7.274,5.535-8.153,10.11
		c-1.256,7.524,3.448,10.97,8.776,10.97c3.637,0,6.412-1.621,8.607-4.128c1.67,1.918,3.806,4.128,6.438,4.128
		c2.133,0,4.389-1.378,6.144-3.634l-0.754-1.067c-1.628,1.568-2.881,2.193-3.822,2.193c-1.691,0-3.447-1.504-4.952-3.886
		c-0.188-0.374-0.439-0.751-0.627-1.128c1.002-1.943,1.756-4.075,2.631-5.955c1.632-3.637,2.635-4.828,4.14-4.828
		c2.508,0,0.502,4.201,3.197,4.201c1.255,0,1.88-1.066,2.068-2.069C155.964,117.912,154.898,115.279,151.325,115.279z"/>
	<path fill="#FFFFFF" d="M133.92,102.563c0,0-3.443,5.239,1.366,15.861c3.945,8.709,8.667,13.628,8.667,13.628
		s-4.786-6.56-8.018-14.336C132.001,108.236,133.92,102.563,133.92,102.563"/>
</g>
</svg>
