<svg version="1.1" id="Layer_1" xmlns="http://www.w3.org/2000/svg" xmlns:xlink="http://www.w3.org/1999/xlink" x="0px" y="0px"
	 width="256px" height="256px" viewBox="0 0 256 256" enable-background="new 0 0 256 256" xml:space="preserve">
<g>
	<path d="M203.318,150.549c0.627,2.067-2.416,2.213-0.924,4.386c2.01-0.24,1.002-2.752,2.631-3.274
		c-0.291-1.289,0.654-1.66,0.576-2.793C204.672,149.301,204.061,149.969,203.318,150.549"/>
	<path d="M212.002,139.447c-1.092-0.114-1.242,1.107-0.725,1.66C212.076,140.978,212.279,140.398,212.002,139.447"/>
	<path d="M201.256,160.516c0.043,0.256-0.035,0.418-0.109,0.596c0.434,0.35,0.811-0.109,0.889-0.518
		C201.768,160.574,201.627,160.375,201.256,160.516"/>
	<path d="M205.49,146.758c-0.365,0.559-0.26,1.264,0.246,1.702c1.211-0.095,1.691-0.757,1.682-1.786
		C206.932,146.173,206.498,146.763,205.49,146.758"/>
	<path d="M222.09,89.077C224.529,89.003,221.793,86.957,222.09,89.077"/>
	<path d="M207.664,145.677c0.949-0.021,1.43-0.397,1.164-1.321C208.039,144.084,207.271,144.575,207.664,145.677"/>
	<path fill="#EE301F" d="M239.545,127.621c0.387-1.514,0.648-3.123,1.738-4.12c-0.047-0.919-1.342-0.167-1.158-1.384
		c0.596-0.12,0.846,0.219,1.541-0.021c0.391-1.566,0.846-3.102,1.486-4.469c-0.119-0.663-0.662-0.773-0.777-1.436
		c0.266-0.642,0.705-1.159,1.545-1.384l-0.219-1.514c1.875-3.106,2.674-7.028,3.479-10.934c-0.764-1.133,0.506-2.005-0.236-3.06
		c1.176-1.196,2.33-2.888,1.035-4.992c1.074-0.439,0.234-2.308,0.709-3.196c-0.752-3.457-2.402-6.051-3.102-9.618
		c-0.693-0.204-1.498-0.261-2.035-0.679c0.416-0.313,0.934-0.543,0.574-1.436c-1.891-0.721-4.57-0.381-6.199-1.446
		c-1.863,1.243-4.693,0.846-6.996,1.18c-0.109,2.24-2.762,2.558-3.441,4.37c-0.162-0.245-0.459-0.303-0.818-0.277
		c-0.225,0.277,0.057,0.935-0.43,1.023c-0.715,0.125-0.693-0.731-1.602-0.35c-0.393,1.279-1.797,1.812-1.85,3.357
		c1.875,0.621,2.764-2.141,5.098-2.271c0.271-0.365,0.297-0.914,0.605-1.248c2.672-1.07,4.5-2.689,7.482-3.18
		c9.199-1.541,9.926,8.772,8.285,16.228c-0.814-2.595-3.947-2.511-5.055-0.245c-0.656-0.193-1.361-0.292-2.172-0.282
		c-1.127,1.248-3.314,1.692-3.775,3.446c-2.49,0.82-3.352,2.887-5.199,4.214c-0.643,0.172-1.07,0.083-1.541,0.031
		c-1.221,2.47-3.666,4.025-5.105,6.328c-0.256-0.188-0.695-0.125-1.16-0.026c-0.215,1.645-1.812,2.261-2.605,3.462
		c-0.512-0.225-1.191-0.23-1.467-0.763c0.955-1.091,0.611-3.154,1.529-4.271c0.021-0.71-0.518-0.673-0.568-1.285
		c0.777-1.3,1.717-2.903,0.543-4.323c-2.533,0.063-2.094,2.371-3.609,3.211c0.021,1.107,1.207,0.668,1.217,1.765
		c-0.809-0.042-0.684-0.658-1.57-0.167c-0.152,1.123-0.162,2.365-1.572,2.553c-0.402,0-0.449-0.459-0.684-0.684
		c0.182-1.791,1.775-2.517,1.049-4.986c2.455-3.571,3.395-8.281,5.859-11.858c1.854-0.517,1.816-2.475,3.424-3.185
		c-0.057-0.914-0.793-0.903-0.846-1.817c1.035-3.18,3.354-5.399,3.75-9.043c0.578-0.131,1.049-0.345,1.467-0.601
		c-0.131-0.689-0.365-0.689-0.188-1.332c2.225-1.76,3.885-4.851,3.289-8.192c-2.203-0.104-2.658,1.378-4.662,1.243
		c0.02-0.663,0.406-1.055,0.109-1.963c0.971-1.07,1.586-2.417,1.738-4.104c2.402-5.153,3.869-11.001,6.658-15.847
		c0.129-3.285,1.439-5.687,2.928-7.958c0.006-2.256,1.473-3.415,2.178-5.143c-0.486-1.833,0.271-2.726,1.248-3.462
		c0.053-0.475,0.156-0.909-0.021-1.551c2.131-2.01,1.65-5.984,3.479-8.234c-0.094-2.668,1.404-4.13,2.438-5.947
		c-0.146-0.799,0.125-1.269,0.115-1.953c0.674-0.339,1.07-0.893,1.541-1.378c0.197-4.261,2.793-6.715,2.459-11.372
		c-0.152-0.026-0.246-0.136-0.246-0.355c-3.283-1.148-5.982-0.939-8.156,1.154c-0.678,0.652-0.855,1.671-1.598,2.354
		c-1.217,1.123-2.799,1.614-3.879,2.679c-0.057,0.355,0.016,0.804-0.246,1.002c-0.625,0.313-1.189,0.684-1.791,1.029
		c-0.512,2.156-1.982,3.598-3.342,5.117c0.084,3.159-2.949,3.984-4.578,5.863l0.135,0.956c-2.861,2.898-5.811,6.657-8.092,9.848
		c-0.861,1.211-1.275,2.256-1.598,3.707c-1.525,0.538-1.598,2.622-2.215,3.41c-1.049,1.332-3.9,2.12-4.725,3.577
		c-1.676,0.267-2.543,1.133-3.822,1.692c-0.09,0.559-0.324,1.008-0.346,1.603c-0.73,0.47-1.314,1.049-1.691,1.791
		c-2.637,0.95-2.35,4.104-5.314,4.809c-1.963,2.872-3.766,5.875-7.029,7.765c0.059,0.611-0.312,0.898-0.166,1.571
		c-3.463,2.877-4.502,7.571-7.779,10.584c-1.029,3.801-3.98,6.161-6.059,9.174c-1.027,4.428-4.49,7.012-6.188,10.938l0.189,1.332
		c-0.789,1.326-2.434,2.016-2.33,4.005c-1.184,0.814-1.664,2.146-1.795,3.733c-2.084,2.109-3.238,4.918-3.672,8.26
		c-1.492,0.793-1.445,2.747-2.543,3.843c-0.066,0.695,0.711,1.055,0,1.347c-1.941-0.574-2.109-3.514-4.715-3.195
		c-0.594,0.172-0.562,0.814-1.227,0.95c-0.559-0.073-0.621-0.841-1.426-0.58c-1.957,1.89-0.762,4.673-0.531,7.237
		c0.203,2.313-0.221,5.091-0.09,7.561c0.09,1.734,1.023,3.357,0.1,4.82c-3.713-6.109-7.295-13.033-10.943-18.573
		c-0.189-3.885-3.645-7.289-4.1-11.21c-0.387-0.459-1.666,0.303-1.738,0.047c0.156-0.616,1.07-0.668,0.949-1.488
		c-0.939-0.439-0.469-1.353-0.752-2.601c-1.027-0.747-1.623-2.052-2.381-3.148c0.037-0.48,0.674-0.506,0.414-1.217
		c-1.369-1.206-1.285-3.545-3.311-4.177c0.16-2.125-0.58-4.877-2.508-5.446c0.131-0.59,0.402-1.06,0.115-1.947
		c-0.25-0.36-0.768-0.329-1.064-0.627c-0.234-0.642,0.193-0.772,0.01-1.357c-2.803-3.42-4.057-8.871-7.273-11.738
		c-0.068-0.444,0.24-0.605,0.027-1.164c-1.781-1.734-2.23-3.9-3.41-6.292c-0.805-0.282-1.535-0.658-2.271-1.034
		c-1.604-5.002-4.902-7.733-7.107-11.947c-1.148,0.021-1.498-1.018-2.334-1.42c-0.381-0.444-0.824,0.501-1.486,0.407
		c-0.236-0.517,0.203-0.527,0.062-0.976c-0.951-0.387-2.062-0.569-3.207-0.705c-0.977,0.998-2.543,1.744-4.412,1.593
		c-0.646,1.545-2.684,2.057-2.715,4.057c0.434,0.611,0.936-0.183,1.379,0.193c-0.377,0.632-0.178,1.671-0.652,2.225
		c-0.146-0.637-0.393-1.133-1.107-1.013c-0.83,0.653-0.137,1.441,0.453,1.88c-0.453,1.065,0.271,3.023-1.273,3.273
		c0.396,1.608-1.248,2.068-0.549,4.334c0.256,0.564,1.045,0.418,1.301,0.977c-0.574,0.47-1.41,0.747-1.301,1.733
		c0.492,0.24,0.758,0.793,0.967,1.41c-0.057,0.517-0.83,0.501-1.029,0.924c-0.303,2.052,0.732,4.804-0.256,6.412
		c1.713,1.279,2.59,5.367,1.41,7.153c1.404,1.514-0.631,3.676,1.238,4.657c-1.217,0.956-0.936,3.034-1.494,4.475
		c2.637,2.684,1.482,10.479,3.641,14.771c-0.455,1.478,0.787,3.728,0.74,5.305c-1.311-0.653-2.182-1.901-3.133-3.039
		c-0.736-0.037-1.242,0.971-1.869,0.459c0.09-0.726,0.793-0.987,0.711-1.843c-2.527-4.611-7.033-6.579-9.363-11.446
		c-1.566-0.386-2.25-1.953-2.834-3.655c-0.982-0.193-1.588-0.909-2.172-1.629c-1.207,0.449-1.541,0.229-2.518-0.032
		c-2.736,3.917,3.383,6.6,3.395,10.354c0.428,0.261,0.965,0.386,1.111,1.002c1.775,4.104,4.23,7.294,6.057,11.325
		c0.355,0.365,0.783,0.611,1.107,1.013c0.297,2.616,2.344,2.898,2.553,5.634c2.021,1.509,2.496,5.085,4.59,6.511
		c0.768,3.18,2.914,4.532,3.619,7.801c1.629,0.914,2.281,3.133,3.377,4.746c0.23,3.384,3.27,4.219,3.326,7.08
		c-1.08-0.752-2.291-1.305-2.893-2.693c-2.605,0.537-3.23-1.551-4.955-2.203c-0.01-3.75-4.684-2.287-7.158-1.307
		c0.309,1.176,1.148,1.646,2.041,2.031c0.664,0-0.035-1.044,0.408-1.221c1.238,0.688,2.527,1.091,3.895,1.587
		c3.014,1.07,6,4.329,8.527,5.556c0.359,0.183,0.893,0.005,1.201,0.225c0.162,0.125,0.213,0.793,0.527,1.08
		c1.18,1.07,2.725,0.826,2.113,2.605c1.316,1.922,3.357,4.094,3.818,6.428c-3.201-0.24-3.676-3.174-5.691-4.615
		c-0.883,0.266,0.469,1.18-0.393,1.404c-0.188-1.3-1.457-1.19-1.363-2.898c-0.287-0.229-0.85-0.067-1.357-0.004
		c-0.051-0.371,0.48-0.309,0.268-0.805c-1.881-0.502-2.287-2.95-4.652-2.824c-0.043-1.004-0.764-1.098-1.023-1.791
		c-1.076,0.496-2.172-0.053-2.365,1.111c-0.711-0.104-0.814-1.018-1.186-1.576c0.318-0.267,0.883-0.355,0.627-1.055
		c-1.348-0.235-2.09-1.979-2.193-3.176c-1.326,0.575-1.838,0.862-3.572,0.7c-0.35,0.476,0.455,0.981-0.197,1.378
		c-0.705-0.688-1.045-1.826-1.16-2.73c-0.225,0.006-0.531,0.105-0.596-0.115c-1.096,0.439-0.85,1.488-1.461,1.953
		c0.949,1.515,3.139,1.385,3.598,3.557c1.76,0.662,3.201,1.748,4.484,3.033c-0.312,1.222,0.789,1.979,1.52,2.496
		c-0.051,0.412-0.391,0.611-0.219,1.19c0.721,0.559,1.008,1.665,1.191,2.929c0.453,0.522,0.975,0.951,1.377,1.546l0.162,1.133
		c1.682,0.956,2.59,4.981,4.789,3.775c-1.02-1.468-2.988-2.209-2.621-4.846c-0.564-0.292-1.41-0.245-1.678-0.919
		c0.064-1.159,1.703-0.073,1.766-1.227c-1.383-0.188-2.381-0.904-3.008-2.078c3.441-1.045,5.588,1.587,7.445,3.378
		c0.627,0,1.604-0.476,1.756,0.142c0.146,0.793-0.189,1.106,0.244,1.701c0.736,0.073,1.395,0.262,2.172,0.282
		c0.674,1.023,0.748,1.566,0.992,2.956c0.23,0.531,0.998,0.318,1.27,0.783c0.652,2.066,2.406,2.673,3.822,3.723
		c-0.297,0.406,0.047,0.48,0.135,0.939c1.369,0.663,2.146,2.104,3.332,3.018c1.357,3.891,5.854,5.576,7.566,9.754
		c3.096,2.715,5.133,6.861,7.982,9.905c0.094,0.778,1.055,1.582,0.705,2.219c-3.414-1.556-7.086-2.763-9.498-5.618
		c-0.689-2.475-2.818-3.023-4.475-4.209c-1.111-2.125-2.709-3.602-4.381-4.991c-1.404-4.971-5.471-6.38-7.486-10.536
		c-0.861-0.287-1.703-0.606-2.141-1.441c0.172-0.387,0.986-0.271,0.625-1.061c0.006-0.537-1.018,0.298-1.012-0.24
		c0.359-1.211-0.512-2.574-2.025-2.036c0.141,1.023-1.186,1.509-1.191,2.485c-0.006,2.209,1.77,1.896,2.762,3.097
		c0.377,0.464,0.271,1.133,0.621,1.655c1.494,2.308,4.271,3.77,4.49,5.748c0.695,0.188,1.75,1.107,1.264,2.137
		c-4.385-2.361-7.199-6.794-11.559-9.201c-2.904-3.342-5.729-6.793-9.41-9.111c-1.42-3.822-5.201-4.5-6.762-8.124
		c-0.359-0.272-0.914-0.304-1.242-0.601c-1.766-2.475-3.682-4.726-6.125-6.287c-0.23-1.492-0.898-2.417-2.104-2.615
		c-0.59,0.402,0.01,1.713-0.686,2.036c-1.018-0.94-0.188-2.073-0.041-3.097c1.264-0.178,2.184,0.073,3.52,0.282
		c1.828,2.104,4.908,2.047,7.199,3.044c0.957-1.451-0.234-3.013-0.809-4.334c-1.666,0.262-2.062-1.17-2.971-1.905
		c-2.072,0.151-4.287-1.901-6.746-1.165c-0.898-0.772-2.119-1.102-3.143-1.696c-1.578,0.7-3.379,0.856-5.123,2.083
		c-0.293,0.465,0.072,1.404,0.109,2.115c1.395,0.543,2.025,2.119,3.785,2.172c0.973,0.506-0.438,1.111,0.271,1.9
		c0.137,0.564,1.051,0.12,1.248,0.59c-0.365,1.467,1.285,1.786,2.252,2.203c0.26,0.758-0.162,1.014,0.047,1.734
		c1.32,0.339,1.816,1.785,2.861,2.496c0.641,0.072,0.318-0.549,0.678-0.68c0.146-0.736-1.133-0.715-0.568-1.273
		c1.436,1.028,2.652,2.354,3.002,4.799c0.824,0.48,2.01,0.48,2.852,0.949c-0.152,0.633-0.748,0.914-0.518,1.812
		c1.43,0.527,2,2.788,4.109,1.744c0.246,1.033,0.736,1.723,1.289,2.339c-0.24,1.796,0.652,2.699,2.633,2.13
		c1.582,0.674,2.213,2.627,3.77,3.342l0.156,1.133c0.527,0.287,1.348,0.162,1.482,0.956c-0.057,0.763-0.846,1.243-0.297,1.979
		c0.809,0.261,1.41-0.424,2.135,0.078c-0.596,1.926,1.859,2.908,2.986,1.9c1.213,0.271,1.609,1.623,1.191,2.93
		c0.506,1.273,2.271,0.882,2.49,2.547c1.75,0.674,3.822,0.925,4.324,3.259l1.52-0.214c0.527,1.013,1.248,1.796,1.92,2.621
		c1.07,0.072,1.004-0.814,1.865-0.449c0.693,0.746-0.48,1.65,0.359,2.459c0.93,0.089,0.705-0.705,1.641-0.615
		c-0.893,2.172,1.576,3.482,3.305,2.818c3.064,4.042,7.32,6.496,11.037,9.66c0.252,0.188,0.314,0.627,0.361,1.117
		c4.609,4.297,10.275,7.211,15.289,10.98l0.182,1.327c0.893,0.605,1.432,1.665,2.016,2.668h4.887c1.756,0,3.201-1.441,3.201-3.19
		v-25.434c0-1.754-1.445-3.186-3.201-3.186h-6.141c-1.76,0-3.189-1.43-3.189-3.189v-8.945c0-1.748,1.43-3.189,3.189-3.189h24.072
		c1.76,0,3.195,1.441,3.195,3.189v40.754c0,1.749,1.436,3.19,3.18,3.19h5.268c1.76,0,3.186,1.44,3.186,3.19v1.049
		c0.939-0.699,1.258-1.911,2.131-2.767c0.453-0.058,0.516-0.402,1.111-0.351c3.875-4.312,7.008-9.195,10.855-13.528
		c0.877-0.021,1.086-0.538,1.625-0.81c0.543-1.854,1.523-3.383,2.176-5.143c3.619-0.674,2.699-4.758,5.316-6.172
		c0.605-2.992,2.568-4.961,4.197-7.17c-0.047-1.857,1.373-3.754,3.211-4.72c-0.281-2.224,2.684-3.06,2.043-6.088
		c1.105-0.527,1.404-1.649,2.6-2.104c-0.031-1.838,0.855-2.981,1.947-3.953c-0.752-1.645,0.58-2.135,1.529-2.929
		c0.246-2.13,1.838-3.247,1.713-5.659c4.24-1.441,3.07-6.271,6.559-8.281c0.428-2.898,1.734-5.144,3.018-7.395
		c-0.119-0.434-0.396-0.668-0.381-1.295c1.176-1.838,2.24-3.748,3.264-5.686c-0.1-0.627-0.643-0.647-0.59-1.467
		C238.678,127.412,238.855,127.856,239.545,127.621 M247.174,3.889c-0.889-0.037-1.451-0.486-1.576-1.52
		C246.334,2.521,247.273,3.341,247.174,3.889 M97.168,149.525c-0.221-0.318-0.605-0.408-0.543-1.086l1.523-0.215
		C98.42,149.107,97.898,149.404,97.168,149.525 M86.684,153.332c-0.184-0.58,0.035-0.878,0.646-0.873l0.105,0.763L86.684,153.332z
		 M134.834,109.56c0.23,0.825-0.928,0.799-0.783-0.088C134.385,109.398,134.496,109.649,134.834,109.56 M133.863,108.15
		c-0.605-0.25-1.508-0.089-1.508-1.148C133.195,106.939,133.838,107.138,133.863,108.15 M96.52,78.033
		c-0.303-1.791,0.428-4.804-0.799-5.691c0.773-0.903,0.09-1.864,0.105-3.3c-0.053-0.835-1.117-0.318-1.139-1.196
		c0.918-0.078,1.252-2.339-0.109-2.109c0.818-0.956,1.18-2.95,0.172-4.282c-0.178-0.7,0.506-0.757,0.605-1.248
		c-1.551-2.971,1.045-4.981-0.402-8.26c0.668-0.569,0.914-1.457,1.223-2.303c-0.043-0.554-0.121-1.039-0.699-0.867
		c1.445-3.384,4.631-0.381,7.305-0.261c0.715,2.005,2.479,2.569,3.174,4.574c3.557,2.266,4.725,7.697,8.354,9.853
		c0.047,0.485,0.021,0.919-0.225,1.196c1.129,0.908,2.957,2.506,2.361,4.308c3.676,2.715,4.01,8.312,7.533,10.918
		c-0.113,0.48-0.432,0.804-0.594,1.248c0.234,0.679,0.762,0.945,1.17,1.383c2.025,5.42,5.707,10.589,7.779,16.704
		c-2.146-0.016-1.488-3.744-4.277-2.888c0.059-2.219-1.236-3.864-3.436-3.765c-0.643-0.762,0.174-0.992-0.072-1.921
		c-0.967-1.572-2.309-2.647-4.125-3.096c-0.486-1.53-1.436-2.444-3.217-2.25c-0.58-0.417,0.152-0.605,0.031-1.165
		c-0.887-0.788-1.576-1.822-2.98-1.895c-0.402-1.65-1.838-1.906-3.217-2.261c-0.898-1.817-2.621-2.527-4.496-3.039
		c-0.727,0.021-0.805,0.522-1.023,0.924C103,75.981,99.172,76.441,96.52,78.033 M115.469,91.604
		c0.443-1.629-0.605-2.443-1.734-2.663c0.037-0.715,0.93-1.661,0.256-2.35c0.652-0.428,1.791,0.454,2.586,0.595
		c0.391,1.879,2.385,2.532,3.445,3.765c1.363,1.608,1.943,4.156,4.328,4.616c1.797,2.407,3.535,4.908,5.623,6.944
		c0.199,0.25,0.533,0.339,1.004,0.246c0.162,0.679,0.135,1.237,0.047,1.728c-2.721-0.276-3.049-3.754-5.635-4.234
		c-0.74-2.303-2.641-3.091-4.428-4.01c-0.615-1.29-1.697-1.958-3.195-2.062c0.246-0.151-0.078-0.731,0.271-0.814
		C117.312,92.611,116.105,92.481,115.469,91.604 M114.723,101.383c0.322,0.23,0.496,0.679,0.568,1.269
		C114.82,102.569,114.387,101.843,114.723,101.383 M112.424,96.094c1.451,0.632,1.535,3.065,2.219,4.72
		C113.955,99.305,112.018,97.608,112.424,96.094 M102.498,128.462c-0.391-0.548-0.756-1.112-1.523-1.149
		c-0.559-2.846-2.93-3.305-3.229-6.5c-2.422-0.914-2.35-5.154-4.406-6.542l-1.336,0.193c0.109-1.541-0.402-3.687-1.729-4.01
		c0.312-1.666-0.971-2.835-2.344-2.956c-0.361-0.616,0.715-1.007,0-1.352c0.422-0.689,0.996,0.303,1.566,0.162
		c0.584,1.927,1.779,3.039,3.57,3.363c2.115,3.493,4.902,6.093,7.619,8.788c-0.074,4.078,3.105,8.479,3.133,12.515
		c-0.314-0.26-0.57-0.595-1.055-0.621L102.498,128.462z M103.855,131.166c0.387,0.094,0.773,0.564,0.502,0.894
		C103.955,131.976,103.506,131.6,103.855,131.166 M106.305,137.589c-0.119-0.142-0.234-0.282-0.266-0.543
		c0.146-0.173,0.402-0.267,0.725-0.292C106.891,137.238,106.811,137.573,106.305,137.589 M106.947,120.274
		c-0.23-2.078-1.744-2.48-2.646-3.686c0.318-0.882-0.592-1.765,0.031-2.517c-1.051-0.856-2.059-2.887-0.973-4.114
		c-1.201-2.344-2.256-5.78-1.775-8.454c-1.012-2.929-1.879-5.582-2.381-8.568c-0.291-1.796-2.129-3.545-0.961-5.472
		c0.016-1.144-0.553-1.525-0.725-2.413c0.699-1.295-0.293-2.861-0.377-4.005c0.973-3.436,5.129-2.323,7.885-1.702
		c0.203,0.616,0.742,0.82,1.129,1.201c-0.336,2.459,1.326,4.161,0.73,6.469c-1.145,0.605-2.24,1.817-3.254,2.976
		c2.268,8.151,5.604,14.881,8.475,21.622c0.617,0.851,1.803,0.924,2.705,1.357c-0.168,0.606-0.246,1.29-0.727,1.661
		c2.34,3.66,4.105,7.869,5.291,11.435c-0.559,1.995,0.584,4.491,1.758,5.556c0.199,2.73,1.859,3.43,1.975,5.723
		c-0.982-0.507-2.025-1.102-1.734-2.668c-0.443-1.279-2.254-0.752-3.117-1.488c-0.438-0.914-0.25-2.663-1.508-2.496
		c0.104-0.423,0.496-0.632,0.406-1.217c-0.416-0.574-1.408-0.396-1.873-0.893c0.531-1.922-1.604-1.608-2.455-2.36
		c-0.25-0.647,0.172-0.772,0-1.357c-0.402-0.59-1.174-0.705-2.031-0.684C110.111,122.086,108.174,121.664,106.947,120.274
		 M125.613,145.494c-1.18-1.891-2.783-3.217-3.676-5.473C123.875,140.748,125.248,143.405,125.613,145.494 M120.988,138.795
		c-0.596-0.031-1.029-0.277-1.113-0.997C120.471,137.834,120.904,138.074,120.988,138.795 M112.002,157.289
		c0.057-0.297,0.213-0.517,0.271-0.814C112.926,156.48,112.779,157.414,112.002,157.289 M114.564,160.412
		c-1.09,0.005,0.168-1.713-0.672-2.037C114.404,157.77,115.348,159.905,114.564,160.412 M118.842,165.993
		c0.637-0.094,1.258-0.177,1.248,0.595C119.447,166.683,118.826,166.771,118.842,165.993 M128.924,167.466
		c-0.902-0.073-1.367-0.747-1.441-1.927c0.82-0.188,1.051,0.407,1.781,0.334C129.42,166.6,129.002,166.907,128.924,167.466
		 M129.535,169.121c1.848-0.203,2.293-1.441,2.934-2.543c-0.646-0.903-1.211,0.596-1.916,0.078c-0.141-0.674,0.83-0.501,0.59-1.242
		c-1.033-1.123-2.041-2.924-3.816-2.365c0.521-2.172-1.467-5.112-3.221-6.312c-0.23-0.736,0.4-0.842,0.166-1.572
		c-0.328-0.621-1.529-0.073-2.172-0.271c-0.518-0.647,0.34-2.041-1.023-1.791c0.146-1.399-0.574-2.971-1.812-3.232
		c-2.871-6.762-6.469-12.583-9.152-19.59c2.309,0.913,3.123,3.795,5.158,5.074c1.85,5.045,5.264,8.041,8.062,11.816
		c0.715,2.893,2.246,4.699,3.973,6.214c1.725,4.772,5.248,7.138,6.439,12.63c0.73,0.992,1.545,2.538,0.73,3.766
		c1.613,1.186,3.127,3.598,3.504,5.696c-0.428,0.507-0.795-0.444-1.404-0.387c-0.367,0.47-0.508,1.201-0.137,1.765
		c0.842,0.346,1.113-0.292,1.656-0.615c0.652,1.926,2.15,3.801,2.834,6.359C136.312,179.193,132.1,175.256,129.535,169.121
		 M131.779,148.82c5.092,3.457,7.551,10.4,10.006,17.346C138.051,160.918,134.736,155.117,131.779,148.82 M147.789,199.943
		c0.25,1.305,0.502,1.347,0.359,2.584c-2.484-0.568-3.867-2.621-5.586-4.203C144.537,197.254,145.602,200.178,147.789,199.943
		 M145.742,193.332c-1.189-0.161-1.869-0.986-2.25-2.203C144.855,191.046,145.449,191.98,145.742,193.332 M140.484,151.112
		c-1.529-2.005-3.174-4.214-4.836-6.856c-0.496-0.787-0.443-1.523-0.391-2.657c3.395,3.097,5.352,8.077,8.578,11.362
		c0.047,0.615,0.455,0.757,0.408,1.488c0.996,1.08,2.051,2.072,2.328,4.125C144.082,156.897,142.578,153.88,140.484,151.112
		 M149.184,155.17c-1.27-1.917-2.908-3.342-3.896-5.64c-2.238-1.608-1.262-2.987-3.664-4.365c-2.443-6.067-7.414-8.782-9.514-15.288
		c-0.209-0.418-0.652-0.491-1.064-0.627c-0.424-4.861-2.068-8.265-4.826-10.928c1.807-2.867-2.752-3.963-1.701-6.527
		c-0.998-0.809-1.625-1.744-1.242-3.305c-0.277-0.762-0.836-1.138-1.547-1.332c0.031-2.386-1.66-3.979-1.957-5.723
		c2.887,1.488,4.684,4.433,7.424,6.109l0.146,0.945c6.15,5.039,9.969,13.179,14.818,19.961c0.443,2.183,1.545,3.504,2.783,4.627
		l0.184,1.331c2.047,1.796,0.861,3.384,2.506,5.696c0.088,3.707,3.426,9.049,1.582,12.547
		C149.689,153.551,149.502,154.418,149.184,155.17 M219.082,115.617c3.289-1.927,5.432-4.726,7.645-7.461
		c4.15-2.694,6.971-6.396,12.828-7.812c0.012,0.267,0.037,0.538,0.262,0.538c-0.924,2.522-3.367,3.905-3.66,6.903
		c-2.469,3.514-5.336,6.725-6.977,10.86c-0.375,0.225-0.809,0.407-1.049,0.726c-0.037,0.835,0.125,0.768,0.016,1.541
		c-3.404,2.355-3.838,6.944-6.328,9.994c-0.668,0.136-0.773-0.476-1.398-0.381c-0.836,0.323-0.523,1.44-1.803,1.028
		c-1.539,2.334-3.988,4-5.9,6.057c0.062,0.574,0.299,0.94,0.727,1.055c1.557-0.689,2.324-1.984,4.094-2.516
		c-3.002,7.805-7.848,14.223-11.236,21.721c-0.689,0.605-1.07,1.457-1.416,2.323c-0.459,0.271-0.605,0.788-1.221,0.94
		c-0.115,1.775-0.768,3.158-2.152,3.983c-0.047-0.376-0.547-0.167-0.48-0.705c0.178-0.882,1.697-0.757,1.682-1.786
		c-0.15-0.548-0.459-0.893-0.914-1.027c-1.592,1.456-2.082,3.754-3.727,5.168c-0.068-1.169,1.289-1.832,0.334-3.133
		c1.639-1.028,2.041-2.991,2.818-4.668c0.83-0.271,0.527,0.977,1.27,0.794c0.35-0.751,1.227-1.117,1.682-1.79
		c0.01-0.611-0.34-0.736-0.695-0.862c-1.023-0.042-0.662,0.977-1.389,1.153c-0.877-0.96,0.68-1.352,0.219-2.542
		c-0.6-0.496-0.912,0.657-1.863,0.464c0.135-1.367,0.84-2.307,0.814-3.801c-0.021-0.726-0.924-0.271-1.248-0.596
		c-0.078-1.012,0.6-0.35,1.123-0.344c0.771-0.935,1.248-2.109,0.992-3.816c1.414-1.379,1.52-3.734,1.879-5.885
		c2.486-3.326,3.254-7.942,5.111-11.743c0.852-0.716,1.285-1.739,1.295-3.091C212.348,122.436,217.135,120.092,219.082,115.617
		 M202.688,136.519c0.041-0.554,0.053-1.103,0.809-1.091l0.109,0.756C203.412,136.383,203.137,136.514,202.688,136.519
		 M214.023,109.957c0.725-0.225,1.127,0.005,1.566,0.162c-0.408,1.613-1.975,2.354-2.768,3.681c0.135,0.261,0.35,0.439,0.484,0.705
		c-1.205,2.423-2.887,4.49-4.051,6.955c-0.48,0.208-0.428-0.319-0.799-0.271c0.689-1.17,0.809-3.321,0.182-4.094
		c0.617,0.198,0.998-0.089,1.494-0.397C211.021,114.134,213.172,112.537,214.023,109.957 M222.727,30.758l-0.162-1.138
		c0.957-0.083,0.914-0.898,1.354-1.352c-0.047-0.606-0.586-0.569-0.559-1.279c0.693-0.178,1.17,0.632,1.729-0.052
		c0.646-0.438,0.307-0.736,0.166-1.566c2.025-0.622,1.785-2.95,3.744-3.624c-0.178-0.59,0.246-0.726,0-1.352
		c1.326-0.935,2.453-2,2.549-3.848c1.299-0.438,2.014-1.311,2.584-2.297c-0.125-0.831-0.684-1.196-0.459-1.87
		c0.312-0.517,0.943,0.183,1.295-0.376c0.344-0.303,0.303-0.903,0.385-1.41c1.07-0.496,1.822-1.232,1.975-2.407
		c1.938-0.867,3.07-2.334,4.1-3.869c1.873-0.052,2.156-1.75,3.926-0.945c-0.471,1.384-1.352,3.216-0.658,4.929
		c-1.619,1.196-2.674,3.561-2.057,5.905c-2.314,2.778-2.93,6.84-4.777,9.962c-0.068,0.595,0.4,0.507,0.344,1.107
		c-1.576,1.133-1.332,3.634-1.717,5.655c-2.021,1.253-2.387,3.739-2.789,6.203c-0.871,0.35-0.455,1.138-0.898,1.869
		c-0.182,0.298-0.852,0.47-1.033,0.919c-0.428,1.065-0.234,2.58-0.664,3.577c-0.266,0.637-1.049,1.065-1.305,1.729
		c-0.418,1.159-0.35,2.01-0.889,3.227c-1.111,2.538-2.375,5.461-2.637,8.688c-0.703,0.266-1.064,0.788-1.352,1.352
		c-0.371,6.104-4.986,9.022-4.977,15.414c-2.855,2.877-2.506,8.177-6.061,10.526c-0.1,0.898,0.625,0.679,0.605,1.467
		c-0.523,0.235-0.539-0.198-0.982-0.062c-1.77,2.908-4.646,4.992-6,8.203c-0.762,0.329-1.264,0.856-2.166,1.086
		c-0.152,2.308-1.619,3.629-3.398,4.73c-0.033-0.977,0.725-1.384,1.289-1.917c-0.402-2.673,2.051-3.19,1.467-6.01
		c0.914-0.449,1.191-1.363,2.281-1.681c0.021-2.287,1.363-3.744,0.68-6.093l0.939-0.136c1.055-1.859,2.68-3.311,2.861-5.822
		c0.471-0.037,0.549-0.381,0.889-0.512c-0.689-3.164,3.117-5.18,2.5-8.281c3.295-1.457,0.736-6.673,4.49-7.989
		c-0.705-3.691,1.891-4.903,1.738-8.182c0.574-0.987,1.74-2.371,1.928-4.146c0.162-1.509-0.402-3.342-0.293-4.788
		c0.059-0.778,0.867-1.879,0.795-2.631c-0.184-1.974-2.434-1.817-2.465-3.718c-0.523-0.658-1.27-0.997-2.277-1.029
		C220.033,34.821,220.633,32.231,222.727,30.758 M196.65,112.996c0.021-1.849,0.34-3.473,1.928-4.146
		c0.861-3.138,3.012-5.3,4.914-7.66c0.312-0.115,0.375,0.094,0.432,0.329c-0.949,2.903-3.686,4.459-4.129,7.738
		C198.457,110.281,198.098,112.045,196.65,112.996 M196.734,113.565c0.074,0.804-0.611,1.702-1.143,1.514
		C195.514,114.27,196.197,113.367,196.734,113.565 M164.801,116.149c0.188-3.869,3.826-5.843,3.033-9.91
		c2.977-3.023,3.107-8.166,6.166-11.122c1.479-3.242,3.467-6.093,4.424-9.722c2.543-2.047,2.746-5.848,5.262-7.905
		c3.744-7.415,9.076-13.628,13.551-20.483c0.689-0.052,0.605-0.668,1.248-0.757c2.453-4.313,6.223-7.639,9.623-11.236
		c0.668,0.078,0.15,0.344,0.324,0.919c-3.16,1.524-3.014,5.524-5.504,7.555l0.188,1.321c-1.65,1.326-3.311,3.477-3.07,5.66
		c-0.971,0-1.248,0.533-1.807,0.846c-0.35,3.514-3.916,4.626-3.832,8.469c-1.723,0.851-2.93,2.104-2.449,4.605
		c-1.363,0.893-1.154,2.966-2.992,3.514c-0.166,0.637,0.053,0.637,0.193,1.326c-2.771,3.232-4.668,7.117-6.777,10.824
		c0.455,1.879,1.129,4.177,0.234,5.77c-0.705,0.031-0.631-0.971-1.633-0.543c-0.236,0.099-0.246,0.376-0.508,0.47
		c2.648,3.812-3.879,4.47-3.477,8.229c-0.219,0.402-0.883,0.47-1.248,0.747c0.057,0.455,0.406,0.512,0.355,1.118
		c-2.012,0.846-2.021,2.997-1.582,5.252c-1.363,0.903-2.93,1.634-2.549,3.848c-0.568,0.225-0.443-0.475-1.014-0.25
		c-0.506,1.154,0.512,1.968,0.957,2.574c-0.783,0.188-0.92,1.044-1.854,0.653c-0.084,0.809,0.141,1.478,0.197,2.673
		c-0.652,0.705-2.051,0.84-2.256,1.875c0.084,0.563,0.59,0.574,0.727,1.06c-0.746,0.783-0.68,2.183-2.375,2.271
		c0.416-2.809-1.311-4.897-2.355-7.023C164.227,117.868,163.881,116.542,164.801,116.149 M185.816,88.414
		c-0.025,0.36-1.305,0.96-1.158-0.031C185.123,88.288,185.561,88.215,185.816,88.414 M163.672,123.271l-0.104-0.757
		C164.273,122.264,164.42,123.319,163.672,123.271 M157.715,119.476c0.49,0.961-0.318,2.042-0.543,2.977
		c-0.303-0.496-0.752-0.799-1.139-1.196C156.086,120.342,156.42,118.901,157.715,119.476 M171.709,154.392
		c-2.115,2.109-4.689,3.164-7.734,3.164c-2.939,0-5.508-1.075-7.654-3.222c-2.156-2.162-3.232-4.721-3.232-7.676
		c0-3.023,1.051-5.603,3.166-7.723c2.125-2.114,4.688-3.174,7.721-3.174c3.045,0,5.619,1.06,7.734,3.174
		c2.109,2.12,3.168,4.699,3.168,7.723C174.877,149.697,173.818,152.271,171.709,154.392 M176.053,139.119
		c0.35-1.061,1.363-2.262,1.086-3.248c1.311-1.201,0.564-2.903,1.254-4.83c0.244-0.663,1.279-1.357,1.629-2.151
		c0.627-1.452,1.055-2.605,0.715-4.24c2.334-4.12,0.852-4.401,3.426-8.338l0.131,0.95c0.234-0.846,1.367-1.002,1.039-2.282
		c-0.24-0.533-0.602,0.204-0.957,0.141c0.037-0.83,0.277-1.499,0.686-2.031c0.4-0.094,0.176,0.663,0.318,0.919
		c0.799,0.031,0.568-0.705,1.461-0.595c0.078,1.186-0.908,1.566-0.543,2.987c1.938-0.246,1.42-2.329,2.658-3.091
		c0.109-0.741-0.543-0.47-0.533-1.081c0.93-0.005,1.133-1.88,0.271-2.172c0.617-0.637,1.357-1.394,0.602-2.595
		c0.178,0.12,0.459,0.136,0.777,0.078c-0.664-1.237-0.1-1.091-0.156-2.496c-1.713,0.856-2.053,2.762-2.873,4.282
		c0.111,0.59,0.717,0.548,1.406,0.386c-0.068,0.794-0.742,1.139-0.895,1.864c-1.049-0.903-1.52,0.512-2.416,0.726
		c-0.883-1.295,1.074-1.446,0.203-2.73c0.615,0.016,0.861-0.261,1.289-0.387c0.443-2.616,1.734-4.568,2.945-6.6
		c0.553-0.225,0.434,0.47,0.992,0.24c0.621-0.277,0.836-1.53,0.277-2.162c-0.701,0.156-0.605,0.908-0.977,1.295
		c-0.668-0.005-0.502-1.139-1.139-1.19c-2.057,1.446-2.92,3.785-3.342,6.469c-0.789,0.136-0.861,0.82-1.383,1.164
		c-2.664,8.5-3.896,11.623-6.508,20.166c-0.531,0.109-0.438,0.684-0.834,0.883c-0.105,2.25-2.387,5.837-2.752,7.879
		c-1.912-0.502,0.25-6.768-1.676-7.639c-1.557-5.139,1.885-5.823,2.182-10.621c1.834-2.741,2.434-2.945,3.217-6.479
		c3.189-5.117,5.039-11.231,8.334-16.27c-0.109-0.877,0.307-1.363,0.062-2.324c0.709-0.595,1.211-1.353,1.832-2.005
		c-0.309-1.029,0.559-1.17,0.49-2.01c2.434-2.684,4.178-5.906,5.008-9.795c1.535-1.535,2.637-4.569,4.041-6.955
		c0.736-1.253,1.953-1.582,1.629-3.519c0.576-0.073,0.686-0.507,1.061-0.731c1.42-3.728,3.311-7.106,5.729-10.104
		c0.01-2.13,2.453-2.438,2.016-4.929c1.639-2.371,3.217-4.798,4.768-7.247c-0.158-0.689,0.051-1.086,0.166-1.572
		c1.975-1.065,2.658-3.091,3.336-5.117c6.439-1.013,4.199,5.232,4.219,9.268c-0.553-0.073-0.453,0.345-0.918,0.329
		c0.439,2.835-2.293,4.12-1.367,6.767c-0.951,0.861-2.361,2.114-1.385,3.869c-0.777,0.496-1.189,1.259-1.869,1.817l0.184,1.332
		c-2.174,2.945-3.291,6.678-4.967,9.983c0.059,0.303,0.006,0.736,0.299,0.736c-0.564,0.987-1.469,1.723-2.152,2.632
		c-0.135,3.159-2.537,4.631-3.195,7.409c0.062,1.404-0.125,2.621-0.443,3.738c-1.154,0.152-2.559-0.887-3.436,0.298
		c0.234,0.585,0.945,0.533,1.457,0.752c-0.904,5.42-3.703,9.425-5.76,13.973c-1.342-1.186,0.146-3.723-1.666-4.981
		c-1.473,0.527-2.48,1.41-2.902,2.731c0.131,0.726,0.961,0.386,0.562,1.279c0.57-0.089,1.113,0.204,1.803,0.506
		c0.674,1.979-1.008,2.882,0.094,4.637c-1.248,2.12-1.641,4.876-3.975,6.167c-1.148,2.417-2.918,4.36-4.061,6.777
		c-0.561,0.219-0.732-0.104-1.176-0.031c0.199,2.563-4.094,3.018-2.281,5.733c-3.316,6.427-3.85,7.607-5.707,15.121
		C176.637,140.748,176.518,139.698,176.053,139.119 M178.203,202.664c-0.521-0.961-1.117-1.818-1.248-3.306
		c0.779-0.731,2.199-2.062,3.342-1.055C179.348,199.566,179.316,201.52,178.203,202.664 M180.684,184.707
		c-0.83-0.752-1.117-2.219-1.023-3.148l0.764-0.104C180.82,182.248,180.762,183.741,180.684,184.707 M180.365,141.422
		c-0.768-1.432,1.85-2.444,0.193-4.104c1.514-3.378,3.014-6.767,3.697-10.767c2.303-3.807,4.605-7.607,7.326-11.101
		c0.824,0.814-1.086,2.297-1.469,3.3c0.34,1.336-0.312,1.911-0.354,2.95c-1.631,0.59-1.098,2.788-2.605,3.478
		c-0.08,3.597-2.799,5.231-2.799,8.896C182.693,136.273,182.455,139.541,180.365,141.422 M182.705,155.211
		c1.039-6.568,5.424-10.604,6.684-17.017c2.275-2.292,2.678-5.999,4.584-8.568c0.047-0.799-0.062-0.663-0.209-1.524
		c4.062-5.587,6.203-12.62,10.609-17.941l0.58-0.083c0.377,1.76-1.404,1.896-0.605,3.953c-2.084,2.626-3.398,5.806-4.303,9.32
		c-3.488,4.428-4.088,11.033-7.467,15.565c-0.104,3.483-3.133,5.645-3.012,8.746c-1.609,1.774-2.988,3.749-4.861,5.331
		c-0.125,1.092,0.025,2.391-1.385,2.517C183.211,155.284,183.029,155.143,182.705,155.211 M198.285,146.418
		c0.121,0.596-0.391,0.731-0.84,0.893C197.648,146.956,197.736,146.512,198.285,146.418 M184.387,176.64
		c-0.742-1.451-0.168-2.501,0.49-3.357c0.084-0.788-0.643-0.491-0.574-1.278c1.342-1.812,3.367-3.113,4.078-5.416l1.133-0.161
		C187.514,169.602,186.559,173.59,184.387,176.64 M185.379,185.016c-1.322-0.783-0.137-2.836,0.871-3.42
		c0.377-2.48,2.037-4.006,2.359-6.527c2.094-1.242,1.588-4.449,3.641-5.733c0.344-2.224,2.125-3.368,2.066-5.905
		c1.756-1.159,1.248-4.031,3.145-5.091c-0.652-1.964,1.273-1.979,1.248-3.468c0.678,0.037,0.02,1.551,1.002,1.604
		c-1.566,0.799-1.529,2.799-2.949,3.707c0.176,2.674-0.752,4.517-2.695,5.604c0.053,1.227-0.443,2.035-1.164,2.684
		c0.047,0.757,0.568,0.887,0.621,1.654c-1.916,1.285-3.686,3.535-2.996,6.229c-1.572,1.06-2.941,2.298-2.605,4.81
		C186.26,181.83,185.988,183.548,185.379,185.016 M197.695,166.824c0.412,0.318,0.256,1.649-0.549,1.618
		C196.531,167.68,197.127,167.158,197.695,166.824 M197.127,169.602c-0.199,1.446-0.795,2.579-1.635,3.529
		c-0.381-1.086,0.549-2.643,1.039-3.629C196.828,169.402,196.881,169.638,197.127,169.602 M191.582,183.741
		c-0.205-2.642,1.926-4.991,2.182-7.849c0.355-0.756,1.055-1.236,1.238-2.114C195.879,177.262,192.469,180.451,191.582,183.741
		 M235.238,125.909c-1.582,6.772-5.504,11.79-7.691,18.113c-0.33,0.199-0.648,0.412-1.076,0.549
		c-1.414,3.451-3.844,6.15-4.996,9.785c-4.262,5.79-6.867,12.505-10.73,18.551c-0.873,1.363-1.938,2.475-2.742,3.869
		c-2.531,4.381-5.252,9.279-8.338,13.55c-3.697,5.169-5.682,8.411-9.863,12.709c-1.154,1.18-2.303,2.506-3.734,3.624
		c-0.031-1.27,1.244-1.551,1.572-2.549c-0.193-2.386,2.553-3.315,1.713-5.66c1.607-1.832,0.037-2.287,1.592-4.172
		c0.434-0.469,0.826-2.15,1.139-2.475c1.9-1.102,2.955-1.613,2.178-4.188c1.676-0.309,1.289-2.715,1.629-3.514
		c1.176-1.207,1.557-3.008,3.342-3.766c0.078-0.866-0.465-0.893-0.596-1.461c1.707-2.047,3.369-4.136,4.041-6.955
		c3.004-1.525,2.664-5.561,5.129-7.493c0.135-3.796,3.76-4.976,3.561-9.022c0.502-0.303,1.029-0.58,1.619-0.809
		c0.229-0.283,0.072-0.857,0.01-1.358c1.416-0.799,1.254-2.778,2.789-3.493c1.967-5.634,6.203-9.561,7.873-15.424
		c0.564-0.256,0.793-0.758,1.416-0.977c0.078-0.559,0.047-1.201,0.135-1.754c1.697-1.943,3.186-4.047,3.666-6.908
		c3.201-2.799,4.066-7.336,7.268-10.125c0.016-0.605,0.443-0.909,0.361-1.598c2.354-2.12,3.461-5.18,4.85-8.041
		c0.443-0.58,1.176-0.924,1.525-1.562c0.219-0.068,0.344-0.016,0.402,0.136c-0.617,5.461-3.725,9.054-4.1,14.703
		C237.535,120.52,236.924,123.627,235.238,125.909"/>
	<path d="M191.66,94.157c-0.93,1.201-0.508,2.48-0.57,4.151C192.709,97.948,193.549,94.611,191.66,94.157"/>
	<path d="M134.113,171.377C134.527,169.33,131.748,171.23,134.113,171.377"/>
	<path d="M190.928,98.517c-0.453,0.224-0.281,0.924-0.166,1.577C191.801,100.198,191.857,98.449,190.928,98.517"/>
	<path d="M198.301,90.507c-0.24-0.125-0.537-0.178-0.971-0.052l0.135,0.945C198.213,91.452,198.145,90.899,198.301,90.507"/>
	<path d="M191.414,103.289l-0.58,0.079c-0.125,0.24-0.182,0.548-0.057,0.977C191.502,104.38,191.582,103.926,191.414,103.289"/>
	<path d="M134.219,172.134c-0.297,0.872,0.1,2.507,1.107,2.36c0.537-0.507,0.652-1.316,0.652-2.219
		C135.623,171.92,134.965,171.967,134.219,172.134"/>
	<path d="M186.275,118.912c0.674-0.229,0.158-1.357-0.385-1.3C185.566,117.883,185.379,119.131,186.275,118.912"/>
	<rect x="5.672" y="181.438" width="5.576" height="35.02"/>
	<polygon points="35.277,204.888 31.857,198.477 22.078,181.428 17.77,181.428 17.77,216.458 23.029,216.458 23.029,193.322
		26.605,199.739 36.65,216.458 40.535,216.458 40.535,181.428 35.277,181.428 	"/>
	<path d="M58.518,181.434H47.057v35.024h11.461c7.473,0,10.836-4.626,10.836-10.307v-14.405
		C69.354,186.064,65.99,181.434,58.518,181.434 M63.777,205.624c0,3.629-1.791,5.838-5.734,5.838h-5.42v-25.026h5.42
		c3.943,0,5.734,2.209,5.734,5.879V205.624z"/>
	<path d="M91.152,233.251c3.42-0.627,5.211-2.836,5.211-6.992v-1.315c0-4.637-1.91-7.843-7.201-8.479h17.205v-5.002H93.016v-11.101
		h9.619v-4.727h-9.619v-9.199h13.352v-5.002H87.445v34.915c-0.121,0-0.209-0.026-0.33-0.026h-6.201v-34.889h-5.566v34.889h-0.021
		v35.016h12.098c6.887,0,9.414-3.415,9.414-8.615v-2.371C96.838,236.52,95.1,233.935,91.152,233.251 M80.961,221.001h6.203
		c2.893,0,3.727,1.687,3.727,3.896v2.151c0,2.944-1.477,4.469-4.365,4.469h-5.564V221.001z M91.205,242.821
		c0,2.156-0.893,3.843-3.723,3.843h-6.521V235.83h5.889c2.893,0,4.355,1.524,4.355,4.521V242.821z"/>
	<path d="M113.135,215.477c-7.828,0-11.305,4.893-11.305,11.31v14.088c0,6.464,3.477,11.356,11.305,11.356
		c7.885,0,11.299-4.893,11.299-11.356v-14.088C124.434,220.369,121.02,215.477,113.135,215.477 M118.867,241.244
		c0,3.582-1.795,6.094-5.732,6.094c-3.885,0-5.676-2.512-5.676-6.094v-14.828c0-3.577,1.791-6.099,5.676-6.099
		c3.938,0,5.732,2.521,5.732,6.099V241.244z"/>
	<path d="M147.414,241.98c0,3.571-1.787,5.52-5.723,5.52c-3.896,0-5.682-1.948-5.682-5.52v-25.663h-5.635v25.768
		c0,6.47,4.695,10.146,11.316,10.146c6.678,0,11.299-3.676,11.299-10.146v-25.768h-5.576V241.98z"/>
	<polygon points="176.967,239.777 173.551,233.36 163.768,216.317 159.453,216.317 159.453,251.343 164.717,251.343
		164.717,228.207 168.293,234.624 178.334,251.343 182.219,251.343 182.219,216.317 176.967,216.317 	"/>
	<path d="M200.207,216.322H188.74v35.021h11.467c7.461,0,10.824-4.632,10.824-10.307v-14.411
		C211.031,220.954,207.668,216.322,200.207,216.322 M205.465,240.508c0,3.629-1.785,5.838-5.729,5.838h-5.42v-25.031h5.42
		c3.943,0,5.729,2.209,5.729,5.895V240.508z"/>
	<path d="M234.449,240.999l-0.219-2.595h-2.773v13.184h3.348v-8.275c0-1.237,0.908-2.167,3.545-1.729v-3.269
		C236.449,237.877,235.049,238.676,234.449,240.999"/>
	<path d="M224.477,238.153c-2.826,0-4.727,1.807-4.727,4.721v4.255c0,2.939,1.9,4.668,4.727,4.668c2.777,0,4.668-1.729,4.668-4.668
		v-4.255C229.145,239.96,227.254,238.153,224.477,238.153 M225.938,247.74c0,0.935-0.584,1.566-1.461,1.566
		c-0.936,0-1.488-0.632-1.488-1.566v-5.498c0-0.93,0.553-1.572,1.488-1.572c0.877,0,1.461,0.643,1.461,1.572V247.74z"/>
	<path d="M250.328,238.064c0-0.271,0-0.548-0.09-1.175h-2.354c0,0.903-0.273,1.535-1.594,1.535c-0.281,0-0.855-0.276-1.9-0.276
		c-2.615,0-4.621,1.843-4.621,4.183v0.072c0,1.535,0.752,2.972,1.984,3.468c-1.258,0.156-2.23,1.231-2.23,2.198
		c0,0.882,0.58,1.696,1.787,2.078c-1.322,0.392-2.006,1.326-2.006,2.312v0.251c0,1.916,2.25,3.289,5.273,3.289
		c3.332,0,5.223-1.807,5.223-4.119v-0.22c0-2.078-1.453-3.493-4.893-3.493c-2.168,0-2.748-0.298-2.748-0.872
		c0-0.443,0.418-0.908,1.129-0.908c0.246,0.052,0.824,0.109,1.102,0.109c2.855,0,4.643-1.649,4.643-4.005v-0.25
		c0-1.05-0.471-1.927-1.295-2.637c0.422,0.219,0.715,0.245,1.049,0.245C249.58,239.851,250.328,239.219,250.328,238.064
		 M242.303,251.881c0-0.852,0.74-1.374,2.275-1.374c1.713,0,2.25,0.496,2.25,1.353v0.246c0,0.851-0.652,1.478-2.25,1.478
		c-1.535,0-2.275-0.601-2.275-1.457V251.881z M245.926,242.79c0,0.883-0.58,1.598-1.535,1.598c-0.961,0-1.541-0.715-1.541-1.598
		v-0.705c0-0.919,0.58-1.598,1.541-1.598c0.955,0,1.535,0.679,1.535,1.598V242.79z"/>
	<rect x="213.303" y="247.85" width="3.018" height="3.729"/>
	<path d="M196.104,211.153v0.324c0,0.318,0.182,0.512,0.578,0.512h0.162v-0.434c-0.146,0-0.193-0.047-0.193-0.131v-0.287
		c0-0.287-0.094-0.59-0.443-0.632c0.361-0.12,0.443-0.339,0.443-0.674v-0.016c0-0.496-0.256-0.835-0.887-0.835h-1.305v2.96h0.537
		v-1.237h0.674C195.963,210.704,196.104,210.902,196.104,211.153 M194.996,209.431h0.73c0.252,0,0.377,0.209,0.377,0.386v0.079
		c0,0.287-0.156,0.412-0.434,0.412h-0.674V209.431z"/>
	<path d="M198.516,210.454c0-1.661-1.27-3.003-2.992-3.003c-1.734,0-2.998,1.342-2.998,3.003c0,1.676,1.264,2.997,2.998,2.997
		C197.246,213.451,198.516,212.13,198.516,210.454 M192.949,210.454c0-1.446,1.055-2.601,2.574-2.601s2.549,1.154,2.549,2.601
		s-1.029,2.6-2.549,2.6S192.949,211.9,192.949,210.454"/>
</g>
</svg>
