<svg version="1.1" id="Layer_1" xmlns="http://www.w3.org/2000/svg" xmlns:xlink="http://www.w3.org/1999/xlink" x="0px" y="0px"
	 width="256px" height="256px" viewBox="0 0 256 256" enable-background="new 0 0 256 256" xml:space="preserve">
<g>
	<g>
		<path fill="#00529C" d="M0.313,166.779h5.598c1.373,0,2.34,0.342,2.979,0.98c0.438,0.438,0.702,1.016,0.702,1.764v0.031
			c0,1.263-0.718,2.012-1.685,2.433c1.325,0.437,2.167,1.185,2.167,2.667v0.031c0,1.871-1.527,3.01-4.132,3.01H0.313V166.779z
			 M5.163,171.13c0.919,0,1.435-0.312,1.435-0.952v-0.031c0-0.592-0.468-0.936-1.372-0.936H3.26v1.919H5.163z M5.6,175.262
			c0.919,0,1.45-0.358,1.45-0.998v-0.031c0-0.594-0.468-0.981-1.481-0.981H3.26v2.011H5.6z"/>
		<path fill="#00529C" d="M11.084,172.268v-0.03c0-3.135,2.526-5.677,5.895-5.677c3.369,0,5.863,2.51,5.863,5.645v0.032
			c0,3.134-2.526,5.676-5.895,5.676S11.084,175.402,11.084,172.268z M19.755,172.268v-0.03c0-1.575-1.139-2.948-2.808-2.948
			c-1.653,0-2.76,1.342-2.76,2.916v0.032c0,1.574,1.139,2.946,2.791,2.946C18.647,175.184,19.755,173.843,19.755,172.268z"/>
		<path fill="#00529C" d="M24.037,172.268v-0.03c0-3.135,2.526-5.677,5.896-5.677c3.368,0,5.863,2.51,5.863,5.645v0.032
			c0,3.134-2.526,5.676-5.896,5.676C26.533,177.913,24.037,175.402,24.037,172.268z M32.708,172.268v-0.03
			c0-1.575-1.138-2.948-2.808-2.948c-1.652,0-2.76,1.342-2.76,2.916v0.032c0,1.574,1.139,2.946,2.792,2.946
			C31.601,175.184,32.708,173.843,32.708,172.268z"/>
		<path fill="#00529C" d="M37.364,166.779h3.026v4.428l3.758-4.428h3.587l-4.133,4.693l4.273,6.223h-3.634l-2.745-4.057
			l-1.106,1.234v2.822h-3.026V166.779z"/>
		<path fill="#00529C" d="M47.762,176.072l1.685-2.012c1.076,0.859,2.276,1.311,3.539,1.311c0.812,0,1.248-0.28,1.248-0.748v-0.031
			c0-0.453-0.358-0.701-1.84-1.045c-2.324-0.53-4.117-1.186-4.117-3.431v-0.032c0-2.027,1.606-3.492,4.226-3.492
			c1.856,0,3.307,0.498,4.492,1.45l-1.513,2.136c-0.999-0.701-2.091-1.075-3.057-1.075c-0.733,0-1.092,0.312-1.092,0.701v0.032
			c0,0.498,0.374,0.717,1.887,1.06c2.511,0.546,4.07,1.356,4.07,3.399v0.031c0,2.23-1.763,3.557-4.413,3.557
			C50.943,177.883,49.103,177.273,47.762,176.072z"/>
		<path fill="#00529C" d="M63.365,172.222v-0.032c0-1.451,1.186-2.619,2.636-2.619s2.636,1.168,2.636,2.619v0.032
			c0,1.45-1.186,2.619-2.636,2.619S63.365,173.672,63.365,172.222z"/>
		<path fill="#00529C" d="M77.848,169.429h-3.275v-2.649h9.575v2.649h-3.274v8.267h-3.025V169.429z"/>
		<path fill="#00529C" d="M84.627,172.268v-0.03c0-3.135,2.525-5.677,5.894-5.677c3.369,0,5.864,2.51,5.864,5.645v0.032
			c0,3.134-2.527,5.676-5.896,5.676S84.627,175.402,84.627,172.268z M93.296,172.268v-0.03c0-1.575-1.138-2.948-2.807-2.948
			c-1.652,0-2.76,1.342-2.76,2.916v0.032c0,1.574,1.138,2.946,2.791,2.946C92.189,175.184,93.296,173.843,93.296,172.268z"/>
		<path fill="#00529C" d="M100.091,173.609l-4.147-6.83h3.446l2.245,3.976l2.262-3.976h3.384l-4.147,6.783v4.133h-3.042V173.609z"/>
		<path fill="#00529C" d="M106.841,176.072l1.685-2.012c1.076,0.859,2.276,1.311,3.54,1.311c0.811,0,1.247-0.28,1.247-0.748v-0.031
			c0-0.453-0.358-0.701-1.84-1.045c-2.324-0.53-4.117-1.186-4.117-3.431v-0.032c0-2.027,1.606-3.492,4.227-3.492
			c1.855,0,3.306,0.498,4.49,1.45l-1.512,2.136c-0.999-0.701-2.091-1.075-3.057-1.075c-0.733,0-1.092,0.312-1.092,0.701v0.032
			c0,0.498,0.374,0.717,1.887,1.06c2.511,0.546,4.07,1.356,4.07,3.399v0.031c0,2.23-1.762,3.557-4.413,3.557
			C110.022,177.883,108.182,177.273,106.841,176.072z"/>
		<path fill="#00529C" d="M122.445,172.222v-0.032c0-1.451,1.185-2.619,2.635-2.619s2.637,1.168,2.637,2.619v0.032
			c0,1.45-1.187,2.619-2.637,2.619S122.445,173.672,122.445,172.222z"/>
		<path fill="#00529C" d="M136.927,169.429h-3.275v-2.649h9.576v2.649h-3.275v8.267h-3.025V169.429z"/>
		<path fill="#00529C" d="M144.548,166.779h8.779v2.572h-5.785v1.654h5.24v2.385h-5.24v1.731h5.863v2.573h-8.857V166.779z"/>
		<path fill="#00529C" d="M154.493,172.268v-0.03c0-3.183,2.448-5.677,5.755-5.677c2.229,0,3.664,0.936,4.631,2.276l-2.276,1.763
			c-0.624-0.78-1.342-1.279-2.386-1.279c-1.528,0-2.605,1.295-2.605,2.885v0.032c0,1.637,1.077,2.915,2.605,2.915
			c1.139,0,1.809-0.529,2.464-1.324l2.276,1.621c-1.029,1.42-2.417,2.464-4.834,2.464
			C157.005,177.913,154.493,175.526,154.493,172.268z"/>
		<path fill="#00529C" d="M166.247,166.779h3.025v4.084h3.883v-4.084h3.024v10.916h-3.024v-4.148h-3.883v4.148h-3.025V166.779z"/>
		<path fill="#00529C" d="M182.723,172.222v-0.032c0-1.451,1.186-2.619,2.636-2.619s2.636,1.168,2.636,2.619v0.032
			c0,1.45-1.186,2.619-2.636,2.619S182.723,173.672,182.723,172.222z"/>
		<path fill="#00529C" d="M194.538,166.779h3.197l2.604,4.227l2.605-4.227h3.195v10.916h-3.009v-6.27l-2.792,4.273h-0.062
			l-2.776-4.242v6.238h-2.962V166.779z"/>
		<path fill="#00529C" d="M207.693,172.268v-0.03c0-3.135,2.526-5.677,5.895-5.677c3.369,0,5.863,2.51,5.863,5.645v0.032
			c0,3.134-2.525,5.676-5.895,5.676C210.188,177.913,207.693,175.402,207.693,172.268z M216.364,172.268v-0.03
			c0-1.575-1.139-2.948-2.808-2.948c-1.653,0-2.76,1.342-2.76,2.916v0.032c0,1.574,1.139,2.946,2.791,2.946
			C215.257,175.184,216.364,173.843,216.364,172.268z"/>
		<path fill="#00529C" d="M221.021,166.779h5.162c1.668,0,2.822,0.436,3.555,1.184c0.64,0.625,0.968,1.466,0.968,2.543v0.031
			c0,1.668-0.889,2.775-2.245,3.354l2.604,3.805h-3.493l-2.199-3.307h-0.03h-1.295v3.307h-3.025V166.779z M226.042,172.02
			c1.029,0,1.623-0.5,1.623-1.295v-0.031c0-0.857-0.625-1.295-1.639-1.295h-1.98v2.621H226.042z"/>
		<path fill="#00529C" d="M232.229,166.779h8.779v2.572h-5.786v1.654h5.24v2.385h-5.24v1.731h5.864v2.573h-8.857V166.779z"/>
	</g>
	<rect y="151.541" fill="#00529C" width="241.079" height="7.283"/>
	<path fill="#00529C" d="M237.203,137.977c0,3.673-2.979,6.66-6.653,6.66c-3.688,0-6.662-2.987-6.662-6.66
		c0-3.674,2.975-6.657,6.662-6.657C234.225,131.319,237.203,134.303,237.203,137.977 M57.421,85.901
		c-5.145-7.325-15.195-7.814-21.014-7.814H1.442v65.358h36.216c4.231,0,17.517,0,22.252-8.636c2.42-4.237,2.42-11.209-0.082-15.699
		c-3.159-5.562-6.646-6.973-11.212-8.546c5.651-1.908,8.883-3.984,10.88-10.057C60.736,96.612,60.494,90.209,57.421,85.901
		 M23.789,103V92.369h6.393c4.155,0,6.719,1.423,6.719,5.322c0,4.317-2.563,5.309-6.719,5.309H23.789z M23.789,129.336v-10.634
		h7.309c4.146,0,6.727,1.41,6.727,5.302c0,4.326-2.58,5.332-6.727,5.332H23.789z M84.347,143.441l3.607-7.879h23.554l3.608,7.879
		h24.121l-38.482-65.307h-2.05l-38.483,65.307H84.347z M99.688,109.639l5.67,12.296H94.116L99.688,109.639z M235.122,126.981
		l7.459-48.823l-24.113-0.032l7.317,48.855H235.122z M250.927,78.165c-2.835,0-5.095,2.204-5.095,4.948
		c0,2.807,2.26,4.983,5.095,4.983c2.87,0,5.073-2.176,5.073-4.983c0-2.744-2.203-4.948-5.039-4.948H250.927z M250.927,79.161
		c2.207,0,3.809,1.786,3.809,3.953c0,2.209-1.602,3.989-3.774,3.962c-2.236,0-3.864-1.753-3.864-3.962
		c0-2.167,1.628-3.953,3.806-3.953H250.927z M250.144,83.722h0.544c0.637,0,0.939,0.245,1.03,0.786
		c0.147,0.571,0.238,0.992,0.388,1.176h1.24c-0.12-0.152-0.212-0.453-0.361-1.204c-0.152-0.668-0.42-1.066-0.908-1.215v-0.061
		c0.605-0.181,1.025-0.602,1.025-1.176c0-0.45-0.209-0.849-0.481-1.051c-0.361-0.247-0.785-0.393-1.718-0.393
		c-0.818,0-1.45,0.091-1.902,0.18v4.919h1.144V83.722z M250.179,81.487c0.119-0.027,0.328-0.055,0.632-0.055
		c0.726,0,1.055,0.3,1.055,0.742c0,0.522-0.511,0.735-1.149,0.735h-0.537V81.487z M191.808,119.809l1.229,23.636h21.261
		l-1.957-65.296h-1.632l-32.122,25.336l-32.013-25.336h-1.632l-1.958,65.296h21.262l1.227-23.636l13.114,10.636L191.808,119.809z"/>
</g>
</svg>
