<svg version="1.1" id="Layer_1" xmlns="http://www.w3.org/2000/svg" xmlns:xlink="http://www.w3.org/1999/xlink" x="0px" y="0px"
	 width="256px" height="256px" viewBox="0 0 256 256" enable-background="new 0 0 256 256" xml:space="preserve">
<g>
	<path d="M126.858,141.337c-1.258-0.839-2.932-1.26-5.025-1.26h-2.875v10.597c0.6,0.119,1.586,0.18,2.961,0.18
		c2.066,0,3.697-0.405,4.895-1.217c1.436-0.932,2.155-2.33,2.155-4.195C128.969,143.639,128.26,142.27,126.858,141.337z"/>
	<path d="M149.123,135.477c-1.957,0-3.439,0.873-4.465,2.609c-0.871,1.436-1.307,3.191-1.307,5.26c0,2.008,0.436,3.729,1.307,5.172
		c1.053,1.738,2.525,2.605,4.422,2.605c1.859,0,3.316-0.883,4.371-2.65c0.904-1.468,1.354-3.209,1.354-5.217
		s-0.438-3.734-1.309-5.17C152.471,136.35,151.014,135.477,149.123,135.477z"/>
	<path d="M168.361,111.38c0.88,0,1.564-0.417,2.062-1.255c0.424-0.694,0.637-1.515,0.637-2.465c0-0.95-0.207-1.763-0.615-2.443
		c-0.479-0.822-1.17-1.233-2.062-1.233c-0.92,0-1.627,0.411-2.102,1.233c-0.412,0.68-0.619,1.507-0.619,2.487
		c0,0.95,0.207,1.763,0.619,2.446C166.777,110.968,167.471,111.38,168.361,111.38z"/>
	<path d="M126.43,135.207c1.09-0.872,1.636-2.016,1.636-3.43c0-2.971-1.977-4.461-5.92-4.461c-1.381,0-2.443,0.091-3.189,0.271
		v8.929h3.008C123.846,136.516,125.334,136.08,126.43,135.207z"/>
	<path d="M177.992,109.788c0,0.536,0.145,0.941,0.445,1.208c0.299,0.27,0.67,0.405,1.127,0.405c0.51,0,0.979-0.158,1.414-0.479
		c0.43-0.319,0.694-0.724,0.791-1.22c0.033-0.113,0.049-0.249,0.049-0.404v-1.594C179.268,107.66,177.992,108.353,177.992,109.788z"
		/>
	<path d="M174.509,135.477c-1.954,0-3.442,0.873-4.463,2.609c-0.875,1.436-1.312,3.191-1.312,5.26c0,2.008,0.437,3.729,1.312,5.172
		c1.05,1.738,2.519,2.605,4.416,2.605c1.865,0,3.32-0.883,4.373-2.65c0.905-1.468,1.354-3.209,1.354-5.217s-0.437-3.734-1.306-5.17
		C177.859,136.35,176.402,135.477,174.509,135.477z"/>
	<path d="M121.191,111.38c0.879,0,1.564-0.417,2.064-1.255c0.425-0.694,0.636-1.515,0.636-2.465c0-0.95-0.207-1.763-0.619-2.443
		c-0.477-0.822-1.166-1.233-2.057-1.233c-0.922,0-1.625,0.411-2.104,1.233c-0.412,0.68-0.617,1.507-0.617,2.487
		c0,0.95,0.205,1.763,0.617,2.446C119.605,110.968,120.299,111.38,121.191,111.38z"/>
	<path d="M106.207,100.218c-0.723,0-1.34,0.055-1.85,0.153v10.713c0.281,0.044,0.803,0.062,1.553,0.062
		c1.756,0,3.113-0.488,4.07-1.467s1.436-2.402,1.436-4.271c0-1.671-0.441-2.957-1.33-3.851
		C109.199,100.667,107.908,100.218,106.207,100.218z"/>
	<path d="M193.701,110.38c0.436-0.522,0.654-1.152,0.654-1.89v-1.724c0-0.299-0.021-0.538-0.062-0.72
		c-0.131-0.556-0.408-1.021-0.832-1.394c-0.424-0.375-0.933-0.566-1.53-0.566c-0.851,0-1.519,0.343-2.011,1.023
		c-0.485,0.678-0.729,1.552-0.729,2.615c0,1.018,0.235,1.848,0.699,2.487c0.5,0.68,1.17,1.018,2.002,1.018
		C192.645,111.229,193.244,110.946,193.701,110.38z"/>
	<path d="M210.044,103.984c-0.918,0-1.625,0.411-2.103,1.233c-0.414,0.68-0.618,1.507-0.618,2.487c0,0.95,0.204,1.763,0.618,2.446
		c0.494,0.818,1.188,1.23,2.078,1.23c0.883,0,1.568-0.417,2.064-1.255c0.424-0.694,0.639-1.515,0.639-2.465
		c0-0.95-0.207-1.763-0.617-2.443C211.627,104.395,210.938,103.984,210.044,103.984z"/>
	<path d="M245.186,82.285H10.811C4.854,82.285,0,87.131,0,93.09v69.831c0,5.954,4.854,10.791,10.811,10.791h234.375
		c5.955,0,10.809-4.837,10.81-10.791V93.09C255.995,87.131,251.141,82.285,245.186,82.285z M219.564,102.516l0.109,1.597h0.064
		c0.27-0.499,0.668-0.909,1.188-1.233c0.623-0.383,1.318-0.577,2.085-0.577c0.967,0,1.764,0.311,2.401,0.938
		c0.797,0.764,1.188,1.904,1.188,3.423v6.184h-2.293v-5.931c0-1.83-0.692-2.741-2.084-2.741c-0.68,0-1.231,0.251-1.658,0.754
		c-0.426,0.503-0.637,1.096-0.637,1.774v6.144h-2.297v-7.379c0-0.903-0.027-1.888-0.084-2.952H219.564z M179.607,103.94
		c-1.022,0-1.922,0.255-2.698,0.764l-0.472-1.51c0.965-0.593,2.146-0.892,3.547-0.892c2.711,0,4.066,1.425,4.066,4.274v3.804
		c0,1.037,0.047,1.857,0.143,2.47h-2.06l-0.174-1.192h-0.06c-0.707,0.946-1.715,1.423-3.017,1.423c-0.979,0-1.766-0.311-2.358-0.934
		c-0.541-0.569-0.814-1.27-0.814-2.106c0-1.262,0.531-2.223,1.584-2.89c1.061-0.667,2.543-0.993,4.459-0.977v-0.193
		C181.754,104.621,181.037,103.94,179.607,103.94z M147.336,102.516l0.113,1.597h0.061c0.266-0.499,0.662-0.909,1.193-1.233
		c0.619-0.383,1.314-0.577,2.078-0.577c0.965,0,1.762,0.311,2.402,0.938c0.793,0.764,1.188,1.904,1.188,3.423v6.184h-2.292v-5.931
		c0-1.83-0.699-2.741-2.084-2.741c-0.68,0-1.232,0.251-1.658,0.754c-0.428,0.503-0.641,1.096-0.641,1.774v6.144h-2.289v-7.379
		c0-0.903-0.035-1.888-0.092-2.952H147.336z M117.549,103.832c0.924-1.02,2.178-1.532,3.75-1.532c1.516,0,2.734,0.506,3.658,1.511
		c0.877,0.98,1.314,2.241,1.314,3.786c0,1.586-0.451,2.89-1.359,3.913c-0.949,1.047-2.213,1.57-3.787,1.57
		c-1.512,0-2.721-0.503-3.619-1.508c-0.904-1.007-1.35-2.275-1.35-3.807C116.156,106.165,116.619,104.85,117.549,103.832z
		 M56.064,100.81c2.088-2.443,5.719-4.316,8.625-4.443c0.383,3.451-0.994,6.849-2.998,9.347c-2.093,2.463-5.443,4.34-8.707,4.097
		C52.556,106.493,54.214,102.962,56.064,100.81z M72.806,147.441c-2.403,3.582-4.926,7.088-8.928,7.145
		c-3.89,0.086-5.201-2.279-9.656-2.279c-4.506,0-5.901,2.223-9.631,2.365c-3.811,0.143-6.723-3.816-9.215-7.373
		c-4.986-7.24-8.865-20.421-3.666-29.387c2.523-4.398,7.123-7.23,12.031-7.306c3.818-0.076,7.359,2.565,9.703,2.565
		c2.305,0,6.682-3.163,11.203-2.69c1.884,0.054,7.259,0.742,10.73,5.779c-0.281,0.169-6.404,3.752-6.338,11.118
		c0.078,8.833,7.758,11.747,7.855,11.78C76.849,139.363,75.689,143.369,72.806,147.441z M106.961,154.281h-4.867v-21.914h4.867
		V154.281z M106.649,127.948c-0.574,0.54-1.311,0.812-2.213,0.812c-0.811,0-1.494-0.277-2.049-0.833
		c-0.557-0.558-0.836-1.257-0.836-2.098c0-0.841,0.285-1.532,0.857-2.074c0.572-0.543,1.275-0.813,2.117-0.813
		c0.842,0,1.549,0.27,2.123,0.813c0.569,0.542,0.856,1.233,0.856,2.074C107.504,126.699,107.217,127.407,106.649,127.948z
		 M111.522,111.17c-1.43,1.201-3.465,1.804-6.102,1.804c-1.301,0-2.422-0.057-3.357-0.171V98.71
		c1.217-0.198,2.537-0.296,3.953-0.296c2.508,0,4.4,0.545,5.676,1.636c1.429,1.232,2.148,2.998,2.148,5.295
		C113.84,107.924,113.063,109.864,111.522,111.17z M131.311,151.668c-2.106,1.891-5.71,2.838-10.822,2.838
		c-2.342,0-4.479-0.121-6.402-0.357v-29.856c2.041-0.418,4.562-0.628,7.561-0.628c3.715,0,6.525,0.678,8.428,2.028
		c1.906,1.35,2.859,3.214,2.859,5.583c0,1.442-0.439,2.754-1.314,3.938c-0.883,1.188-2.113,2.064-3.686,2.637v0.131
		c1.711,0.424,3.122,1.231,4.236,2.432c1.261,1.411,1.89,3.123,1.89,5.134C134.061,148.006,133.146,150.051,131.311,151.668z
		 M136.154,108.364c-0.336-1.123-0.615-2.233-0.828-3.34h-0.043c-0.201,1.135-0.473,2.247-0.828,3.34l-1.426,4.486h-2.123
		l-3.039-10.333h2.359l1.17,4.909c0.283,1.161,0.512,2.27,0.703,3.316h0.037c0.17-0.862,0.456-1.961,0.854-3.295l1.465-4.931h1.869
		l1.408,4.821c0.338,1.182,0.617,2.313,0.824,3.404h0.065c0.153-1.061,0.392-2.195,0.701-3.404l1.256-4.821h2.251v0.001
		l-3.227,10.333h-2.109L136.154,108.364z M156.967,151.438c-2.014,2.226-4.688,3.34-8.025,3.34c-3.215,0-5.778-1.069-7.688-3.2
		c-1.907-2.136-2.86-4.826-2.86-8.074c0-3.397,0.983-6.176,2.951-8.34c1.973-2.165,4.627-3.245,7.961-3.245
		c3.217,0,5.805,1.066,7.754,3.199c1.863,2.072,2.795,4.75,2.795,8.027C159.854,146.51,158.891,149.277,156.967,151.438z
		 M160.348,112.846h-2.295V97.774h2.295V112.846z M164.719,103.832c0.922-1.02,2.182-1.532,3.748-1.532
		c1.516,0,2.738,0.506,3.658,1.511c0.881,0.98,1.314,2.241,1.314,3.786c0,1.586-0.449,2.89-1.361,3.913
		c-0.945,1.047-2.207,1.57-3.781,1.57c-1.514,0-2.721-0.503-3.623-1.508c-0.902-1.007-1.348-2.275-1.348-3.807
		C163.326,106.165,163.789,104.85,164.719,103.832z M182.352,151.438c-2.013,2.226-4.685,3.34-8.021,3.34
		c-3.219,0-5.783-1.069-7.691-3.2c-1.906-2.136-2.863-4.826-2.863-8.074c0-3.397,0.984-6.176,2.951-8.34
		c1.969-2.165,4.627-3.245,7.965-3.245c3.216,0,5.8,1.066,7.752,3.199c1.867,2.072,2.797,4.75,2.797,8.027
		C185.24,146.51,184.275,149.277,182.352,151.438z M186.876,107.811c0-1.671,0.44-3.026,1.334-4.06
		c0.867-0.966,1.931-1.447,3.188-1.447c1.388,0,2.365,0.468,2.914,1.403h0.041v-5.928h2.301v12.283
		c0.002,1.007,0.029,1.936,0.088,2.785h-2.047l-0.103-1.658h-0.067c-0.648,1.261-1.754,1.895-3.312,1.895
		c-1.252,0-2.284-0.49-3.108-1.469C187.283,110.638,186.876,109.369,186.876,107.811z M203.908,154.279l-6.631-10.008l-1.846,2.254
		v7.754h-4.869v-31.967h4.869v19.836h0.092c0.6-0.963,1.186-1.803,1.754-2.521l5.639-7.26h5.814l-8.066,9.018l9.193,12.895H203.908z
		 M206.335,111.572c-0.901-1.007-1.349-2.275-1.349-3.807c0-1.6,0.464-2.915,1.394-3.933c0.922-1.02,2.183-1.532,3.75-1.532
		c1.515,0,2.733,0.506,3.656,1.511c0.878,0.98,1.315,2.241,1.315,3.786c0,1.586-0.449,2.89-1.36,3.913
		c-0.949,1.047-2.209,1.57-3.781,1.57C208.441,113.08,207.239,112.577,206.335,111.572z M224.467,152.881
		c-1.504,1.234-3.578,1.852-6.223,1.852c-2.492,0-4.615-0.498-6.355-1.488l1.039-3.61c1.682,1.025,3.467,1.535,5.365,1.535
		c2.492,0,3.738-0.914,3.738-2.752c0-0.812-0.27-1.478-0.809-2.005c-0.546-0.521-1.507-1.044-2.89-1.555
		c-3.906-1.441-5.858-3.549-5.858-6.312c0-1.895,0.721-3.472,2.164-4.732c1.442-1.265,3.35-1.894,5.727-1.894
		c2.162,0,4.014,0.435,5.549,1.304l-1.043,3.475c-1.414-0.842-2.902-1.264-4.461-1.264c-1.023,0-1.82,0.241-2.395,0.721
		c-0.568,0.481-0.854,1.1-0.854,1.852c0,0.75,0.301,1.368,0.903,1.846c0.509,0.452,1.502,0.947,2.979,1.488
		c3.784,1.441,5.677,3.65,5.677,6.627C226.721,150.014,225.971,151.648,224.467,152.881z"/>
</g>
</svg>
